<?xml version="1.0" encoding="UTF-8"?><svg id="Layer_2" xmlns="http://www.w3.org/2000/svg" viewBox="0 0 45.31873 19.00001"><path id="CROWN" d="M16.42047,18.49295c-2.27997.18096-3.91712-3.17314-4.20149-3.75573-1.01315-2.07569-1.07282-4.05665-1.15008-6.62158-.03584-1.18981-.01234-3.87519.89876-5.64565.55964-1.0875,1.33831-1.66477,2.35065-1.5714.49701.04585.99166.157,1.4859-.04407,1.81154-.73702,3.58028-.18855,5.32637.4104,1.0262.352,1.36558,1.1188,1.36851,2.54069.00141.6854-.04191,1.36773-.06675,2.05119-.09695,2.66725-.20168,2.48612-.23658,2.7663-.62897,5.04854-3.1016,7.94121-3.10161,7.94122-.83068.97178-1.57396,1.84133-2.67368,1.92863Z" fill="none" stroke="#231f20" stroke-miterlimit="10"/><path id="CROWN-2" d="M5.44851,13.99491c-2.10459.13069-3.6158-2.29171-3.87829-2.71247-.93522-1.49911-.9903-2.9298-1.06161-4.78225-.03308-.85931-.01139-2.79875.82962-4.07741.51659-.78542,1.23537-1.20233,2.16983-1.1349.45878.03311.91538.11339,1.3716-.03183,1.67219-.53229,3.30488-.13617,4.91665.2964.94726.25423,1.26053.80802,1.26324,1.83495.0013.49501-.03869.9878-.06162,1.48141-.08949,1.92635-.18617,1.79553-.21839,1.99788-.58058,3.64617-2.86302,5.73532-2.86303,5.73532-.76678.70184-1.45289,1.32985-2.46801,1.3929h.00001Z" fill="none" stroke="#231f20" stroke-miterlimit="10"/><path id="CROWN-3" d="M26.06435,16.56432s-2.47265-2.89268-3.10161-7.94122c-.03491-.28018-.13963-.09905-.23658-2.7663-.02484-.68346-.06817-1.36579-.06675-2.05119.00293-1.4219.3423-2.18869,1.36851-2.54069,1.74609-.59894,3.51483-1.14741,5.32637-.4104.49424.20107.98889.08992,1.4859.04407,1.01233-.09337,1.79101.48389,2.35065,1.5714.91109,1.77046.9346,4.45583.89876,5.64565-.07726,2.56493-.13693,4.54589-1.15008,6.62158-.28437.58259-1.92151,3.93669-4.20149,3.75573-1.09971-.0873-1.843-.95685-2.67368-1.92863Z" fill="none" stroke="#231f20" stroke-miterlimit="10"/><path id="CROWN-4" d="M37.40222,12.60201s-2.28244-2.08916-2.86303-5.73532c-.03222-.20235-.12889-.07154-.21839-1.99788-.02293-.49361-.06292-.9864-.06162-1.48141.00271-1.02693.31597-1.58072,1.26324-1.83495,1.61177-.43257,3.24446-.82869,4.91665-.2964.45622.14522.91282.06495,1.3716.03183.93446-.06744,1.65324.34948,2.16983,1.1349.84101,1.27866.8627,3.2181.82962,4.07741-.07132,1.85245-.12639,3.28314-1.06161,4.78225-.26249.42076-1.77371,2.84316-3.8783,2.71247-1.01512-.06305-1.70123-.69106-2.46799-1.3929Z" fill="none" stroke="#231f20" stroke-miterlimit="10"/></svg>