<?xml version="1.0" encoding="UTF-8"?><svg id="LU_OUT_6" xmlns="http://www.w3.org/2000/svg" viewBox="0 0 159.32 398.582"><g id="BRIDGEMARK"><rect id="BRL21" x="81.512" y="230.206" width="73.477" height="59.24" transform="translate(236.501 519.652) rotate(180)" fill="#170df7" stroke-width="0"/><rect id="BRR23" x="8.695" y="230.206" width="73.477" height="59.24" transform="translate(90.866 519.652) rotate(180)" fill="#170df7" stroke-width="0"/></g><g id="DENTUREMARK"><rect id="CHL21" x="81.512" y="160.218" width="73.477" height="129.165" transform="translate(236.501 449.6) rotate(180)" fill="#170df7" stroke-width="0"/><rect id="CHR23" x="8.695" y="160.218" width="73.477" height="129.165" transform="translate(90.866 449.6) rotate(180)" fill="#170df7" stroke-width="0"/></g><path id="EXTRACTED" d="M13.53,378.855c3.731,2.508,7.204,5.096,10.276,8.389,10.44,11.239,24.148,13.817,38.155,7.362,7.895-3.646,16.604-5.569,23.787-10.735,1.185-.856,2.587-.524,3.947,0,10.626,4.058,21.778,4.129,32.898,3.635,5.689-.252,10.41-3.011,14.202-7.331,2.999-3.404,6.246-6.637,9.595-9.728,15.109-13.978,14.646-31.128,6.926-47.332-2.587-5.438-5.689-10.624-9.214-15.488-7.338-10.151-8.925-21.742-9.977-33.605-2.041-23.102.928-45.972,2.979-68.893,2.329-26.163,2.329-52.276-.402-78.429-.196-1.923-.402-3.827-.598-5.74-1.433-13.958-2.721-27.926-3.432-41.944-.206-4.119-.587-8.268-1.948-12.246-.773-2.256-1.639-4.562-4.37-4.985-2.587-.413-4.154,1.531-5.493,3.253-2.824,3.646-4.535,7.875-5.658,12.266-2.515,9.809-4.607,19.708-5.205,29.839-.093,1.642-.216,3.515-2.422,3.424-2.103-.091-1.67-2.014-1.865-3.414-2.566-17.976-5.153-35.942-9.801-53.555-.402-1.521-.928-3.041-1.546-4.491-1.608-3.857-3.36-7.855-8.266-8.208-.072-.01-.155-.02-.237-.02-4.947-.242-7.946,3.142-10.44,6.737-1.597,2.326-2.463,5.055-3.226,7.774-.629,2.175-1.649,3.666-4.421,3.515-3.226-.171-5.256,1.974-7.029,4.25-4.679,5.972-7.885,12.749-10.471,19.738-4.597,12.417-8.74,24.945-12.203,37.674-3.009,11.037-5.514,22.196-7.349,33.535-3.628,22.326-4.545,44.824-4.174,64.522-.103,14.683.196,26.506-.495,38.308-.526,9.013-2.659,17.744-4.525,26.506-.443,2.075-.866,4.139-1.247,6.224-1.948,10.614-5.514,20.745-9.698,30.705-3.978,9.466-5.287,19.497-6.493,29.547-.433,3.625-.515,7.301-.938,10.906-1,8.62,3.978,13.776,10.379,18.036Z" fill="none" stroke="#000" stroke-miterlimit="10"/><g id="EXTRACTION"><path d="M26.542,218.622c-.103,14.681.198,26.501-.489,38.317-.648,11.132-3.759,21.834-5.768,32.727-1.956,10.607-5.519,20.747-9.698,30.693-3.983,9.478-5.296,19.505-6.497,29.558-.433,3.626-.515,7.3-.934,10.901-1.004,8.62,3.976,13.78,10.37,18.044,3.739,2.494,7.207,5.084,10.276,8.385,10.447,11.234,24.148,13.811,38.162,7.353,7.895-3.638,16.601-5.563,23.779-10.73,1.194-.86,2.596-.521,3.951-.003,10.627,4.062,21.776,4.131,32.9,3.638,5.69-.252,10.405-3.019,14.2-7.33,3.002-3.41,6.245-6.644,9.594-9.737,15.114-13.96,14.653-31.122,6.929-47.323-2.59-5.432-5.691-10.626-9.209-15.49-7.339-10.147-8.927-21.735-9.978-33.604-2.045-23.098.923-45.975,2.971-68.891,2.338-26.162,2.333-52.283-.397-78.433-1.656-15.862-3.228-31.741-4.034-47.681-.208-4.111-.586-8.27-1.947-12.245-.771-2.253-1.641-4.563-4.37-4.99-2.583-.404-4.154,1.533-5.489,3.259-2.823,3.648-4.539,7.876-5.662,12.262-2.512,9.813-4.603,19.712-5.2,29.849-.096,1.635-.219,3.506-2.425,3.418-2.103-.084-1.672-2.016-1.871-3.411-2.562-17.973-5.148-35.943-9.792-53.553-.404-1.53-.935-3.041-1.548-4.505-1.637-3.91-3.42-7.978-8.506-8.223-4.942-.238-7.949,3.143-10.436,6.743-1.604,2.322-2.464,5.052-3.234,7.764-.62,2.181-1.648,3.669-4.414,3.522-3.228-.172-5.26,1.98-7.035,4.247-4.678,5.975-7.88,12.75-10.47,19.741-8.592,23.185-15.581,46.803-19.546,71.204-3.629,22.332-4.545,44.821-4.182,64.524Z" fill="none" stroke="#000" stroke-dasharray="0 0 10.058 10.058" stroke-miterlimit="10"/></g><path id="APICECTOMY" d="M38.069,120.787c32.682.131,65.354.262,98.035.393-1.433-13.988-2.721-27.996-3.432-42.055-.206-4.129-.587-8.298-1.948-12.286-.773-2.256-1.639-4.572-4.37-4.995-2.587-.413-4.154,1.531-5.493,3.263-2.824,3.656-4.535,7.895-5.658,12.296-2.515,9.839-4.607,19.768-5.205,29.93-.093,1.642-.216,3.525-2.422,3.434-2.103-.091-1.67-2.024-1.865-3.424-2.566-18.026-5.153-36.042-9.801-53.706-.402-1.531-.928-3.051-1.546-4.512-1.639-3.928-3.422-8.006-8.503-8.248-4.947-.242-7.946,3.152-10.44,6.757-1.597,2.336-2.463,5.066-3.226,7.795-.629,2.185-1.649,3.676-4.421,3.525-3.226-.171-5.256,1.984-7.029,4.26-4.679,5.992-7.885,12.79-10.471,19.799-4.597,12.447-8.74,25.015-12.203,37.775Z" fill="none" stroke="#000" stroke-miterlimit="10"/><path id="HEMISECTION" d="M21.528,283.437h64.57s0-242.539,0-242.539c-.072-.01-.155-.02-.237-.02-4.947-.242-7.946,3.142-10.44,6.737-1.597,2.326-2.463,5.055-3.226,7.774-.629,2.175-1.649,3.666-4.421,3.515-3.226-.171-5.256,1.974-7.029,4.25-4.679,5.972-7.885,12.749-10.471,19.738-4.597,12.417-8.74,24.945-12.203,37.674-3.009,11.037-5.514,22.196-7.349,33.535-3.628,22.326-4.545,44.824-4.174,64.522-.103,14.683.196,26.506-.495,38.308-.526,9.013-2.659,17.744-4.525,26.506Z" fill="none" stroke="#000" stroke-miterlimit="10"/><path id="CROWN_FILL" d="M9.556,320.141c-1.691,3.611-4.41,12.126-6.497,29.642-.433,3.637-.515,7.321-.934,10.931-1.004,8.644,3.976,13.819,10.37,18.095,3.739,2.501,7.207,5.099,10.276,8.409,10.447,11.266,24.148,13.85,38.162,7.374,7.895-3.649,16.601-5.579,23.779-10.761,1.194-.862,2.596-.522,3.951-.003,10.627,4.073,21.776,4.143,32.9,3.649,5.69-.253,10.405-3.027,14.2-7.351,3.002-3.42,6.245-6.662,9.594-9.764,15.114-14,14.653-31.21,6.929-47.456-1.528-3.215-4.301-10.314-9.209-15.534-3.851-4.095-14.645-13.165-64.374-8.263-37.975,3.743-62.169,6.128-69.147,21.031Z" fill="none" stroke="#000" stroke-miterlimit="10"/><path id="CROWN" d="M9.556,320.141c-1.691,3.611-4.41,12.126-6.497,29.642-.433,3.637-.515,7.321-.934,10.931-1.004,8.644,3.976,13.819,10.37,18.095,3.739,2.501,7.207,5.099,10.276,8.409,10.447,11.266,24.148,13.85,38.162,7.374,7.895-3.649,16.601-5.579,23.779-10.761,1.194-.862,2.596-.522,3.951-.003,10.627,4.073,21.776,4.143,32.9,3.649,5.69-.253,10.405-3.027,14.2-7.351,3.002-3.42,6.245-6.662,9.594-9.764,15.114-14,14.653-31.21,6.929-47.456-1.528-3.215-4.301-10.314-9.209-15.534-3.851-4.095-14.645-13.165-64.374-8.263-37.975,3.743-62.169,6.128-69.147,21.031Z" fill="none" stroke="#000" stroke-miterlimit="10"/><path id="CLASS_1" d="M39.696,221.219c6.303-5.423,13.962-9.809,22.193-9.037,10.273.964,12.92,9.164,22.653,9.037,9.967-.13,12.828-8.803,22.65-9.037,7.732-.184,14.105,4.996,18.058,9.037-4.099-3.979-6.573-9.193-6.984-14.722-.308-6.502,2.214-12.842,6.984-17.555-8.218,7.073-14.702,8.265-19.065,8.079-9.708-.415-12.29-7.802-22.65-8.079-8.35-.223-10.307,4.479-19.633,5.71-6.089.804-14.127-.029-24.207-5.71,4.53,3.942,7.254,9.388,7.595,15.186.459,9.93-6.581,16.216-7.595,17.091h0s0,0,0,0Z" fill="none" stroke="#000" stroke-miterlimit="10"/><ellipse id="CLASS_11" cx="83.098" cy="352.718" rx="13.821" ry="13.505" fill="none" stroke="#000" stroke-miterlimit="10"/><path id="CLASS_22_M" d="M3.017,354.857c0,1.752.01,3.736.113,5.791.134,2.699.433,5.549,1.113,8.208.917,3.565,2.525,6.798,5.328,8.933.124.091.247.191.381.282.495.353,1.051.695,1.701,1.108,1.216.765,2.793,1.772,5.102,3.565,2.504,1.954,4.205,3.525,4.659,3.928.721.655,1.443,1.279,2.164,1.863.526.443,1.062.866,1.587,1.259,1.257.977,2.494,1.833,3.7,2.608.031.03.062.05.093.06.794.504,1.567.977,2.319,1.4,2.206-2.981,3.473-6.576,3.164-9.778-1.237-12.971-2.463-25.932-3.7-38.902-.165-1.772-.67-3.454-1.464-5.005-.041-.081-.082-.151-.124-.222-2.432-4.562-7.348-7.926-13.306-8.771l-8.544-1.188c-.68,2.367-1.299,4.572-1.845,6.818-.021.06-.031.131-.052.191-.484,2.044-.928,4.129-1.299,6.425-.01.091-.031.181-.041.272-.041.252-.082.494-.124.745-.474,3.112-.938,6.324-.928,10.413Z" fill="none" stroke="#000" stroke-miterlimit="10"/><path id="CLASS_22_D" d="M131.281,385.35c.134-.081.258-.181.392-.272,3.164-2.266,6.431-5.579,10.502-9.638,2.608-2.598,5.998-6.294,9.523-11.158,1.917-2.659,7.173-12.246,6.04-24.673-.35-3.706-1.196-6.767-2.319-9.768-.577-.272-1.185-.453-1.824-.544-1.072-.151-2.01,0-2.659.161l-9.977,1.46c-4.555.675-8.338,3.273-10.337,6.818-.031.06-.062.121-.093.181-.752,1.39-1.237,2.92-1.381,4.532-.969,10.685-1.948,21.37-2.917,32.055-.34,3.766,1.824,8.157,5.05,10.846Z" fill="none" stroke="#000" stroke-miterlimit="10"/><path id="CLASS_2_MOD" d="M1.029,203.003c.336,2.517.682,4.313.849,5.162.493,2.468.965,4.215,1.741,6.554.094.286.199.582.294.888.021.049.031.089.052.138.115.336.231.691.367,1.076.64,1.856,1.458,4.126,2.538,7.235.199.582.419,1.184.64,1.826,7.344,2.046,18.706,4.577,32.734,4.995,19.256.574,22.32-3.464,42.66-3.649,21.537-.196,25.48,4.265,45.88,3.194,12.623-.662,22.847-2.986,29.537-4.856-.357-5.858-.521-8.331-.556-8.657-.031-.296-.063-.582-.094-1.066,0-.04-.01-.079-.01-.118-.031-.365-.052-.73-.084-1.096-.283-3.672-.461-6.801-.461-6.801-.178-3.287-.294-5.301-.367-6.603-6.958-1.928-17.95-4.395-31.583-4.848-18.947-.63-22.289,3.316-43.228,3.821-21.711.524-25.613-3.538-46.216-2.683-15.074.626-27.159,3.388-34.691,5.487Z" fill="none" stroke="#000" stroke-miterlimit="10"/><path id="CLASS_3_D" d="M4.161,215.484c1.804.113,4.043.185,6.848.185,10.087,0,16.336.205,23.021-2.158,4.315-1.531,8.348-3.729,11.934-6.493.12-.082.217-.175.315-.277,4.38-4.88,4.511-8.517,4.38-10.408-1.043-9.319-16.717-18.051-39.933-19.377-2.413,6.658-4.489,14.26-5.63,22.911-.815,6.164-.978,11.517-.935,15.617Z" fill="none" stroke="#000" stroke-miterlimit="10"/><path id="CLASS_3_M" d="M151.192,214.852c-.099,0-.246,0-.425.001-9.455.007-15.294.188-21.456-2.158-4.022-1.531-7.78-3.729-11.123-6.493-.111-.082-.203-.175-.294-.277-3.08-3.474-4.239-7.832-4.082-10.408.319-5.233,5.41-8.694,9.119-11.216,9.824-6.679,20.83-7.799,27.591-7.824.993,1.657,2.249,4.088,3.177,7.192.875,2.925,1.097,5.238,1.28,7.251.128,1.41.357,4.649-.025,8.793-.328,3.551-1.208,8.873-3.762,15.139Z" fill="none" stroke="#000" stroke-miterlimit="10"/><path id="CLASS_4_INCISAL" d="M4.759,218.618c2.402,4.562,4.728,8.045,6.359,10.336,10.217,14.322,22.347,21.319,46.618,35.312,1.565.904,4.435,2.517,8.413,2.825,4.152.318,7.13-.966,11.858-2.733,9.978-3.719,8.195-2.25,15.826-5.271,14.597-5.764,26.793-10.582,35.629-20.363,1.283-1.408,7.348-8.291,11.869-13.777.609-.75,2.228-2.733,4.543-5.332-19.575-.627-39.553-1.069-59.933-1.295-27.771-.298-54.846-.185-81.182.298Z" fill="none" stroke="#000" stroke-miterlimit="10"/><path id="CLASS_4_D" d="M95.191,258.553c14-5.538,25.706-10.356,34.271-19.829,1.283-1.408,7.348-8.291,11.869-13.777.609-.75,2.228-2.733,4.543-5.332.044-.051.087-.092.13-.144,2.511-2.815,4.348-4.706,4.685-5.055.783-.832,1.554-2.014,2.217-3.76,1.391-3.627,2.337-9.658,2.022-19.849-.63-2.877-1.793-7.223-4.011-12.216-.196-.432-.38-.842-.565-1.233,0,0,0-.01-.011-.01-2.641-5.589-4.902-7.921-8.608-14.281-2.446,2.527-5.608,6.596-9.728,13.089-9.858,15.524-14.663,28.274-15.891,31.5-13.173,34.562-24.217,46.808-20.923,50.898Z" fill="none" stroke="#000" stroke-miterlimit="10"/><path id="CLASS_4_M" d="M4.161,215.484c.011.74.022,1.438.044,2.086.185.36.37.709.554,1.048,2.402,4.562,4.728,8.045,6.359,10.336,8.543,11.98,18.434,18.832,35.64,28.942,1.206-7.253-1.283-23.014-11.304-54.226-2.098-6.719-4.011-12.524-5.587-17.209-1.587-4.747-2.565-7.531-3.902-10.808-3.489-8.558-5.554-13.613-7.826-15.298-2.456,4.705-5.098,10.212-7.413,16.603-2.413,6.658-4.489,14.26-5.63,22.911-.815,6.164-.978,11.517-.935,15.617Z" fill="none" stroke="#000" stroke-miterlimit="10"/><path id="CLASS_5" d="M79.16,320.757c23.859-1.446,41.187-12.579,49.264-18.615-4.258-1.283-10.478-2.859-18.118-3.712-4.234-.473-7.717-.592-23.411-.029-17.816.639-26.85.982-32.996,2.132-5.181.97-4.552,1.206-18.283,4.184-8.116,1.76-9.306,1.889-9.416,2.582-.535,3.389,25.547,15.119,52.96,13.458Z" fill="none" stroke="#000" stroke-miterlimit="10"/><path id="ROOT_CARIES" d="M125.056,257.794c-.401-2.691-4.924-3.965-13.953-6.404-8.156-2.203-18.858-4.997-33.602-4.22-9.419.496-16.143,2.22-21.987,3.718-10.338,2.651-20.898,5.358-20.944,8.972-.047,3.65,10.655,6.617,22.977,10.033,7.683,2.13,13.202,3.66,21.141,4.132,4.627.275,13.736.737,24.524-2.479,8.617-2.569,22.587-8.761,21.844-13.752Z" fill="none" stroke="#000" stroke-miterlimit="10"/><g id="CROWN_LENGTHENING"><polygon points="123.429 302.368 128.494 295.061 120.876 302.596 120.585 291.931 114.016 300.364 113.278 289.705 103.713 297.31 99.555 285.796 90.551 294.028 84.932 283.179 77.492 292.878 71.915 283.065 67.646 293.513 60.898 284.466 57.945 295.361 50.28 287.1 49.394 297.785 42.647 289.437 42.568 300.139 34.351 293.212 39.948 300.645 34.416 308.034 43.482 301.761 43.847 312.728 51.455 304.773 52.871 315.667 60.307 307.289 63.271 318.087 69.755 308.951 73.758 319.411 79.375 309.718 85.088 319.769 90.472 309.539 97.193 318.945 101.438 308.196 109.217 316.745 111.195 305.887 118.577 314.111 119.542 303.129 128.317 309.889 123.429 302.368" fill="none" stroke="#000" stroke-miterlimit="10"/></g><path id="PARTIAL_PULPOTOMY" d="M55.209,327.875c-.611,1.835,11.935,10.753,27.101,11.035,16.74.311,38.875-9.857,39.812-24.979.945-15.248-20.12-28.156-22.516-26.338-2.164,1.642,11.573,14.804,6.962,26.364-4.321,10.834-22.178,13.802-26.055,14.447-14.571,2.422-24.774-2.124-25.304-.529Z" fill="none" stroke="#000" stroke-miterlimit="10"/><rect id="PULPOTOMY" x="50.444" y="274.593" width="52.385" height="24.557" rx="5.077" ry="5.077" transform="translate(153.273 573.742) rotate(-180)" fill="#f20c2e" stroke-width="0"/><path id="RCT" d="M64.553,56.962c-.124-.026-7.035,29.915-16,83.692,0,0-10.04,60.231-4.897,100.116.071.547.143,1.095.143,1.095.114.864.223,1.664.394,2.91.476,3.482,2.021,14.462,5.74,25.862.529,1.623.962,2.821,2.124,3.767,1.871,1.523,3.296.513,11.239.798,5.407.194,7.267.176,8.905.145,1.933-.036,3.251-.125,5.279-.169,2.768-.06,4.898-.012,6.629.024,12.641.266,15.647.751,17.568-1.436.61-.695.737-1.233,1.341-3.215,3.79-12.428,5.562-13.389,9.135-27.312.143-.557.315-1.228.537-2.144.874-3.605,2.565-10.693,3.162-18.441.119-1.54.184-2.968.213-4.272.072-3.161-.053-5.619-.114-6.615-.015-.239-.026-.416-.027-.428-.316-4.76,14.06-152.945,13.041-153.147-.785-.155-21.236,85.322-18.462,109.538.36,3.145,2.49,17.277-1.952,35.042,0,0,0,0,0,0-.005.031-1.943,12.443-7.303,35.046-.031.129-.341,1.43-.854,3.179-1.267,4.321-4.703,16.032-8.164,15.907-1.996-.072-3.642-4.067-5.65-8.94-.847-2.055-1.346-3.7-1.456-4.085-10.181-35.497-.265-74.646-.265-74.646,14.348-56.906,1.122-132.366.618-132.375-.526-.01-.262,81.763-5.849,131.76,0,0-4.594,41.114-6.926,75.146-.014.206-.091,1.327-.425,2.778-1.464,6.346-6.421,12.898-9.421,12.196-1.938-.453-3.079-5.248-5.359-14.839-.46-1.934-.696-3.08-.696-3.08-1.93-9.262-4.916-28.011-5.373-31.918-2.813-24.093,13.379-151.888,13.126-151.941Z" fill="#c60bf4" stroke-width="0"/><ellipse id="PERIAPICAL_LESION" cx="82.17" cy="20.095" rx="20.174" ry="19.595" fill="none" stroke="#000" stroke-miterlimit="10"/><ellipse id="ABSCESS_DRAINAGE" cx="82.17" cy="20.095" rx="20.174" ry="19.595" fill="none" stroke="#000" stroke-miterlimit="10"/><polyline id="CRACK" points="75.36 57.079 91.84 62.715 75.339 68.291 91.818 73.927 75.317 79.502 91.797 85.139 75.296 91.182 91.78 97.269 75.287 103.327 91.769 109.416 75.248 115.398 91.679 122.064 75.111 128.392 91.504 135.144 74.908 141.405 91.285 148.199 74.692 153.872 91.065 160.128 74.452 165.749 90.82 172.007 74.238 177.706 90.64 184.992 74.086 191.942 90.534 199.129 74.019 206.161 90.495 213.285 73.997 220.947 90.496 228.604 74.028 236.32 90.551 243.926 74.097 251.678 90.632 259.486 74.193 267.481 90.737 275.268 74.301 283.273 90.846 291.066 74.403 297.929 90.94 304.576 74.497 311.44 91.034 318.087 74.589 324.935 91.121 331.819 74.671 338.894 91.199 345.792 74.743 352.847 91.265 359.748" fill="none" stroke="#000" stroke-miterlimit="10"/><g id="APEXIFICATION"><path id="TIE4" d="M66.355,132.327c.084-2.123,1.947-3.771,4.164-3.683,1.896.076,3.435,1.395,3.789,3.105l15.691.626c.489-1.676,2.127-2.869,4.023-2.793,2.216.088,3.947,1.88,3.863,4.003s-1.952,3.775-4.168,3.686c-1.826-.073-3.325-1.304-3.745-2.927l-15.792-.63c-.547,1.584-2.135,2.693-3.965,2.62-2.216-.088-3.943-1.883-3.859-4.006Z" fill="none" stroke="#000" stroke-miterlimit="10"/><path id="TIE3" d="M71.371,114.236c.068-1.724,1.456-3.067,3.102-3.002,1.408.056,2.546,1.123,2.805,2.511l11.648.465c.367-1.363,1.587-2.336,2.995-2.279,1.645.066,2.926,1.515,2.857,3.24s-1.459,3.07-3.105,3.005c-1.356-.054-2.465-1.05-2.773-2.367l-11.724-.468c-.411,1.288-1.593,2.192-2.951,2.138-1.645-.066-2.923-1.518-2.854-3.242Z" fill="none" stroke="#000" stroke-miterlimit="10"/><path id="TIE2" d="M81.097,85.236c.028-.7.807-1.238,1.741-1.2.799.032,1.452.473,1.607,1.039l6.611.264c.2-.552.885-.939,1.684-.907.934.037,1.669.635,1.642,1.335s-.808,1.239-1.742,1.201c-.769-.031-1.405-.443-1.588-.98l-6.654-.265c-.225.521-.89.881-1.661.85-.934-.037-1.668-.636-1.64-1.336Z" fill="none" stroke="#000" stroke-miterlimit="10"/><path id="TIE1" d="M77.74,97.32c.034-.868.907-1.537,1.951-1.495.893.036,1.62.579,1.791,1.279l7.387.295c.226-.684.994-1.168,1.887-1.132,1.044.042,1.863.778,1.828,1.646s-.909,1.538-1.953,1.496c-.86-.034-1.568-.541-1.77-1.206l-7.435-.297c-.254.646-.998,1.095-1.86,1.061-1.044-.042-1.861-.78-1.826-1.647Z" fill="none" stroke="#000" stroke-miterlimit="10"/><path id="TIESHP" d="M132.979,141.051c.398-1.141.06-1.387-1.771-18.045-.858-7.81-1.318-11.712-1.475-13.902-.756-10.537-.329-16.018-3.103-23.614-.678-1.856-3.379-8.645-5.451-8.332-3.418.517.435,19.553-10.105,38.538-2.46,4.432-4.899,8.824-7.297,8.493-8.63-1.191-.706-61.719-16.925-65.98-2.985-.784-8.417-.138-11.318,3.049-3.921,4.307-.641,10.422-4.79,14.124-3.097,2.763-5.926.251-10.153,3.229-2.289,1.613-3.19,3.568-6.292,11.043-3.283,7.911-4.925,11.867-5.339,13.081-5.683,16.685-8.557,25.017-8.005,27.665,4.491,21.567,86.429,26.678,92.023,10.65Z" fill="none" stroke="#000" stroke-miterlimit="10"/></g><path id="INDIRECT_PULP_CAPPING" d="M7.152,93.375c.043,9.255,5.301,19.958,10.366,19.967,5.057.009,10.525-10.639,10.366-19.967-.092-5.369-1.978-6.251-5.889-18.508-3.616-11.332-4.046-16.98-5.497-16.939-1.48.042-1.537,5.931-4.651,17.765-3.061,11.632-4.719,12.454-4.694,17.682Z" fill="none" stroke="#000" stroke-miterlimit="10"/><path id="CROWNS" d="M145.353,370.36c-3.34,3.1-6.59,6.35-9.59,9.77-3.79,4.32-8.51,7.09-14.2,7.35-11.12.49-22.27.42-32.9-3.65-1.36-.52-2.76-.86-3.95,0-7.18,5.18-15.88,7.11-23.78,10.76-14.01,6.48-27.72,3.89-38.16-7.37-3.07-3.31-6.54-5.91-10.28-8.41-6.39-4.28-11.37-9.45-10.37-18.1.626-5.411.694-9.599.94-10.93,2.644-14.29,8.482-31.741,8.482-31.742h0c46.216.051,92.432.103,138.648.154h0s1.974,4.457,2.089,4.718c7.883,17.89,7.555,34.006-6.93,47.45Z" fill="none" stroke="#000" stroke-miterlimit="10"/><path id="PALATAL_SURFACE" d="M5.926,217.061c.315.879.65,1.846,1.017,2.902.199.582.419,1.184.64,1.826.357,1.007.724,2.093,1.133,3.267.126.415.273.839.419,1.273.126.346.241.691.357,1.036.115.355.241.711.357,1.046.021.059.042.119.052.178.115.316.21.612.315.908,2.842,8.42,4.1,12.398,4.96,14.885.105.286.189.553.283.8.052.138.094.266.147.385.105.276.199.543.304.79.01.02.01.03.021.049.357.898.724,1.678,1.227,2.675,1.657,3.336,4.153,7.61,7.897,12.378.178.227.357.454.545.681.105.138.21.266.325.405.178.217.367.444.545.671,1.384,1.658,2.915,3.376,4.604,5.113.241.237.472.464.703.701.252.158.514.316.787.474,4.509,2.685,11.473,6.327,18.153,7.541,1.51.276,5.831.928,10.843,1.481.021.01.031.01.052,0,.378.049,2.727.296,4.866.474,1.143.099,2.307.168,3.461.227,5.306.257,10.571.128,13.769,0,1.258-.049,2.202-.099,2.695-.128,3.817-.207,7.204-.395,10.225-.563,10.508-.592,16.443-.957,19.747-1.342,3.555-.405,6.554-.809,9.124-1.254.524-.099,1.028-.188,1.51-.286,5.065-.967,8.306-2.112,10.906-3.731,5.558-3.455,9.774-8.706,9.774-8.706.189-.227.367-.454.535-.671,1.395-1.787,2.297-3.257,2.989-4.402.031-.059.073-.119.105-.178,1.405-2.31,3.775-6.386,5.495-11.855.073-.247.157-.494.22-.74.105-.326.199-.651.283-.987.755-2.774,1.321-5.883,1.489-9.249.042-.681.01-2.665-.126-6.544-.01-.336-.021-.681-.031-1.046,0-.059,0-.128-.01-.188-.052-1.668-.126-3.682-.241-5.883-.063-1.411-.136-2.892-.231-4.412H5.926Z" fill="none" stroke="#000" stroke-miterlimit="10"/><path id="FISSURE_SEALENT" d="M122.778,206.366c-3.466-5.659,1.077-8.951,7.327-11.748,2.061-.922,4.086-2.601,2.174-4.802-1.765-2.032-4.17-1.194-6.341-.208-.516.235-.99.539-1.518.752-4.015,1.615-7.162,5.877-11.932,4.768-7.726-1.797-15.584-3.915-21.43-9.012-2.565-2.236-3.45-5.089-3.633-8.108-.082-1.348-.007-2.704-.13-4.048-.134-1.465-.92-2.66-2.804-2.9-2.11-.269-3.331.816-3.938,2.333-1.105,2.762-.919,5.616-.118,8.367.874,2.998-.112,4.381-3.945,4.47-3.373.078-6.748.423-10.099.796-4.334.482-8.324-.467-11.737-2.457-5.524-3.221-11.081-6.471-15.535-10.792-1.634-1.585-3.32-3.696-6.139-1.911-2.887,1.828-1.234,4.016.331,5.838,4.02,4.682,10.066,7.494,15.235,11.103,2.263,1.58,3.607,2.638,1.262,4.945-1.565,1.54-2.565,3.594-.23,5.257,2.49,1.773,4.388.214,5.971-1.312,2.864-2.761,6.422-4.147,10.773-4.399,3.96-.229,7.894-.763,11.853-1.004,5.403-.329,10.425.407,15.07,3.128,5.092,2.984,11.48,3.741,16.935,6.197,5.214,2.347,6.642,5.158,4.102,9.63-3.868,6.809-5.313,14.306-8.94,21.172-.879,1.664-.603,3.212,1.523,4.065,2.078.834,3.736.05,4.943-1.39,1.45-1.732,2.142-3.753,2.938-5.735,2.195-5.462,3.679-11.134,6.974-16.274,1.148-1.791,1.106-3.792,1.058-6.721Z" fill="none" stroke="#000" stroke-miterlimit="10"/><ellipse id="RCTC" cx="81.527" cy="204.425" rx="13.445" ry="12.655" fill="none" stroke="#000" stroke-miterlimit="10"/><path id="BUILD_UP" d="M5.129,193.746c-1.531-.02-3.052-.039-4.572-.039.021.296.052.592.073.888v.039s28.619,0,28.619,0c1.468,0,1.888.395,1.888,1.481-.105,4.343-.105,8.686,0,13.029,0,1.086-.315,1.481-1.783,1.481H3.692c.094.286.199.582.294.888h1.248c1.363,0,1.783.296,1.783,1.382-.052,2.339-.084,4.708-.073,7.067.524,1.49,1.112,3.178,1.772,5.093.084-3.929.073-7.946-.021-11.865,0-1.086.419-1.481,1.888-1.481h39.955c1.363,0,1.888.296,1.888,1.382-.105,4.244-.105,8.587,0,12.832,0,1.283-.524,1.579-2.097,1.579-6.502-.099-13.109,0-19.61,0H10.687c-.503,0-.902-.039-1.196-.138.115.355.241.711.357,1.046.021.059.042.119.052.178h19.243c1.363,0,1.888.296,1.888,1.382-.105,4.343-.105,8.587,0,12.931,0,1.086-.419,1.481-1.888,1.481h-13.968c.105.286.189.553.283.8.052.138.094.266.147.385h39.546c1.468,0,1.888.395,1.888,1.481-.105,4.244-.105,8.587,0,12.832,0,1.283-.524,1.579-2.097,1.579h-29.887c.178.227.357.454.545.681.105.138.21.266.325.405h3.324c1.468,0,1.888.296,1.888,1.481-.031,1.441-.052,2.882-.063,4.304.241.237.472.464.703.701.252.158.514.316.787.474,0-1.816-.021-3.642-.063-5.478,0-1.086.419-1.481,1.888-1.481h42.262c1.468,0,1.888.395,1.888,1.481-.105,4.343-.105,8.686,0,13.029,0,1.086-.419,1.481-1.888,1.382-5.013.069-10.025.089-15.038.089.378.049,2.727.296,4.866.474,1.143.099,2.307.168,3.461.227h13.769c1.258-.049,2.202-.099,2.695-.128,3.817-.207,7.204-.395,10.225-.563h-14.944c-1.363,0-1.783-.395-1.783-1.382.105-4.343.105-8.686,0-12.931,0-1.283.419-1.678,2.097-1.678,6.921.099,13.843,0,20.764,0h20.869c1.468,0,1.888.395,1.888,1.481-.094,3.998-.105,7.926-.021,11.914.524-.099,1.028-.188,1.51-.286.084-3.929.073-7.788-.021-11.726,0-.987.419-1.382,1.783-1.382h19.453c1.395-1.787,2.297-3.257,2.989-4.402.031-.059.073-.119.105-.178v-10.818q0-1.777,2.202-1.777h3.513c.105-.326.199-.651.283-.987h-28.44c-1.363,0-1.888-.296-1.888-1.382.105-4.343.105-8.686,0-12.931,0-1.086.419-1.481,1.888-1.382,6.712-.099,13.528-.099,20.24-.099h9.564c-.01-.336-.021-.681-.031-1.046,0-.059,0-.128-.01-.188-2.622.02-5.243.049-7.844.049-1.573,0-2.202-.296-2.202-1.579.105-4.146.105-8.39,0-12.634,0-1.184.419-1.579,1.992-1.579,2.381.069,4.761.118,7.163.138,0-.04-.01-.079-.01-.119-.031-.365-.052-.73-.084-1.096-2.8-.01-5.621-.01-8.431-.01h-20.449c-1.258,0-1.783-.296-1.783-1.382.105-4.442.105-8.785,0-13.227,0-1.086.524-1.382,1.888-1.382h27.821c-.021-.247-.031-.484-.063-.859,0,0-.01-.079-.01-.227h-4.782c-3.775,0-3.356.395-3.356-2.665,0-3.85.105-7.699,0-11.549,0-1.283.524-1.678,2.202-1.579,1.279.02,2.559.04,3.838.049v-.03c-.094-.444-.189-.879-.273-1.303h-25.378c-1.363,0-1.993-.296-1.888-1.382.105-4.343.105-8.686,0-13.029,0-1.086.524-1.382,1.783-1.382h20.292c-.252-.424-.524-.839-.787-1.224-.21.03-.451.039-.734.039h-39.85c-1.468,0-1.993-.296-1.993-1.481.105-4.343.105-8.686,0-12.931,0-1.086.419-1.579,1.888-1.481,5.275.079,10.413.03,15.583.01-.933-.355-1.814-.681-2.643-.997-.178-.069-.357-.138-.535-.197h-38.308c-1.154,0-1.783-.197-1.783-1.283.052-2.27.084-4.58.094-6.89-.556-.118-1.101-.247-1.636-.365-.01,2.339.021,4.689.073,7.058,0,1.086-.419,1.481-1.888,1.481h-41.842c-1.363,0-2.097-.592-2.097-1.678v-10.127c-.535.158-1.08.326-1.625.503-.042,3.277-.031,6.544.052,9.821,0,1.184-.419,1.579-1.992,1.579-5.474-.079-11.106-.099-16.695-.099-.157.148-.304.306-.44.454-.325.345-.64.701-.944,1.056-.304.355-.587.701-.87,1.056-.231.286-.451.582-.671.879-.094,4.086-.084,8.173.01,12.348,0,1.086-.419,1.283-1.783,1.283H2.927c-.073.276-.147.543-.22.819-.021.089-.052.178-.073.267h26.406c1.678,0,1.992.494,1.992,1.579-.105,4.146-.105,8.39,0,12.536,0,1.283-.419,1.678-2.097,1.678-6.712.099-13.213.099-19.715.099H.567c-.021.355-.042.711-.052,1.066,1.5.01,3.01.02,4.509.02,1.468,0,1.993.296,1.993,1.481-.105,4.442-.105,8.884,0,13.325,0,1.086-.419,1.481-1.888,1.481ZM56.724,158.113c0,1.086-.524,1.283-1.678,1.283H13.099c-1.468,0-1.888-.296-1.888-1.481.105-4.343.105-8.686,0-13.029,0-1.086.419-1.481,1.888-1.481h41.947c1.258,0,1.678.197,1.678,1.283-.105,4.442-.105,8.982,0,13.424ZM32.5,162.16c0-1.283.524-1.579,2.097-1.579h42.052c1.363,0,1.783.296,1.783,1.382-.105,4.343-.105,8.686,0,13.128,0,1.086-.419,1.382-1.783,1.382h-42.262c-1.468,0-1.888-.395-1.888-1.481.105-4.244.105-8.587,0-12.832ZM54.102,179.138c0-1.184.524-1.481,1.993-1.481h41.738c1.468,0,1.993.395,1.993,1.579-.105,4.244-.105,8.587,0,12.832,0,1.184-.524,1.481-1.993,1.481-6.921-.099-13.843-.099-20.764-.099h-21.183c-1.363,0-1.783-.296-1.783-1.382,0-4.343.105-8.686,0-12.931ZM53.998,213.29c0-1.283.524-1.579,2.202-1.579h41.633c1.573,0,1.993.395,1.888,1.481-.105,4.244-.105,8.587,0,12.832,0,1.086-.524,1.481-1.888,1.481h-41.947c-1.468,0-1.888-.395-1.888-1.481.105-4.244.105-8.489,0-12.733ZM80.005,230.07c0-1.184.419-1.481,1.888-1.481h41.528c1.573,0,1.992.395,1.992,1.579-.105,4.343-.105,8.587,0,12.931,0,.987-.419,1.283-1.678,1.283h-41.738c-1.468,0-1.993-.296-1.993-1.481.105-4.244.105-8.587,0-12.832ZM80.005,195.72c0-.79.315-1.086,1.363-1.086h42.786c.839,0,1.258.099,1.258.888-.105,4.442-.105,8.982,0,13.424,0,1.184-.419,1.579-1.992,1.579h-41.633c-1.049,0-1.783-.099-1.783-1.086v-13.72ZM103.81,158.212c0,.987-.419,1.184-1.573,1.184h-41.842c-1.363,0-1.783-.395-1.783-1.382v-12.832q0-1.678,2.097-1.678h41.423c1.258,0,1.678.197,1.678,1.283-.105,4.442-.105,8.982,0,13.424ZM125.518,174.893c0,1.283-.524,1.579-2.097,1.579h-41.528c-1.468,0-1.992-.296-1.992-1.481.105-4.244.105-8.587,0-12.832,0-1.283.524-1.579,2.097-1.579h41.318c1.573,0,2.202.296,2.202,1.579-.105,4.244-.105,8.489,0,12.733ZM103.391,193.45c-1.468,0-1.992-.296-1.992-1.481.105-4.244.105-8.587,0-12.832,0-1.184.524-1.481,1.992-1.481h41.423c1.468,0,1.993.296,1.993,1.481-.105,4.244-.105,8.587,0,12.832,0,1.184-.524,1.481-1.993,1.481h-41.423ZM103.495,227.504c-1.468,0-1.993-.395-1.993-1.481.105-4.244.105-8.489,0-12.733,0-1.184.419-1.579,1.993-1.579h41.423c1.468,0,1.992.296,1.992,1.481-.105,4.244-.105,8.489,0,12.733,0,1.184-.419,1.579-1.992,1.579h-41.423ZM105.698,247.147c0-1.184.524-1.481,1.993-1.481h39.85c1.468,0,1.992.296,1.992,1.481-.105,4.244-.105,8.587,0,12.832,0,1.184-.524,1.481-1.992,1.481h-39.85c-1.468,0-1.993-.395-1.993-1.481.105-4.244.105-8.587,0-12.832ZM58.612,247.245c0-1.283.629-1.678,2.202-1.579h41.423c1.363,0,1.783.296,1.783,1.382,0,4.343-.105,8.686,0,12.931,0,1.184-.524,1.481-1.993,1.481h-41.423c-1.468,0-1.992-.395-1.992-1.481.105-4.244.105-8.489,0-12.733ZM76.649,228.59c1.363,0,1.888.296,1.888,1.382-.105,4.343-.105,8.587,0,12.931,0,1.184-.629,1.481-1.993,1.481h-41.947c-1.468,0-1.993-.296-1.993-1.481.105-4.244.105-8.587,0-12.832,0-1.184.419-1.481,1.888-1.481h42.157ZM32.605,196.115c0-1.184.524-1.382,1.888-1.382,6.921-.099,13.947-.099,20.869-.099h21.183c1.363,0,1.888.296,1.888,1.481-.105,4.343-.105,8.686,0,13.128,0,1.086-.419,1.481-1.783,1.481h-42.262c-1.363,0-1.783-.296-1.783-1.382.105-4.442.105-8.785,0-13.227ZM8.695,179.138c0-1.184.419-1.579,2.097-1.579h39.64c1.468,0,1.993.296,1.993,1.481-.105,4.244-.105,8.587,0,12.832,0,1.184-.419,1.579-1.993,1.481-6.607.099-13.213.099-19.925.099H10.792c-1.468,0-2.097-.296-2.097-1.579.105-4.244.105-8.489,0-12.733Z" fill="none" stroke="#000" stroke-miterlimit="10"/><g id="DIRECT_PULP_CAPPING"><line id="DIRECTCAPPING" x1="28.13" y1="117.222" x2="8.68" y2="117.222" fill="none" stroke="#000" stroke-miterlimit="10"/><path id="INDIRECT_PULP_CAPPING-2" d="M7.262,93.589c.043,9.255,5.301,19.958,10.366,19.967,5.057.009,10.525-10.639,10.366-19.967-.092-5.369-1.978-6.251-5.889-18.508-3.616-11.332-4.046-16.98-5.497-16.939-1.48.042-1.537,5.931-4.651,17.765-3.061,11.632-4.719,12.454-4.694,17.682Z" fill="none" stroke="#000" stroke-miterlimit="10"/></g></svg>