<?xml version="1.0" encoding="UTF-8"?>
<svg id="Layer_1" data-name="Layer 1" xmlns="http://www.w3.org/2000/svg" xmlns:xlink="http://www.w3.org/1999/xlink" viewBox="0 0 2962.2626 1519.10905">
  <defs>
    <clipPath id="clippath">
      <rect x="199.38309" y="237.3608" width="2563.49651" height="1044.38751" fill="#fff" stroke-width="0"/>
    </clipPath>
  </defs>
  <rect width="2962.2626" height="1519.10905" fill="#ffd0af" stroke-width="0"/>
  <g>
    <rect x="199.38309" y="237.3608" width="2563.49651" height="1044.38751" fill="#fff"/>
    <g clip-path="url(#clippath)">
      <rect x="152.2037" y="451.6691" width="2685.0094" height="706.41681" fill="#ffebcf" stroke-width="0"/>
    </g>
  </g>
  <g>
    <g>
      <g>
        <path d="M371.21539,541.008v-26.2162h11.0025c1.182,0,2.2702.2474,3.26711.7395.998.4916,1.853,1.1383,2.56609,1.939.7137.7985,1.27391,1.71,1.6805,2.73283.4062,1.0201.6093,2.0603.6093,3.11887,0,1.10773-.1904,2.17373-.57289,3.19383-.38131,1.02217-.91671,1.93417-1.60611,2.7323-.68889.8012-1.5191,1.44-2.4918,1.91887-.97209.48162-2.0486.72112-3.2307.72112h-7.0892v9.11988h-4.1348ZM375.35019,528.23383h6.8302c.5913,0,1.1267-.124,1.6072-.3714.4789-.2442.8909-.5897,1.23641-1.0327.345-.4426.61549-.9606.81229-1.5503.1973-.5923.2948-1.2437.2948-1.95743,0-.739-.1107-1.40357-.3323-1.99327-.221-.58973-.529-1.1024-.923-1.53283-.394-.4299-.8434-.7622-1.3472-.9964-.5048-.2347-1.0275-.3503-1.5697-.3503h-6.6087v9.78463Z" fill="#640" stroke-width="0"/>
        <path d="M403.04069,514.7918h3.619l10.3378,26.2162h-4.3563l-2.7687-7.12608h-10.1179l-2.7312,7.12608h-4.3938l10.4111-26.2162ZM409.06019,530.81682l-4.2097-11.26042-4.3569,11.26042h8.5666Z" fill="#640" stroke-width="0"/>
        <path d="M421.87349,514.7918l7.2358,13.14553,7.31071-13.14553h4.542l-9.78451,16.83892v9.37728h-4.1354v-9.45218l-9.7107-16.76402h4.5421Z" fill="#640" stroke-width="0"/>
      </g>
      <g>
        <path d="M2380.6791,541.19372c-1.8709,0-3.5762-.3761-5.1138-1.1283-1.5386-.7495-2.861-1.7459-3.9686-2.9902-1.1077-1.2411-1.9638-2.66322-2.5667-4.2651-.604-1.5993-.9041-3.235-.9041-4.9086,0-1.7491.3197-3.4233.9595-5.0226.6403-1.5993,1.5196-3.01603,2.64-4.24723,1.1203-1.2284,2.4495-2.2069,3.9881-2.9332,1.5376-.7263,3.2181-1.0898,5.039-1.0898,1.8714,0,3.5762.3867,5.1138,1.1621,1.5391.7748,2.8562,1.7923,3.9507,3.0466,1.0961,1.25433,1.9448,2.67593,2.5487,4.26513.6029,1.5866.9041,3.20647.9041,4.8548,0,1.7486-.3144,3.4228-.9415,5.0226-.6272,1.5993-1.5081,3.00808-2.64,4.22608-1.132,1.21842-2.4686,2.19162-4.0061,2.91792-1.5387.7264-3.2065,1.0898-5.0031,1.0898ZM2372.3346,527.90153c0,1.2311.1967,2.4232.5907,3.5799.393,1.1588.9532,2.179,1.6795,3.06458.7263.88612,1.6072,1.59452,2.641,2.12522,1.0328.528,2.1906.7933,3.4708.7933,1.3292,0,2.5033-.27852,3.5261-.8324,1.0212-.5533,1.8889-1.2849,2.6025-2.1969.7132-.9088,1.2554-1.9316,1.6252-3.0646.3692-1.1309.5533-2.2897.5533-3.4691,0-1.257-.1968-2.45753-.5908-3.6011-.394-1.143-.9542-2.1531-1.6794-3.0287-.7264-.8729-1.6004-1.57343-2.6216-2.10413-1.0227-.5279-2.1599-.7933-3.4153-.7933-1.3303,0-2.5113.278-3.5451.8319-1.0344.5538-1.9074,1.27223-2.6221,2.15843-.7131.8861-1.2606,1.9031-1.642,3.0466-.3824,1.1436-.5728,2.3077-.5728,3.4903Z" fill="#640" stroke-width="0"/>
        <path d="M2400.3226,541.008v-26.2162h11.4086c1.1821,0,2.2713.2474,3.2682.7395.9969.4916,1.8519,1.1383,2.5667,1.939.7131.7985,1.2733,1.71,1.6789,2.73283.4072,1.0201.6092,2.0603.6092,3.11887,0,.88613-.1234,1.73593-.3682,2.54713-.2473.81387-.5913,1.5635-1.0338,2.25387-.4431.68733-.9853,1.28493-1.6257,1.78973-.6398.5048-1.3413.8809-2.104,1.1256l6.1661,9.96968h-4.6892l-5.6867-9.11988h-6.0548v9.11988h-4.1353ZM2404.4579,528.23383h7.2369c.5902,0,1.1256-.1293,1.6061-.3893.4806-.2574.8925-.6156,1.2364-1.0713.345-.4531.6156-.9763.8123-1.5687.1973-.5897.2965-1.2179.2965-1.88253,0-.66457-.1171-1.29277-.3519-1.88247-.2341-.5898-.5406-1.1077-.923-1.55083-.3814-.4431-.8245-.7933-1.3292-1.0534-.5048-.2574-1.0276-.3861-1.5682-.3861h-7.0159v9.78463Z" fill="#640" stroke-width="0"/>
        <path d="M2459.9888,534.25272c0,1.0586-.2163,2.006-.6467,2.8404-.431.8371-1.0096,1.5455-1.7359,2.1252-.7258.5765-1.5814,1.0196-2.5651,1.32868-.9848.30652-2.0307.461-3.1384.461h-12.5169v-26.2162h13.5138c.9104,0,1.7348.1983,2.4738.5923.7379.394,1.3662.9041,1.8825,1.5323.5164.6261.9173,1.3419,1.2006,2.1405.2816.8012.4246,1.60723.4246,2.41843,0,1.2802-.3271,2.4802-.9785,3.6005-.653,1.1204-1.5824,1.95217-2.7882,2.4934,1.5017.443,2.6891,1.249,3.5636,2.4184.873,1.16937,1.3108,2.5909,1.3108,4.2651ZM2443.5207,518.3743v7.71643h7.6055c.518,0,.9917-.0976,1.4221-.2938.4309-.1984.8123-.4631,1.1446-.7954.3323-.3324.5913-.7316.7754-1.2006.1851-.4662.2769-.9837.2769-1.5502,0-1.1309-.3197-2.0603-.9595-2.78663-.6403-.7263-1.4526-1.0898-2.4379-1.0898h-7.8271ZM2455.7416,533.47472c0-.54072-.0913-1.056-.2769-1.5502-.1841-.4922-.4299-.922-.738-1.2907-.3075-.3709-.682-.6641-1.1266-.8857-.4431-.2215-.9221-.3349-1.4395-.3349h-8.6399v8.0122h8.382c.5411,0,1.0459-.1028,1.5133-.3117.4673-.211.8729-.4942,1.2184-.84972.345-.35818.6156-.77538.8123-1.257.1973-.47888.2949-.989.2949-1.53228Z" fill="#640" stroke-width="0"/>
        <path d="M2485.0588,537.35372v3.65428h-17.9809v-26.2162h17.6486v3.6574h-13.5137v7.45843h11.7045v3.4333h-11.7045v8.0128h13.846Z" fill="#640" stroke-width="0"/>
        <path d="M2499.8284,514.7918h3.6185l10.3384,26.2162h-4.3564l-2.7687-7.12608h-10.1184l-2.7312,7.12608h-4.3939l10.4117-26.2162ZM2505.8474,530.81682l-4.2097-11.26042-4.3564,11.26042h8.5661Z" fill="#640" stroke-width="0"/>
        <path d="M2519.8031,541.008v-26.2162h11.4081c1.1821,0,2.2718.2474,3.2682.7395.9969.4916,1.852,1.1383,2.5667,1.939.7131.7985,1.2733,1.71,1.6795,2.73283.4066,1.0201.6086,2.0603.6086,3.11887,0,.88613-.1234,1.73593-.3681,2.54713-.2474.81387-.5913,1.5635-1.0339,2.25387-.443.68733-.9853,1.28493-1.6251,1.78973-.6403.5048-1.3419.8809-2.1046,1.1256l6.1661,9.96968h-4.6887l-5.6871-9.11988h-6.0548v9.11988h-4.1349ZM2523.938,528.23383h7.2374c.5897,0,1.1251-.1293,1.6056-.3893.4805-.2574.8925-.6156,1.2364-1.0713.3449-.4531.6155-.9763.8123-1.5687.1972-.5897.2964-1.2179.2964-1.88253,0-.66457-.1171-1.29277-.3518-1.88247-.2342-.5898-.5407-1.1077-.9231-1.55083-.3813-.4431-.8244-.7933-1.3292-1.0534-.5048-.2574-1.0275-.3861-1.5682-.3861h-7.0158v9.78463Z" fill="#640" stroke-width="0"/>
        <path d="M2564.9597,537.35372v3.65428h-17.9809v-26.2162h17.6486v3.6574h-13.5137v7.45843h11.7045v3.4333h-11.7045v8.0128h13.846Z" fill="#640" stroke-width="0"/>
        <path d="M2572.0114,541.008v-26.2162h11.4081c1.1826,0,2.2718.2474,3.2688.7395.9963.4916,1.8514,1.1383,2.5661,1.939.7137.7985,1.2738,1.71,1.6794,2.73283.4073,1.0201.6093,2.0603.6093,3.11887,0,.88613-.124,1.73593-.3682,2.54713-.2474.81387-.5913,1.5635-1.0344,2.25387-.443.68733-.9853,1.28493-1.6251,1.78973s-1.3419.8809-2.1041,1.1256l6.1656,9.96968h-4.6887l-5.6866-9.11988h-6.0553v9.11988h-4.1349ZM2576.1463,528.23383h7.2374c.5897,0,1.1256-.1293,1.6056-.3893.4805-.2574.8925-.6156,1.2364-1.0713.3455-.4531.6155-.9763.8128-1.5687.1967-.5897.2959-1.2179.2959-1.88253,0-.66457-.1171-1.29277-.3513-1.88247-.2347-.5898-.5412-1.1077-.9236-1.55083-.3808-.4431-.8239-.7933-1.3287-1.0534-.5048-.2574-1.0275-.3861-1.5687-.3861h-7.0158v9.78463Z" fill="#640" stroke-width="0"/>
      </g>
      <g>
        <path d="M386.72239,639.03912c-.2458-.2727-.6039-.5613-1.0702-.8677-.4689-.3091-1.0159-.5976-1.6431-.8682-.6287-.2701-1.3176-.4916-2.0682-.6641-.7505-.173-1.5207-.2606-2.3076-.2606-1.7475,0-3.034.3223-3.8579.9611-.8255.64138-1.238,1.527-1.238,2.6579,0,.6414.1303,1.1641.3877,1.5708.259.4045.6583.76268,1.2005,1.0692.5407.3091,1.2179.5791,2.0308.8138.8123.2342,1.7591.4864,2.843.757,1.3292.3196,2.5292.6772,3.5995,1.0691,1.0712.3941,1.9753.87558,2.7148,1.4395.7374.5665,1.3108,1.2622,1.7164,2.08608.4056.82662.6092,1.82882.6092,3.01082,0,1.32918-.2526,2.4728-.7574,3.4333s-1.1937,1.7412-2.0666,2.3436c-.8746.6055-1.8905,1.0486-3.0472,1.3292-1.1562.2832-2.3989.4246-3.7292.4246-1.9933,0-3.9202-.3012-5.7784-.9036-1.8583-.60292-3.5388-1.4837-5.04-2.63992l1.8841-3.54408c.3191.31908.7802.6773,1.3841,1.0713.6029.394,1.3044.75478,2.1041,1.0871.7996.3349,1.6678.6182,2.6041.8498.9347.2341,1.9073.3502,2.9169.3502,1.6235,0,2.8794-.2806,3.7651-.8471.88611-.5671,1.3292-1.4036,1.3292-2.5113,0-.6646-.1662-1.2185-.4985-1.661-.3323-.4431-.806-.8323-1.4205-1.1641-.6166-.3323-1.36609-.634-2.2522-.9041-.8872-.2706-1.8968-.5538-3.0288-.8503-1.3044-.3449-2.4427-.7057-3.4153-1.0892-.9721-.3814-1.7781-.8424-2.4185-1.383-.6398-.54122-1.1251-1.1773-1.4574-1.9037-.3323-.7236-.4984-1.60452-.4984-2.6394,0-1.2775.2447-2.4185.7379-3.4154.49161-.9969,1.1625-1.834,2.0128-2.5112.8487-.6747,1.8514-1.1874,3.0082-1.5323,1.1578-.3429,2.4131-.5154,3.76661-.5154,1.77179,0,3.40849.2833,4.91019.8477,1.5017.56648,2.81881,1.2696,3.95081,2.1067l-1.88261,3.3969Z" fill="#640" stroke-width="0"/>
        <path d="M407.47359,655.543c1.3777,0,2.5223-.27,3.4333-.81388.9104-.5406,1.643-1.249,2.1969-2.122.5533-.8729.9473-1.8698,1.182-2.9902.23321-1.1203.3503-2.2718.3503-3.4538v-13.2922h4.1722v13.2922c0,1.7976-.2099,3.4897-.6271,5.079-.4199,1.5866-1.0845,2.9775-1.9949,4.1722-.9104,1.1926-2.0861,2.1352-3.5256,2.823-1.44.69-3.1696,1.0355-5.1871,1.0355-2.093,0-3.8595-.3635-5.2995-1.08982-1.4395-.72628-2.6025-1.69948-3.48809-2.91788-.88621-1.218-1.52761-2.6142-1.92061-4.1903-.394-1.5739-.5907-3.2117-.5907-4.9117v-13.2922h4.1348v13.2922c0,1.20788.1171,2.3693.3518,3.4897.2332,1.1203.6272,2.11718,1.1805,2.99018.5538.87612,1.2933,1.57662,2.2164,2.10722.922.5275,2.0603.79278,3.4154.79278Z" fill="#640" stroke-width="0"/>
        <path d="M449.12089,659.08712v-18.86812l-7.7907,14.28912h-2.2898l-7.8271-14.28912v18.86812h-4.1348v-26.2162h4.4297l8.6769,16.025,8.6773-16.025h4.4308v26.2162h-4.1723Z" fill="#640" stroke-width="0"/>
        <path d="M484.75239,659.27282c-1.87139,0-3.5762-.3761-5.1138-1.1283-1.5391-.74952-2.8615-1.7459-3.9692-2.9902-1.1071-1.2411-1.9637-2.6632-2.5661-4.2651-.6039-1.5993-.9041-3.235-.9041-4.9086,0-1.7491.3191-3.4233.9595-5.02262.6398-1.59928,1.5191-3.01608,2.6394-4.24718,1.1204-1.2285,2.4496-2.2069,3.9882-2.9332,1.5381-.7264,3.2186-1.0898,5.0395-1.0898,1.8709,0,3.5757.3867,5.1138,1.1615,1.5386.7754,2.8562,1.7929,3.9507,3.0472,1.0956,1.2543,1.9443,2.6758,2.5482,4.2651.6029,1.5866.9041,3.2065.9041,4.8548,0,1.74858-.3144,3.4228-.9415,5.022-.6267,1.5999-1.5075,3.0087-2.6395,4.2267-1.1319,1.2184-2.4691,2.1916-4.00659,2.91788-1.53871.72632-3.20651,1.08982-5.00261,1.08982ZM476.40739,645.98062c0,1.2311.1972,2.4231.5913,3.5799.3924,1.1588.9526,2.179,1.6789,3.0646.7263.8861,1.6072,1.5945,2.6416,2.1251,1.0327.5275,2.1905.79278,3.4702.79278,1.3292,0,2.5033-.27788,3.5261-.83178,1.0212-.5538,1.8889-1.2849,2.60251-2.1969.71369-.9088,1.25539-1.9316,1.62519-3.0646.3697-1.1309.55381-2.28972.55381-3.4691,0-1.257-.19731-2.4575-.59131-3.6011-.394-1.14352-.9542-2.1531-1.6789-3.0287-.7264-.873-1.6009-1.5734-2.6221-2.1041-1.02269-.528-2.1594-.7933-3.4153-.7933-1.3303,0-2.5108.278-3.5451.8318-1.0339.5539-1.9074,1.2723-2.6221,2.1584-.7131.8862-1.2606,1.9031-1.6415,3.0467-.3824,1.1435-.5733,2.30768-.5733,3.4903Z" fill="#640" stroke-width="0"/>
        <path d="M504.39429,659.08712v-26.2162h17.465v3.6574h-13.3296v7.8266h11.1506v3.4333h-11.1506v11.2989h-4.1354Z" fill="#640" stroke-width="0"/>
      </g>
      <rect x="369.15459" y="686.91212" width="1565.99521" height="2.6373" fill="#640" stroke-width="0"/>
      <rect x="369.15459" y="808.81532" width="1565.99521" height="2.6374" fill="#640" stroke-width="0"/>
      <rect x="369.15459" y="565.00832" width="2223.96351" height="2.6374" fill="#640" stroke-width="0"/>
    </g>
    <g>
      <path d="M2591.311,385.7851h-493.3787v-88.5957h493.3787v88.5957ZM2100.5697,383.1478h488.1039v-83.321h-488.1039v83.321Z" fill="#640" stroke-width="0"/>
      <rect x="2527.3312" y="298.5081" width="2.6373" height="85.9584" fill="#640" stroke-width="0"/>
      <rect x="2465.9887" y="298.5081" width="2.6374" height="85.9584" fill="#640" stroke-width="0"/>
      <rect x="2404.6457" y="298.5081" width="2.6374" height="85.9584" fill="#640" stroke-width="0"/>
      <rect x="2343.3032" y="298.5081" width="2.6374" height="85.9584" fill="#640" stroke-width="0"/>
      <rect x="2281.9603" y="298.5081" width="2.6373" height="85.9584" fill="#640" stroke-width="0"/>
      <rect x="2220.6178" y="298.5081" width="2.6373" height="85.9584" fill="#640" stroke-width="0"/>
      <rect x="2159.2753" y="298.5081" width="2.6374" height="85.9584" fill="#640" stroke-width="0"/>
    </g>
    <g>
      <path d="M2120.1013,422.7913v-22.4686h8.1647c1.8361,0,3.4443.2933,4.8263.8856,1.382.5897,2.5371,1.3909,3.4655,2.4032.9283,1.0148,1.6251,2.1995,2.0888,3.5619.4636,1.3599.6967,2.8125.6967,4.3501,0,1.71-.2589,3.2555-.7753,4.6385-.518,1.3804-1.2607,2.5625-2.2318,3.5441-.971.9811-2.1362,1.7406-3.4976,2.2792-1.3598.538-2.8847.806-4.5726.806h-8.1647ZM2134.9443,411.5235c0-1.0739-.1483-2.0656-.4431-2.9749-.2965-.9062-.729-1.6869-1.2981-2.3409-.5692-.6541-1.2712-1.1589-2.1041-1.5197-.8344-.3581-1.7786-.5385-2.833-.5385h-3.7978v14.8118h3.7978c1.0765,0,2.0307-.1904,2.8636-.5691.8334-.3782,1.5302-.9015,2.0888-1.5656.5591-.6646.9863-1.45,1.2828-2.3593.2948-.9067.4431-1.8878.4431-2.9438Z" fill="#640" stroke-width="0"/>
      <path d="M2181.2059,422.7913v-22.4686h8.1641c1.8367,0,3.4449.2933,4.8269.8856,1.3814.5897,2.5366,1.3909,3.4655,2.4032.9283,1.0148,1.6251,2.1995,2.0882,3.5619.4637,1.3599.6968,2.8125.6968,4.3501,0,1.71-.2585,3.2555-.7749,4.6385-.5179,1.3804-1.2611,2.5625-2.2317,3.5441-.971.9811-2.1368,1.7406-3.4976,2.2792-1.3598.538-2.8847.806-4.5732.806h-8.1641ZM2196.0483,411.5235c0-1.0739-.1477-2.0656-.4425-2.9749-.2965-.9062-.729-1.6869-1.2981-2.3409-.5692-.6541-1.2712-1.1589-2.1046-1.5197-.8345-.3581-1.7781-.5385-2.8331-.5385h-3.7972v14.8118h3.7972c1.0766,0,2.0308-.1904,2.8642-.5691.8334-.3782,1.5296-.9015,2.0888-1.5656.5591-.6646.9863-1.45,1.2828-2.3593.2948-.9067.4425-1.8878.4425-2.9438Z" fill="#640" stroke-width="0"/>
      <path d="M2257.9114,422.7913v-14.8736l-5.7911,11.0747h-2.3731l-5.7926-11.0747v14.8736h-4.3669v-22.4686h4.6839l6.6461,12.7848,6.7094-12.7848h4.6523v22.4686h-4.368Z" fill="#640" stroke-width="0"/>
      <path d="M2319.016,422.7913v-14.8736l-5.7911,11.0747h-2.3736l-5.7921-11.0747v14.8736h-4.367v-22.4686h4.684l6.6461,12.7848,6.7088-12.7848h4.6528v22.4686h-4.3679Z" fill="#640" stroke-width="0"/>
      <path d="M2370.5254,400.3227l5.5384,10.8221,5.6328-10.8221h4.7156l-8.1658,14.6209v7.8477h-4.3357v-7.9121l-8.1336-14.5565h4.7483Z" fill="#640" stroke-width="0"/>
      <path d="M2431.6273,400.3227l5.5384,10.8221,5.6329-10.8221h4.7155l-8.1657,14.6209v7.8477h-4.3358v-7.9121l-8.1336-14.5565h4.7483Z" fill="#640" stroke-width="0"/>
      <path d="M2492.7287,400.3227l5.539,10.8221,5.6328-10.8221h4.7156l-8.1658,14.6209v7.8477h-4.3358v-7.9121l-8.1335-14.5565h4.7477Z" fill="#640" stroke-width="0"/>
      <path d="M2553.8333,400.3227l5.5389,10.8221,5.6324-10.8221h4.7161l-8.1658,14.6209v7.8477h-4.3358v-7.9121l-8.1335-14.5565h4.7477Z" fill="#640" stroke-width="0"/>
    </g>
    <g>
      <path d="M2594.9247,813.22872h-618.8961v-128.4481h618.8961v128.4481ZM1978.6659,810.59132h613.6214v-123.1734h-613.6214v123.1734Z" fill="#640" stroke-width="0"/>
      <rect x="2097.9323" y="686.09932" width="2.6374" height="125.81068" fill="#640" stroke-width="0"/>
    </g>
    <g>
      <path d="M1516.0571,988.01591H364.71069v-107.8763h1151.34641v107.8763ZM367.348,985.37851h1146.0718v-102.60151H367.348v102.60151Z" fill="#640" stroke-width="0"/>
      <rect x="553.64879" y="881.45832" width="2.6373" height="105.2389" fill="#640" stroke-width="0"/>
      <g>
        <path d="M398.46549,919.74772h4.65651l10.30459,27.09928h-5.4187l-2.5202-6.75529h-9.4649l-2.48179,6.75529h-5.42021l10.3447-27.09928ZM404.53349,936.38781l-3.7398-10.647-3.8943,10.647h7.6341Z" fill="#640" stroke-width="0"/>
        <path d="M414.11439,936.84671c0-1.3989.2411-2.7228.7253-3.9692.4826-1.2464,1.1831-2.3409,2.0988-3.28351.9167-.94049,2.0233-1.69209,3.3209-2.25119,1.2981-.5592,2.7613-.83981,4.3901-.83981,2.188,0,4.05151.47161,5.5917,1.41151,1.5386.9426,2.6901,2.1764,3.4539,3.7034l-5.0004,1.5275c-.4331-.7389-1.0048-1.306-1.7169-1.7-.7132-.394-1.50279-.5923-2.36679-.5923-.73791,0-1.42571.1471-2.06191.4404-.63609.2938-1.1899.70049-1.6599,1.2211-.471.5227-.83919,1.1509-1.1071,1.89039-.2669.73641-.4009,1.55031-.4009,2.44171,0,.8909.14081,1.7048.41981,2.4437.27959.7369.65569,1.373,1.12719,1.9084.47.5333,1.0233.9479,1.66,1.239.6361.2938,1.3092.4405,2.02281.4405.91569,0,1.76179-.2295,2.53819-.6878.7754-.4584,1.3176-1.017,1.6225-1.679l4.99931,1.5271c-.68671,1.5249-1.81971,2.7739-3.39581,3.7397-1.5787.9684-3.4744,1.45-5.68819,1.45-1.62881,0-3.092-.2806-4.38861-.8397-1.2981-.55861-2.4057-1.316-3.32139-2.2713-.91571-.9531-1.62251-2.0608-2.11831-3.3199-.4959-1.2596-.7443-2.5756-.7443-3.9507Z" fill="#640" stroke-width="0"/>
        <path d="M435.45159,936.84671c0-1.3989.2405-2.7228.7247-3.9692.4832-1.2464,1.1836-2.3409,2.0993-3.28351.9168-.94049,2.0229-1.69209,3.321-2.25119,1.2981-.5592,2.7613-.83981,4.3901-.83981,2.1879,0,4.0515.47161,5.5911,1.41151,1.53921.9426,2.6907,2.1764,3.4539,3.7034l-5.0004,1.5275c-.4325-.7389-1.00429-1.306-1.7164-1.7-.7136-.394-1.5027-.5923-2.3667-.5923-.738,0-1.4258.1471-2.0619.4404-.6361.2938-1.19.70049-1.6599,1.2211-.4716.5227-.8398,1.1509-1.1077,1.89039-.2664.73641-.4004,1.55031-.4004,2.44171,0,.8909.1403,1.7048.4199,2.4437.2795.7369.6556,1.373,1.1267,1.9084.4699.5333,1.0238.9479,1.6599,1.239.6361.2938,1.3097.4405,2.0234.4405.9151,0,1.7612-.2295,2.5382-.6878.7748-.4584,1.317-1.017,1.6224-1.679l4.9989,1.5271c-.6863,1.5249-1.8193,2.7739-3.3959,3.7397-1.5787.9684-3.4744,1.45-5.6877,1.45-1.6293,0-3.092-.2806-4.389-.8397-1.29809-.55861-2.4053-1.316-3.321-2.2713-.9157-.9531-1.6225-2.0608-2.1183-3.3199-.49579-1.2596-.7442-2.5756-.7442-3.9507Z" fill="#640" stroke-width="0"/>
        <path d="M458.12369,946.847v-5.49569h4.1997v5.49569h-4.1997Z" fill="#640" stroke-width="0"/>
        <path d="M481.75059,929.48061v17.36639h-5.2683v-27.09928h4.08471l14.123,17.78628v-17.74778h5.26669v27.06078h-4.2751l-13.931-17.36639Z" fill="#640" stroke-width="0"/>
        <path d="M514.07859,947.22831c-1.6293,0-3.092-.2806-4.3901-.8397-1.297-.55861-2.3979-1.316-3.3019-2.2713-.9025-.9531-1.5967-2.0529-2.0798-3.3019-.4843-1.2465-.72479-2.5551-.72479-3.9302,0-1.3989.24049-2.7223.72479-3.96921.4831-1.24639,1.1773-2.34879,2.0798-3.30139.904-.9558,2.0049-1.7127,3.3019-2.2718,1.2981-.5592,2.7608-.83981,4.3901-.83981,1.6278,0,3.0852.28061,4.3706.83981,1.2839.5591,2.3784,1.316,3.2825,2.2718.9025.9526,1.5956,2.055,2.0798,3.30139.4826,1.24691.7247,2.57031.7247,3.96921,0,1.3751-.2421,2.6837-.7247,3.9302-.4842,1.249-1.17049,2.3488-2.0603,3.3019-.8914.9553-1.9859,1.71269-3.284,2.2713-1.2971.5591-2.7608.8397-4.3886.8397ZM508.84879,936.88521c0,.8909.134,1.6974.4003,2.4232.268.7263.6362,1.355,1.1077,1.8904.47.5333,1.0238.9479,1.66,1.239.6361.2938,1.3239.4405,2.0618.4405.738,0,1.4242-.1467,2.0603-.4405.6362-.2911,1.19-.7057,1.661-1.239.47-.5354.8398-1.1715,1.1067-1.9084.26741-.7389.40141-1.5528.40141-2.4437,0-.8656-.134-1.6668-.40141-2.4032-.2669-.73951-.6367-1.3756-1.1067-1.9083-.471-.536-1.0248-.9479-1.661-1.2417-.6361-.2933-1.3223-.4404-2.0603-.4404-.7379,0-1.4257.1545-2.0618.4583-.6362.3065-1.19.7264-1.66,1.25959-.4715.53591-.8397,1.17211-1.1077,1.90841-.2663.7395-.4003,1.5402-.4003,2.4058Z" fill="#640" stroke-width="0"/>
        <path d="M527.85769,946.847v-5.49569h4.1992v5.49569h-4.1992Z" fill="#640" stroke-width="0"/>
      </g>
    </g>
    <g>
      <g>
        <path d="M1943.6272,1203.31951v15.9274c0,.1467.0196.296.0554.4505.0375.15459.0929.3038.1662.451.0606.1361.1376.2701.2305.404.0912.13659.1867.2527.2848.3503.0976.0981.2147.1909.3503.2758.135.0876.269.1599.404.2216.1356.049.2706.0928.4056.1287.1356.0385.2579.0564.3687.0564h4.1607c.1108,0,.2152.0027.3128.0079.0991.00789.1972.0285.2948.0644.1973.08749.3993.2706.6082.5538.0485.06169.0949.1208.1377.183.0438.0618.077.1235.1018.1852.0485.134.0733.2806.0733.4404v12.0073c0,.0849-.009.1725-.0274.2653-.019.0923-.0528.1752-.1013.24949-.0739.15991-.173.30171-.2949.42251-.1471.1467-.307.2653-.4794.3503-.1825.0849-.3487.1287-.4969.1287h-12.0959c-.0501,0-.1108-.0101-.1841-.028-.0749-.0184-.1482-.0464-.2215-.0828-.0618-.0359-.1356-.0796-.2216-.12871-.0849-.04909-.1598-.11079-.2205-.183-.0617-.04859-.1171-.11819-.1661-.20309-.0485-.08491-.0976-.1725-.1466-.25791-.0375-.07439-.0681-.15459-.0929-.23949-.0242-.0849-.0358-.1593-.0358-.22151v-12.11489c0-.0749.0116-.1572.0358-.2474.0248-.0929.0554-.1751.0929-.25.0358-.085.0822-.1673.1376-.2495.0554-.0776.1071-.1419.1572-.1936.0491-.0591.1161-.1208.2026-.1825.0849-.0617.1709-.1108.2574-.1472.184-.0875.3502-.1287.4968-.1287h.6631c.0364,0,.0954-.0153.1756-.0464.0781-.0306.1619-.0644.2484-.1029.0734-.0358.1557-.08491.2485-.1466.0912-.0596.1688-.12131.2289-.183.0491-.0617.1044-.1287.1662-.2036.0622-.0718.1107-.14671.1471-.2216.0744-.1466.1108-.2753.1108-.38611v-12.079c0-.08549-.0116-.16769-.0364-.24739-.0253-.07961-.0617-.1572-.1108-.2294-.0369-.0744-.0823-.1493-.1376-.2216-.0554-.0743-.1145-.1361-.1752-.1851-.0617-.0591-.135-.1187-.2215-.1751-.086-.05441-.1714-.1008-.2574-.1366-.0865-.0385-.1662-.067-.2395-.0929-.0733-.0232-.1287-.0358-.1661-.0358h-.6441c-.0617,0-.135-.0132-.2215-.0386-.0849-.0232-.1709-.0543-.2574-.0901-.0733-.0391-.1535-.0829-.2395-.1393-.0849-.0538-.1598-.1134-.2205-.17511-.0617-.06169-.1197-.134-.1751-.22159-.0554-.0849-.1018-.1645-.1376-.23941-.0375-.085-.0681-.16989-.0929-.25739-.0242-.085-.0358-.1651-.0358-.2395v-2.1352c0-.1213.0116-.2294.0358-.3223.0248-.0923.0554-.1751.0929-.2495.0358-.0722.0849-.14711.1466-.2189.0622-.0749.1224-.1419.1846-.2036.1108-.1107.2395-.2089.3861-.2938.0749-.0385.1572-.067.2484-.0923.0929-.0258.1884-.0364.2859-.0364h4.032c.0749,0,.1572.0106.2484.0364.0929.0253.1752.0538.249.0923.086.0364.1725.08019.2585.1287.0849.0491.1587.1034.2204.1651.0734.0749.1351.1493.1841.2295.0491.0796.0929.1566.1287.2315.0865.1725.1287.3376.1287.4969Z" fill="#640" stroke-width="0"/>
        <path d="M1985.7461,1201.46021h11.8955c.1841,0,.355.0359.5148.11079.1714.08491.3244.19561.4599.32961.1593.1598.277.3038.3503.4325s.1171.23689.1287.3223c.0116.08759.0153.15459.009.2031-.0064.0491-.009.0802-.009.0928v15.9813c0,.049-.0153.1187-.0464.2036s-.0644.1645-.1002.2394c-.0865.1725-.1973.3192-.3324.4405-.0606.0617-.1287.1234-.2025.1851-.0733.0623-.1466.11079-.2215.1472-.0734.0485-.153.0849-.2379.1108-.0865.0253-.1794.03579-.2769.03579h-7.8261c-.2933,0-.5818.06171-.865.18571-.2822.1208-.5333.3012-.7548.5327-.1108.1108-.211.2268-.3039.3503-.0912.1239-.1751.2579-.2484.4045-.0617.1367-.1108.2733-.1466.4146-.0375.1419-.0554.2806-.0554.4146v7.8994c0,.1234.0153.2548.0459.3966.03.1388.0696.278.1197.412.0607.1234.1313.2527.2115.3887.0797.134.1619.2501.2484.3482.1957.2342.4484.4172.7549.5533.1476.0622.2885.11339.4235.1572.135.0411.2574.0643.3682.0643h8.0281c.184,0,.3618.0464.5343.1366.1714.0929.3196.20629.4415.3424.1355.1471.2463.3117.3312.4974.0865.183.1287.3734.1287.5691s-.0332.394-.1002.5897c-.0686.19569-.1635.3682-.2859.5154-.1224.1466-.2732.27-.451.3681-.1777.0976-.3771.1467-.5986.1467h-11.876c-.1593,0-.3323-.0491-.5164-.1467-.0849-.03581-.1709-.0849-.2574-.1466-.0849-.06221-.1651-.124-.2395-.1857-.0606-.0722-.1223-.1519-.184-.2394-.0607-.085-.1098-.1699-.1472-.2575-.086-.183-.1287-.3481-.1287-.4974l-.0179-7.93521v-7.93519c0-.0849.0116-.1799.0358-.2859.0248-.10291.0623-.1983.1108-.28591.0374-.09759.0891-.18509.1572-.26529.067-.07971.1313-.1519.193-.2136.0739-.0723.1535-.1388.24-.201.0849-.0617.1709-.1055.2574-.1287.1841-.0876.3376-.1287.4595-.1287h7.8635c.1466,0,.2906-.0232.4325-.0644.1403-.0437.2848-.0954.4325-.1571.2938-.1367.5459-.3244.7548-.5718.0981-.0976.1841-.211.2574-.3397.0733-.1292.1356-.2553.1841-.37871.0622-.134.1071-.27589.1382-.42249.0306-.1467.0459-.2938.0459-.4431v-7.7496c0-.1366-.0153-.2732-.0459-.4146-.0311-.1419-.0712-.2859-.1197-.433-.1108-.2701-.2822-.5354-.5154-.7933-.0733-.085-.1688-.1752-.2859-.2648-.116-.0929-.2421-.1704-.3771-.23211-.1224-.07229-.2579-.134-.4046-.183-.1482-.04859-.2885-.07439-.4235-.07439h-7.9727c-.1108,0-.259-.0412-.4431-.1287-.0849-.0364-.1709-.08491-.2574-.1472-.0849-.06171-.1651-.12871-.2395-.2031-.0733-.05961-.1376-.13661-.193-.2294-.0554-.0928-.1071-.1804-.1561-.268-.086-.1956-.1287-.3861-.1287-.5691,0-.1957.0427-.4067.1287-.6256.0981-.2089.2204-.3866.3681-.5359.1356-.14661.2886-.2574.46-.32961.1973-.07489.3565-.11079.4789-.11079Z" fill="#640" stroke-width="0"/>
        <path d="M2029.2828,1201.44221h12.0047c.0733,0,.1535.0074.2395.0259.0849.01789.1714.0464.2579.0823.1709.0749.3307.1804.4789.3144.0734.0617.1403.1287.2021.203.0617.0723.1107.14719.1466.2189.0865.1598.1287.3197.1287.4795l-.0179,7.1082v7.106c0,.1108.0131.2342.0374.3682.0243.1366.0554.25739.0913.3682.0865.2579.2088.4974.3687.7189.0733.0976.1593.1931.2574.2859.0991.0923.1967.1619.2948.211.1108.0617.2242.11339.3413.1572.116.0437.2421.0643.3771.0643h.5528l.5523.01789c.049,0,.1071.01321.1751.03591.067.0259.125.057.1741.0928.1234.0749.2278.1725.3128.2965.0865.1081.1545.2447.2036.404.0242.0723.0448.1472.0643.2216.0179.07219.0269.1419.0269.2009v14.1035c0,.0749-.009.14979-.0269.2215-.0195.0749-.0401.1472-.0643.2216-.0734.1598-.1546.2938-.2395.4045-.0865.10019-.1778.18519-.2769.2574-.0981.0749-.1957.1366-.2938.1857-.0992.0617-.1905.10809-.277.1387-.0859.0311-.1598.0438-.2199.0438h-15.7987c-.1351,0-.2833-.028-.4415-.0897-.1599-.0622-.3128-.1545-.461-.2785-.1351-.1208-.2574-.28321-.3682-.4868-.1108-.2031-.1662-.4452-.1662-.72641,0-.31909.0554-.58439.1662-.79329.1108-.2083.2458-.3681.4056-.4789.1466-.11081.3001-.1851.4594-.2289.1599-.0438.2886-.0644.3867-.0644h4.014l4.033-.0184c.0491,0,.1403-.018.2759-.0565.135-.0358.2769-.0849.4235-.14661.1599-.06229.3155-.13659.47-.22949.1535-.0928.2733-.193.3582-.3038.1107-.0981.2057-.211.2859-.3402.0796-.1287.1503-.2627.2125-.3967.0602-.1234.1066-.2521.1377-.3861.0295-.1366.0464-.2653.0464-.3861v-7.9199c0-.1466-.0195-.2938-.0554-.4404-.0374-.1467-.0865-.2886-.1482-.4252-.1224-.3064-.2948-.56911-.5153-.7907-.1968-.2215-.4299-.3913-.6989-.5148-.2706-.1339-.5655-.20361-.8851-.20361h-7.9168c-.2706,0-.5037-.06429-.6994-.193-.1973-.12869-.3502-.27849-.461-.451-.1108-.17249-.1904-.34759-.2395-.52539-.049-.1777-.0733-.3217-.0733-.4325.0127-.2089.0617-.4093.1477-.6076.0854-.1963.1893-.3608.3133-.4974.134-.134.2906-.2448.4684-.3297.1778-.0876.3597-.1287.5438-.1287h7.8989c.1714,0,.3312-.0206.4789-.0565.1472-.0363.2885-.0854.4241-.1471.269-.1108.5148-.2754.7353-.4969.1107-.1108.2083-.2368.2948-.3787.086-.1393.153-.278.2036-.412.0602-.1492.1066-.3038.1377-.47151.0295-.16459.0464-.32709.0464-.48689l.018-3.8115.0358-3.8299c0-.1725-.0153-.3323-.0448-.479-.0311-.1466-.0712-.2832-.1198-.4045-.049-.1234-.1149-.2421-.193-.3603-.0812-.116-.1704-.2294-.268-.3402-.1355-.1466-.2822-.2753-.442-.3861-.1593-.1108-.3128-.20361-.4594-.2759-.1598-.06171-.317-.1081-.47-.13871-.1535-.03109-.2911-.04639-.4151-.04639h-7.9168c-.1355,0-.2822-.0311-.442-.0928-.1593-.0591-.3064-.152-.4415-.2754-.1482-.1213-.2706-.2859-.3682-.4868-.0991-.20361-.1482-.4457-.1482-.729,0-.28061.0491-.5227.1482-.7263.0976-.2036.22-.3656.3682-.4869.1351-.1366.2822-.2315.4415-.2859.1598-.0564.2949-.0823.4056-.0823Z" fill="#640" stroke-width="0"/>
        <path d="M2076.9987,1201.44221c.1466,0,.3064.0412.4789.12879.0733.03581.153.08221.2384.13661.086.05639.1662.1208.2395.193.0617.0617.1224.1366.1841.2216.0617.0875.1171.1645.1662.2394.049.0849.0859.1751.1107.268.0243.0902.0359.18039.0359.2653v19.7748c0,.1366.0153.2806.0464.4325.0311.1546.077.30379.1377.4536.1239.3065.308.5818.5528.8266.0975.1107.212.2089.3412.2964.1287.0849.2601.1519.3951.2005.2706.1239.5343.1856.7923.1856h4.2904c.1097,0,.2358-.0153.3777-.0464.1403-.0311.2779-.0643.413-.1002.1355-.0491.2706-.1134.4056-.1936.1356-.0796.2511-.1646.3502-.2495.1097-.1108.2052-.2294.2849-.3581.0796-.1287.144-.2548.193-.3788.1108-.2806.1662-.5459.1662-.7906v-.60771c0-.08489.0089-.16979.0269-.25.0195-.07959.0464-.15449.0838-.22889.0243-.0749.0644-.1472.1198-.2216.0554-.0722.1134-.1339.1751-.183.049-.0617.116-.1108.202-.1493.0855-.0358.1662-.067.24-.09021.0849-.02579.1683-.04369.2484-.05639.0797-.0105.1493-.0185.211-.0185h4.3269c.1223,0,.2579.0364.4056.1108.1598.0855.3064.1962.442.3323.0733.0617.1403.1314.202.2115.0617.0797.1045.1572.1287.2289.0992.1725.1482.33239.1482.479l-.0195,6.0216v6.001c0,.14979-.0358.3091-.1092.4794-.0749.1593-.1724.3091-.2948.4426-.0617.0749-.1356.1445-.2216.2115-.0865.067-.165.1261-.2394.1751-.0849.0491-.1741.085-.2669.1108-.0913.0258-.1815.0359-.2664.0359h-4.0515c-.1709,0-.3555-.0412-.5522-.1287-.0865-.0359-.1715-.085-.2574-.1467-.0865-.0617-.1662-.1239-.2395-.183-.1356-.1366-.2463-.2959-.3313-.4789-.0859-.1725-.1287-.3197-.1287-.4431v-4.1623c0-.12081-.0221-.2495-.0643-.3861-.0438-.134-.0902-.2706-.1393-.4045-.0606-.1467-.1376-.2833-.2289-.4041-.0928-.1239-.1883-.2395-.2859-.3502-.1107-.0981-.2268-.191-.3502-.27591-.1224-.08759-.2511-.15449-.3867-.20309-.2574-.1107-.5148-.1651-.7727-.1651l-6.0036-.0179h-6.0021c-.1598,0-.3376-.0438-.5333-.1313-.0991-.0491-.1941-.1055-.2859-.1725-.0923-.0696-.1814-.1519-.2663-.25-.0501-.04911-.0955-.1082-.1393-.1752-.0422-.067-.0823-.1313-.1197-.193-.0733-.1598-.1224-.3197-.1467-.479v-23.5483c0-.13661.0117-.2653.0375-.3887.0243-.1213.0491-.2395.0733-.3476.0733-.2215.1841-.4072.3307-.5538.0865-.0749.1778-.1472.277-.2216.0981-.0722.1893-.1287.2758-.1651.086-.0485.1688-.0902.2485-.12081.0796-.02849.144-.04379.193-.04379h4.1069Z" fill="#640" stroke-width="0"/>
      </g>
      <g>
        <path d="M1295.4772,1203.31951v15.9274c0,.1467.0195.296.0554.4505.0374.15459.0928.3038.1661.451.0607.1361.1377.2701.2305.404.0918.13659.1868.2527.2849.3503.0976.0981.2147.1909.3502.2758.1351.0876.269.1599.4041.2216.1355.049.2706.0928.4056.1287.1355.0385.2579.0564.3687.0564h4.1607c.1107,0,.2152.0027.3127.0079.0992.00789.1973.0285.2949.0644.1973.08749.3993.2706.6082.5538.0485.06169.0949.1208.1376.183.0438.0618.0771.1235.1018.1852.0486.134.0734.2806.0734.4404v12.0073c0,.0849-.009.1725-.0269.2653-.0196.0923-.0533.1752-.1018.24949-.0734.15991-.1725.30171-.2949.42251-.1472.1467-.3065.2653-.4795.3503-.1825.0849-.3486.1287-.4968.1287h-12.0959c-.0502,0-.1108-.0101-.1841-.028-.0749-.0184-.1483-.0464-.2216-.0828-.0617-.0359-.1355-.0796-.2215-.12871-.0849-.04909-.1598-.11079-.2205-.183-.0617-.04859-.1171-.11819-.1661-.20309-.0486-.08491-.0976-.1725-.1467-.25791-.0374-.07439-.068-.15459-.0928-.23949-.0243-.0849-.0359-.1593-.0359-.22151v-12.11489c0-.0749.0116-.1572.0359-.2474.0248-.0929.0554-.1751.0928-.25.0364-.085.0823-.1673.1377-.2495.0554-.0776.1071-.1419.1572-.1936.049-.0591.116-.1208.2025-.1825.0849-.0617.1709-.1108.2574-.1472.1841-.0875.3503-.1287.4969-.1287h.6636c.0358,0,.0949-.0153.1751-.0464.0786-.0306.1619-.0644.2484-.1029.0733-.0358.1556-.08491.2485-.1466.0912-.0596.1687-.12131.2294-.183.0485-.0617.1039-.1287.1656-.2036.0623-.0718.1108-.14671.1472-.2216.0744-.1466.1108-.2753.1108-.38611v-12.079c0-.08549-.0116-.16769-.0364-.24739-.0254-.07961-.0617-.1572-.1108-.2294-.0369-.0744-.0823-.1493-.1377-.2216-.0554-.0743-.1144-.1361-.1751-.1851-.0617-.0591-.135-.1187-.2215-.1751-.086-.05441-.1709-.1008-.2574-.1366-.0865-.0385-.1662-.067-.2395-.0929-.0733-.0232-.1287-.0358-.1662-.0358h-.644c-.0617,0-.135-.0132-.2215-.0386-.085-.0232-.1709-.0543-.2574-.0901-.0734-.0391-.1535-.0829-.2395-.1393-.0849-.0538-.1598-.1134-.2205-.17511-.0617-.06169-.1197-.134-.1751-.22159-.0554-.0849-.1013-.1645-.1377-.23941-.0374-.085-.068-.16989-.0928-.25739-.0243-.085-.0359-.1651-.0359-.2395v-2.1352c0-.1213.0116-.2294.0359-.3223.0248-.0923.0554-.1751.0928-.2495.0364-.0722.0849-.14711.1467-.2189.0622-.0749.1223-.1419.1846-.2036.1107-.1107.2394-.2089.3861-.2938.0749-.0385.1572-.067.2484-.0923.0929-.0258.1883-.0364.2859-.0364h4.032c.0749,0,.1572.0106.2484.0364.0928.0253.1751.0538.249.0923.086.0364.1725.08019.2584.1287.0855.0491.1588.1034.2205.1651.0733.0749.1351.1493.1841.2295.0491.0796.0928.1566.1287.2315.0865.1725.1287.3376.1287.4969Z" fill="#640" stroke-width="0"/>
        <path d="M1337.5961,1201.46021h11.8955c.184,0,.3549.0359.5148.11079.1714.08491.3244.19561.4599.32961.1593.1598.2769.3038.3503.4325.0733.1287.1171.23689.1287.3223.0116.08759.0153.15459.0089.2031-.0063.0491-.0089.0802-.0089.0928v15.9813c0,.049-.0153.1187-.0465.2036-.0311.0849-.0643.1645-.1002.2394-.0865.1725-.1972.3192-.3323.4405-.0606.0617-.1287.1234-.2025.1851-.0733.0623-.1467.11079-.221.1472-.0739.0485-.1535.0849-.2385.1108-.0865.0253-.1788.03579-.2769.03579h-7.8255c-.2938,0-.5823.06171-.8656.18571-.2822.1208-.5332.3012-.7548.5327-.1107.1108-.211.2268-.3038.3503-.0913.1239-.1751.2579-.2484.4045-.0618.1367-.1108.2733-.1467.4146-.0374.1419-.0554.2806-.0554.4146v7.8994c0,.1234.0153.2548.0459.3966.0301.1388.0697.278.1203.412.0601.1234.1313.2527.211.3887.0796.134.1624.2501.2484.3482.1957.2342.4484.4172.7548.5533.1482.0622.2886.11339.4236.1572.135.0411.2574.0643.3682.0643h8.028c.1841,0,.3619.0464.5344.1366.1714.0929.3196.20629.442.3424.135.1471.2458.3117.3307.4974.0865.183.1287.3734.1287.5691s-.0332.394-.1002.5897c-.0686.19569-.1635.3682-.2859.5154-.1224.1466-.2732.27-.451.3681-.1778.0976-.3771.1467-.5987.1467h-11.8759c-.1593,0-.3323-.0491-.5164-.1467-.0849-.03581-.1709-.0849-.2574-.1466-.0849-.06221-.1646-.124-.2395-.1857-.0607-.0722-.1224-.1519-.1841-.2394-.0606-.085-.1097-.1699-.1471-.2575-.086-.183-.1287-.3481-.1287-.4974l-.018-7.93521v-7.93519c0-.0849.0116-.1799.0364-.2859.0243-.10291.0617-.1983.1103-.28591.0374-.09759.0891-.18509.1571-.26529.067-.07971.1314-.1519.1936-.2136.0733-.0723.153-.1388.2395-.201.0849-.0617.1709-.1055.2574-.1287.1841-.0876.3376-.1287.46-.1287h7.8629c.1467,0,.2907-.0232.4325-.0644.1404-.0437.2849-.0954.4326-.1571.2938-.1367.5464-.3244.7548-.5718.0981-.0976.1841-.211.2574-.3397.0733-.1292.1355-.2553.1841-.37871.0622-.134.107-.27589.1382-.42249.0306-.1467.0464-.2938.0464-.4431v-7.7496c0-.1366-.0158-.2732-.0464-.4146-.0312-.1419-.0712-.2859-.1198-.433-.1107-.2701-.2822-.5354-.5153-.7933-.0733-.085-.1688-.1752-.2859-.2648-.116-.0929-.2421-.1704-.3771-.23211-.1224-.07229-.258-.134-.4046-.183-.1482-.04859-.2885-.07439-.4236-.07439h-7.9726c-.1108,0-.259-.0412-.4431-.1287-.0849-.0364-.1709-.08491-.2574-.1472-.0849-.06171-.1646-.12871-.2395-.2031-.0733-.05961-.1377-.13661-.193-.2294-.0554-.0928-.1071-.1804-.1562-.268-.086-.1956-.1287-.3861-.1287-.5691,0-.1957.0427-.4067.1287-.6256.0981-.2089.2205-.3866.3687-.5359.1351-.14661.288-.2574.4594-.32961.1973-.07489.3566-.11079.479-.11079Z" fill="#640" stroke-width="0"/>
        <path d="M1381.1328,1201.44221h12.0047c.0733,0,.1535.0074.2394.0259.085.01789.1715.0464.258.0823.1709.0749.3307.1804.4789.3144.0733.0617.1403.1287.202.203.0617.0723.1108.14719.1467.2189.0865.1598.1292.3197.1292.4795l-.0185,7.1082v7.106c0,.1108.0132.2342.0375.3682.0248.1366.0554.25739.0912.3682.0865.2579.2089.4974.3687.7189.0733.0976.1593.1931.2574.2859.0992.0923.1973.1619.2949.211.1108.0617.2242.11339.3413.1572.116.0437.2421.0643.3771.0643h.5528l.5522.01789c.0491,0,.1071.01321.1752.03591.067.0259.125.057.174.0928.1235.0749.2279.1725.3128.2965.0865.1081.1546.2447.2036.404.0243.0723.0449.1472.0644.2216.0179.07219.0269.1419.0269.2009v14.1035c0,.0749-.009.14979-.0269.2215-.0195.0749-.0401.1472-.0644.2216-.0733.1598-.1545.2938-.2394.4045-.0866.10019-.1778.18519-.277.2574-.0981.0749-.1957.1366-.2938.1857-.0991.0617-.1904.10809-.2769.1387-.086.0311-.1598.0438-.2199.0438h-15.7982c-.1356,0-.2838-.028-.4421-.0897-.1598-.0622-.3128-.1545-.461-.2785-.135-.1208-.2574-.28321-.3681-.4868-.1108-.2031-.1662-.4452-.1662-.72641,0-.31909.0554-.58439.1662-.79329.1107-.2083.2458-.3681.4056-.4789.1466-.11081.3001-.1851.4599-.2289.1593-.0438.288-.0644.3861-.0644h4.0141l4.033-.0184c.049,0,.1403-.018.2759-.0565.135-.0358.2769-.0849.4235-.14661.1598-.06229.3154-.13659.47-.22949.1535-.0928.2732-.193.3581-.3038.1108-.0981.2058-.211.2859-.3402.0797-.1287.1504-.2627.2126-.3967.0601-.1234.1065-.2521.1377-.3861.0295-.1366.0464-.2653.0464-.3861v-7.9199c0-.1466-.0195-.2938-.0554-.4404-.0374-.1467-.0865-.2886-.1482-.4252-.1224-.3064-.2949-.56911-.5154-.7907-.1967-.2215-.4298-.3913-.6988-.5148-.2706-.1339-.5655-.20361-.8851-.20361h-7.9168c-.2706,0-.5037-.06429-.6994-.193-.1968-.12869-.3503-.27849-.461-.451-.1108-.17249-.1905-.34759-.2395-.52539-.0491-.1777-.0733-.3217-.0733-.4325.0126-.2089.0617-.4093.1482-.6076.0849-.1963.1888-.3608.3128-.4974.134-.134.2911-.2448.4684-.3297.1777-.0876.3597-.1287.5438-.1287h7.8988c.1715,0,.3313-.0206.4795-.0565.1466-.0363.288-.0854.4236-.1471.269-.1108.5148-.2754.7352-.4969.1108-.1108.2084-.2368.2949-.3787.086-.1393.153-.278.2036-.412.0601-.1492.1065-.3038.1377-.47151.0295-.16459.0464-.32709.0464-.48689l.0179-3.8115.0359-3.8299c0-.1725-.0153-.3323-.0448-.479-.0312-.1466-.0707-.2832-.1198-.4045-.049-.1234-.115-.2421-.193-.3603-.0813-.116-.1704-.2294-.268-.3402-.1355-.1466-.2822-.2753-.442-.3861-.1593-.1108-.3128-.20361-.4594-.2759-.1599-.06171-.317-.1081-.47-.13871-.1535-.03109-.2912-.04639-.4146-.04639h-7.9173c-.1356,0-.2822-.0311-.442-.0928-.1593-.0591-.3065-.152-.4415-.2754-.1482-.1213-.2706-.2859-.3682-.4868-.0991-.20361-.1482-.4457-.1482-.729,0-.28061.0491-.5227.1482-.7263.0976-.2036.22-.3656.3682-.4869.135-.1366.2822-.2315.4415-.2859.1598-.0564.2948-.0823.4056-.0823Z" fill="#640" stroke-width="0"/>
        <path d="M1428.8487,1201.44221c.1466,0,.3064.0412.4789.12879.0733.03581.1535.08221.2384.13661.086.05639.1662.1208.2395.193.0617.0617.1224.1366.1841.2216.0617.0875.1171.1645.1661.2394.0491.0849.086.1751.1108.268.0243.0902.0359.18039.0359.2653v19.7748c0,.1366.0153.2806.0464.4325.0311.1546.0775.30379.1376.4536.124.3065.3081.5818.5528.8266.0976.1107.2121.2089.3413.2964.1287.0849.26.1519.3951.2005.2706.1239.5343.1856.7922.1856h4.2905c.1097,0,.2357-.0153.3776-.0464.1403-.0311.278-.0643.413-.1002.1356-.0491.2706-.1134.4057-.1936.1355-.0796.2516-.1646.3502-.2495.1097-.1108.2052-.2294.2848-.3581.0797-.1287.144-.2548.1931-.3788.1108-.2806.1661-.5459.1661-.7906v-.60771c0-.08489.009-.16979.0269-.25.0196-.07959.0465-.15449.0839-.22889.0248-.0749.0644-.1472.1197-.2216.0554-.0722.1134-.1339.1752-.183.049-.0617.116-.1108.2025-.1493.0849-.0358.1656-.067.2395-.09021.0849-.02579.1682-.04369.2484-.05639.0797-.0105.1493-.0185.211-.0185h4.3268c.1224,0,.258.0364.4057.1108.1598.0855.3064.1962.442.3323.0733.0617.1403.1314.202.2115.0617.0797.1044.1572.1287.2289.0992.1725.1482.33239.1482.479l-.0195,6.0216v6.001c0,.14979-.0359.3091-.1092.4794-.0749.1593-.1725.3091-.2948.4426-.0618.0749-.1356.1445-.2216.2115-.0865.067-.1651.1261-.2395.1751-.0849.0491-.174.085-.2669.1108-.0912.0258-.1814.0359-.2663.0359h-4.0515c-.1709,0-.355-.0412-.5523-.1287-.0865-.0359-.1714-.085-.2574-.1467-.0865-.0617-.1661-.1239-.2394-.183-.1356-.1366-.2464-.2959-.3313-.4789-.086-.1725-.1287-.3197-.1287-.4431v-4.1623c0-.12081-.0216-.2495-.0643-.3861-.0438-.134-.0902-.2706-.1393-.4045-.0601-.1467-.1377-.2833-.2289-.4041-.0929-.1239-.1883-.2395-.2859-.3502-.1108-.0981-.2268-.191-.3502-.27591-.1224-.08759-.2511-.15449-.3867-.20309-.2574-.1107-.5148-.1651-.7727-.1651l-6.0031-.0179h-6.0026c-.1599,0-.3371-.0438-.5333-.1313-.0992-.0491-.1941-.1055-.2859-.1725-.0923-.0696-.1814-.1519-.2664-.25-.0501-.04911-.0954-.1082-.1392-.1752-.0422-.067-.0823-.1313-.1197-.193-.0734-.1598-.1224-.3197-.1467-.479v-23.5483c0-.13661.0116-.2653.0375-.3887.0242-.1213.049-.2395.0733-.3476.0733-.2215.1841-.4072.3307-.5538.0865-.0749.1778-.1472.2769-.2216.0981-.0722.1894-.1287.2759-.1651.086-.0485.1688-.0902.2484-.12081.0797-.02849.144-.04379.1931-.04379h4.1069Z" fill="#640" stroke-width="0"/>
        <path d="M1491.9566,1201.46021c.173,0,.3502.02579.5348.0823.1841.0543.3434.1492.479.2859.1466.1213.2663.2858.3592.4868.0912.2036.1376.4404.1376.7084.0116.2833-.0374.52539-.1482.729-.1092.2009-.2379.3655-.3861.4868-.1466.1234-.3101.2189-.4879.2859s-.3223.1002-.4331.1002h-5.8554l-5.8359-.0179c-.1224,0-.2574.0179-.4056.05639-.1472.03641-.2885.08491-.4225.14721-.1366.0617-.268.1334-.3967.221-.1287.0854-.2484.183-.3592.29379-.2574.22151-.4531.47891-.5886.77271-.0618.1367-.1145.278-.1572.4252-.0422.1466-.0644.288-.0644.422l.018,3.9048v3.9017c0,.2347.0553.4868.1661.7548.1108.2706.2643.5174.461.7363.1097.124.2295.23949.3582.3503.1287.1107.2616.2036.3966.2785.1467.0849.3002.1519.46.2009.1593.0486.3254.0744.4969.0744h11.7662c.1598,0,.3244.0438.4974.1287.0849.0364.1709.0876.2574.1572.086.067.1598.1313.2215.1931.0734.0722.1377.1498.1931.22939.0554.07971.0955.15721.1197.22951.0491.08749.0823.1724.1002.2574.0196.0875.0285.1724.0285.26v15.9243c0,.1007-.0126.1983-.0374.2964-.0243.0981-.0554.1778-.0913.2395-.0374.08489-.0796.1624-.1287.2294-.0501.067-.0991.1314-.1482.1931-.1466.1725-.3191.30639-.5148.4067-.1846.0849-.3618.12869-.5349.12869h-15.834c-.1599,0-.326-.04589-.4974-.13879-.1725-.0928-.3318-.20621-.479-.34021-.135-.14659-.2484-.31379-.3397-.49679-.0928-.1857-.1392-.3761-.1392-.5718,0-.2321-.0027-.451-.009-.6541-.0063-.2009.0285-.3708.1018-.5048.0733-.1498.2173-.2653.4325-.3502.2137-.0855.5433-.1292.9854-.1292h11.7646c.1356,0,.2769-.018.4241-.0565.1466-.0358.2885-.0849.4236-.14661.135-.07229.2705-.15189.4056-.23949.134-.0854.2574-.183.3671-.2938.2083-.18571.3745-.4119.4984-.6825.0602-.1208.1092-.2574.1467-.4046.0374-.14661.0554-.2933.0554-.4425v-8.046c0-.1108-.018-.23211-.0554-.3687-.0375-.134-.0928-.2675-.1662-.4041-.0617-.134-.144-.2706-.2484-.4046-.1044-.1366-.2115-.2574-.3223-.3681-.1108-.0981-.2263-.1904-.3502-.2759-.1224-.0876-.2442-.1593-.3682-.221-.2574-.1108-.4969-.16771-.7174-.16771h-11.8574c-.0734,0-.1572-.01529-.2485-.04379-.0928-.0306-.182-.0644-.2679-.1029-.1841-.0849-.3556-.2009-.5154-.3502-.0617-.05911-.1223-.134-.1841-.2189-.0617-.0876-.1107-.1677-.1466-.2395-.0865-.18571-.1287-.3581-.1287-.518v-15.9242c.0116-.0876.0332-.17251.0644-.2601.0295-.08541.0643-.1703.1002-.2579.0733-.1593.1841-.3112.3323-.4584.049-.049.1134-.1028.193-.1572.0802-.0564.1562-.1081.2295-.1566.1841-.0855.3745-.1472.5718-.1831h7.8619l7.8614.018Z" fill="#640" stroke-width="0"/>
        <path d="M1531.6649,1201.44221c.0865,0,.1841.0153.2949.04379.1097.03061.2088.07231.2938.12081.1107.0491.2083.1108.2948.1831.0865.0749.1662.1545.2395.2394.0617.0749.1197.1519.1751.2321.0554.0797.1018.15459.1377.2289.0733.1725.1107.3376.1107.4974v5.9646c0,.211-.0464.4046-.1376.5824-.0929.1777-.2126.3344-.3592.4684-.1467.12389-.317.2215-.5064.2938-.1904.0749-.3835.1107-.5807.1107-.22,0-.4262-.0179-.6167-.0543-.1904-.0385-.3581-.1055-.5063-.2031-.1467-.0981-.2664-.2447-.3592-.4404-.0913-.1983-.1377-.4484-.1377-.7575v-.9737l-.0179-.9578c0-.1235-.018-.2574-.0554-.4067-.0375-.1472-.0797-.2859-.1287-.4225-.0617-.1472-.1377-.2938-.2305-.4431-.0918-.1466-.1931-.2759-.3038-.3866-.2332-.21891-.4843-.3962-.7549-.5328-.3064-.134-.596-.2036-.8655-.2036h-3.7741c-.2953,0-.5833.0617-.8655.1857-.1483.0617-.2859.1334-.4146.221-.1287.0854-.2485.183-.3592.29379-.1108.11081-.2152.23681-.3134.37871-.0975.13929-.1777.278-.2394.412-.0733.1492-.1287.299-.1646.4536-.0374.1519-.0554.2959-.0554.4325l.018,5.90819v5.89291c0,.1234.0153.2495.0464.3787.0295.1287.0707.26.1197.394.1108.2701.2637.5175.4594.73639.2216.24731.4795.43781.7744.57171.1466.0749.3001.1314.4594.1752.1598.0437.326.0643.4974.0643h15.6874c.1598,0,.3281.0464.5059.1393.1793.0902.3349.2036.4705.3396.135.134.2484.28589.3407.451.0918.1646.1382.3297.1382.48689v11.95031c0,.0749-.0158.1572-.0464.25-.0311.0902-.058.1804-.0823.2653-.0374.0876-.0865.1725-.1482.2575-.0607.0875-.1224.1672-.1841.2394-.0733.0749-.1498.1419-.2294.2036-.0797.0617-.1636.1108-.2485.1467-.0749.049-.1572.0875-.2484.1107-.0929.0259-.182.0359-.268.0359h-19.7378c-.0744,0-.1593-.0127-.2585-.0438-.0981-.03061-.1894-.0717-.2759-.1208-.0859-.03581-.1751-.0875-.2663-.1572-.0929-.0669-.1752-.13661-.2485-.2109-.1239-.134-.2215-.2812-.2948-.4405-.0375-.0875-.0644-.1704-.0828-.25-.019-.0796-.028-.1625-.028-.25v-15.7777l-.0179-15.7982c0-.0849.0153-.1777.0459-.27531.03-.10069.0643-.18569.1007-.26.086-.17039.1967-.32969.3323-.47689.1466-.1492.3128-.2653.4969-.3502.1841-.0876.3492-.1287.4969-.1287l5.9472-.018h5.9287ZM1523.803,1232.85351h11.6365c.3191,0,.6192-.067.9025-.2036.2822-.134.5216-.3117.7173-.5333.2089-.2215.3777-.4842.5064-.79061.1298-.30909.1941-.63349.1941-.97579v-3.5726c0-.345-.0643-.6693-.1941-.9763-.1287-.3065-.2975-.5718-.5064-.7928-.1957-.2189-.4351-.3946-.7173-.5233-.2833-.1287-.5834-.193-.9025-.193h-11.6365c-.3191,0-.6203.0643-.9025.193s-.528.3044-.7369.5233c-.1967.221-.355.4863-.4789.7928-.1224.307-.1841.6313-.1841.9763v3.5726c0,.3423.0617.6667.1841.97579.1239.30641.2822.56911.4789.79061.2089.2216.4547.3993.7369.5333.2822.1366.5834.2036.9025.2036Z" fill="#640" stroke-width="0"/>
        <path d="M1586.9489,1201.44221c.1223,0,.2421.0101.3592.0359.116.0232.2226.0543.3217.09289.0981.049.1931.10281.2849.16451.0928.0623.1751.124.2484.1831.0865.0749.1572.1545.2126.23939.0554.08761.1018.16781.1376.23951.0375.0876.067.1778.0929.27849.0242.09761.0358.19041.0358.27531v6.5549l-.0179,6.55479c0,.04861-.0037.11081-.009.18251-.0063.0749-.0089.1498-.0089.2216-.0259.1598-.0686.3017-.1287.4251-.0259.0617-.0623.12079-.1108.183-.049.06179-.1044.11079-.1661.1467-.0491.049-.1018.0955-.1562.1392-.0554.0438-.1144.077-.1751.1003l-1.4178.66459-1.4179.644-1.4178.66151-1.4178.6646c-.0992.0364-.1931.0822-.2859.1366-.0913.0564-.1815.1134-.2664.1751-.1725.1234-.3191.2521-.4415.3861-.049.0749-.1018.1519-.1572.23209-.0554.07961-.0954.15451-.1197.22891-.0248.0749-.0491.1498-.0733.2295-.0248.07959-.0375.1571-.0375.2315l.019,6.4082v6.4051c0,.2706-.0464.5027-.1377.6931-.0928.1904-.2125.33969-.3592.4504-.1482.12129-.317.2115-.5063.26529-.1904.057-.3898.085-.5987.085-.1968,0-.3924-.04859-.5897-.14929-.1957-.0976-.3682-.2136-.5148-.3476-.1598-.1366-.2859-.2938-.3777-.471-.0928-.1778-.1377-.3529-.1377-.5259v-15.1336c0-.0849.0116-.1699.0359-.25.0248-.0797.0491-.15461.0733-.229.0491-.0849.0992-.1677.1482-.2473.0491-.0797.1045-.152.1651-.2137.0618-.05961.1298-.1239.2031-.193.0739-.067.1408-.12661.2026-.1751.0733-.0491.1466-.0929.2215-.1367.0733-.0437.134-.0775.1841-.1033l2.5962-1.1589,2.5767-1.1409c.0865-.0385.1877-.0796.3038-.12871.1171-.04909.2305-.10549.3413-.16719.1107-.0596.2178-.1393.3217-.24.1045-.0976.1867-.2189.249-.3682.0242-.0358.0485-.0849.0733-.14661.0243-.06169.0375-.11609.0375-.16509.0242-.1234.0358-.2574.0358-.4041v-6.8122c0-.13661-.0153-.2732-.0448-.41461-.0311-.14189-.0712-.28589-.1203-.43309-.0485-.1492-.1197-.2885-.212-.4246-.0918-.1339-.1867-.2579-.2849-.3687-.1107-.1208-.2341-.2394-.3681-.3502-.1356-.1081-.2769-.1957-.4236-.25741-.308-.15979-.6082-.23949-.903-.23949h-7.7148c-.2447,0-.509.0696-.7906.2036-.2833.1235-.528.2885-.7369.49689-.1108.12341-.2152.25741-.3128.40461-.0992.1492-.1788.2885-.2395.4246-.0617.15979-.1081.3196-.1392.4794-.0306.1593-.0449.3065-.0449.4405v3.8864c0,.18249-.04.36549-.1197.5433-.0802.1777-.1883.3323-.3233.4689-.1351.1466-.2912.2627-.4689.3502-.1778.0849-.3719.134-.5808.1467-.269.0126-.5127-.0359-.7263-.1467-.2152-.1107-.3903-.2474-.5254-.4072-.1466-.1572-.2574-.327-.3307-.5048-.0738-.1777-.1108-.3296-.1108-.4504v-3.8864l.018-3.8664c0-.1851.0126-.3423.0374-.4789.0243-.134.0617-.2447.1108-.3323.0485-.0976.1065-.18251.1751-.2574.067-.0723.1377-.1519.211-.2395.1598-.14661.3307-.2574.5153-.32961.1841-.08759.3809-.12879.5897-.12879h15.4301Z" fill="#640" stroke-width="0"/>
        <path d="M1609.2914,1234.19751v-14.54651c0-.14659.0427-.28849.1287-.422.0617-.12389.1598-.23469.2948-.33229.0865-.0622.1778-.1239.277-.18571.0981-.059.1957-.10809.2938-.14659.2083-.0723.4056-.1108.5897-.1108h1.0676c.0617,0,.135-.0179.2215-.0543.0849-.0359.1646-.0744.2395-.1108.0849-.04851.174-.1081.2663-.1751.0918-.067.1752-.1387.249-.211.0733-.0749.1403-.1466.202-.2215.0617-.07491.1171-.1466.1662-.2215.0976-.1599.1466-.2986.1466-.4225v-14.0856c0-.1107.0153-.2241.0464-.3397.0312-.11861.0707-.2241.1198-.3249.049-.0976.1044-.19571.1661-.2932.0607-.0982.1287-.1778.202-.23951.0607-.07229.1404-.14449.2395-.21149.0981-.067.1846-.1208.2579-.1572.086-.0485.1662-.0849.2395-.1108.0733-.0232.1224-.0359.1467-.0359h7.8439l7.8435-.0179c.1841,0,.3814.0617.5897.183.0981.0618.2025.1287.3133.2031.1108.0749.2084.1598.2949.258.1466.136.2574.2727.3307.4145.0733.1414.1287.268.1661.3761.0248.1108.0401.211.0454.2959.0063.085.01.1519.01.201v13.9025c0,.0854.0143.1751.0454.2679.0306.0902.0643.1752.1013.2474.0374.0876.0891.1672.1561.2395.068.0749.1324.1419.1946.2036.0602.0491.1287.0976.2021.1466.0733.0491.1529.0981.2394.1467.0981.0364.1957.0722.2949.1007.0981.0311.1957.0464.2938.0464h.9399c.0976,0,.1931.0153.2843.0465.0929.0305.1752.0717.249.1207.0733.0364.1477.085.2215.14719.0734.06171.1467.11551.22.16461.135.12339.2331.2706.2948.443.0734.1831.1108.3556.1108.5149l-.0179,4.0129v10.3305c0,.0976-.0153.201-.0464.3038-.0312.1055-.0644.20629-.1018.3038-.0491.0982-.1045.1957-.1646.2938-.0622.1003-.1303.1905-.2036.278-.1598.1831-.3313.31969-.5153.4046-.0992.0485-.1968.0902-.2949.11809-.0976.03121-.1957.04651-.2949.04651h-23.4021c-.1098,0-.2205-.018-.3313-.0538-.1108-.0364-.2215-.0802-.3307-.12871-.1108-.04909-.2152-.11079-.3133-.18569-.0992-.07231-.1905-.1519-.277-.2395-.0859-.0849-.1619-.1777-.2305-.27581-.0664-.09759-.1244-.19569-.1735-.29329-.0992-.2216-.1482-.4252-.1482-.6082ZM1618.6455,1216.83381h8.1199c.2816,0,.5522-.0544.8096-.1651.2574-.1108.479-.2653.6636-.461.1841-.19571.3307-.4252.4415-.6905.1107-.2627.1661-.5486.1661-.855v-7.8087c0-.3064-.0554-.5902-.1661-.855-.1108-.2632-.2574-.4947-.4415-.6904-.1846-.1957-.4062-.3529-.6636-.469-.2574-.11811-.528-.17511-.8096-.17511h-8.1199c-.2948,0-.5675.057-.8202.17511-.2511.1161-.4684.2733-.6525.469-.1846.1957-.3349.4272-.452.6904-.1161.2648-.1741.5486-.1741.855v7.8087c0,.3064.058.5923.1741.855.1171.2653.2674.49479.452.6905.1841.1957.4014.3502.6525.461.2527.1107.5254.1651.8202.1651ZM1618.7552,1232.53921h7.8994c.2948,0,.5765-.057.8471-.17521.2706-.116.5037-.26529.6994-.451.2084-.19559.3719-.42459.4879-.68989.1171-.2627.1752-.5433.1752-.83711v-8.23159c0-.2933-.0581-.5718-.1752-.8371-.116-.2627-.2795-.49431-.4879-.69-.1957-.1856-.4288-.3349-.6994-.451-.2706-.1155-.5523-.1751-.8471-.1751h-7.8994c-.3064,0-.5923.0596-.855.1751-.2653.1161-.5011.2654-.7095.451-.1972.1831-.3528.412-.4699.6799-.1161.2706-.1741.5539-.1741.8472v8.23159c0,.29381.058.57441.1741.83711.1171.2653.2727.4943.4699.68989.2084.18571.4442.335.7095.451.2627.11821.5486.17521.855.17521Z" fill="#640" stroke-width="0"/>
        <path d="M1662.5678,1201.40371h19.3882c.2331,0,.4483.0438.6451.1287.1962.08759.375.2084.5348.3682.0733.0749.1429.1572.211.25.067.0923.1197.1878.1572.2859.0358.0849.0696.18249.1002.2933.0311.1108.0464.2268.0464.35019v31.30051c0,.1008-.009.1931-.0279.2859-.0185.0929-.0454.1804-.0829.268-.0358.0849-.0796.1725-.1287.2574-.049.0849-.1044.1598-.1661.2215-.1466.1699-.3371.3065-.5702.4046-.2205.1108-.4547.1646-.6994.1646h-3.8854c-.0733,0-.1571-.0101-.2484-.0359-.0928-.0258-.1814-.0617-.2664-.1108-.0749-.049-.1572-.1081-.25-.1751-.0912-.067-.1688-.1313-.2294-.193-.1351-.1214-.2458-.26271-.3318-.4225-.0739-.1493-.1097-.2965-.1097-.4431v-11.876c0-.3064-.0617-.6076-.1841-.9014-.0501-.1361-.1171-.2674-.2036-.39671-.0849-.12869-.1778-.24209-.2754-.33969-.1107-.1234-.2331-.2368-.3687-.34231-.135-.10339-.27-.18569-.4056-.24739-.1466-.0617-.2975-.1134-.4504-.1572-.1535-.0437-.3039-.0643-.451-.0643h-11.7478c-.1097,0-.2268-.0132-.3492-.0364-.1234-.0253-.2331-.06171-.3323-.1102-.2083-.08551-.393-.2216-.5512-.4046-.0617-.0617-.1197-.1393-.1751-.2321-.0554-.0897-.0955-.1851-.1197-.2859-.0375-.0976-.0681-.1957-.0929-.2933-.0242-.0981-.0358-.1909-.0358-.2758v-15.5767c0-.1234.0152-.24211.0448-.3603.0311-.116.0712-.2241.1197-.3222.0375-.09761.0892-.1931.1572-.2859.067-.0902.1445-.1751.2305-.2474.0733-.0744.1535-.1387.2384-.1931.086-.0564.1725-.0949.259-.1208.0976-.0363.1983-.0669.3038-.0902.1029-.0258.2047-.0385.3028-.0385ZM1666.4526,1217.09121h11.5268c.1598,0,.3223-.018.4884-.0543.1662-.03591.3154-.085.4505-.1467.1482-.0617.2859-.13921.4146-.2321.1287-.0896.2484-.193.3592-.3038.2204-.2189.3929-.4789.5153-.7727.0617-.1467.1108-.3012.1482-.461.0359-.1593.0538-.3244.0538-.4969v-7.5486c0-.1704-.0179-.3402-.0538-.5048-.0374-.1677-.0865-.32231-.1482-.4716-.0491-.1466-.1197-.2832-.211-.4145-.0928-.1288-.1936-.2474-.3043-.35821-.1108-.11079-.2305-.211-.3592-.30379-.1287-.0929-.2664-.16721-.4146-.2295-.1351-.06171-.2843-.1081-.4505-.13871-.1661-.03109-.3286-.04639-.4884-.04639h-11.5268c-.2933,0-.5702.049-.8281.1466-.1351.0517-.2611.1082-.3772.1751-.1171.06969-.2305.1446-.3412.2321-.1224.1108-.2421.2369-.3582.37559-.1171.14191-.212.29381-.2859.451-.0733.15981-.1324.33231-.1751.51741-.0422.1831-.0643.3735-.0643.5697v7.5486c0,.3196.0617.6335.184.9399.0623.1472.1382.2886.2305.4225.0918.1367.1936.2574.3044.3682.2331.23469.4842.4125.7543.5359.1471.0491.3001.0955.4599.1366.1599.0438.326.0644.4969.0644Z" fill="#640" stroke-width="0"/>
        <path d="M1711.5179,1236.44351c-.5765,0-1.1024-.0591-1.575-.1751-.4726-.1161-.9051-.268-1.2981-.4505-.3924-.1957-.7516-.41991-1.0766-.6725-.3254-.2522-.6345-.5122-.9294-.7828-.3196-.2938-.6118-.6388-.8745-1.0301-.2653-.3941-.4879-.7933-.672-1.1979-.1973-.4041-.3481-.806-.452-1.2053-.1045-.39931-.1562-.7469-.1562-1.0407v-21.4695c0-.2216.0465-.5096.1382-.86511.0923-.35549.2237-.72889.3962-1.123.1714-.40449.3919-.81649.6619-1.23369.2706-.4172.5771-.80331.921-1.1589.2948-.2832.6235-.5538.9853-.8112.3618-.2579.7516-.4795,1.1689-.662.4172-.1856.8772-.3323,1.3809-.443.5032-.1108,1.0428-.1651,1.6209-.1651h11.6185c.6014,0,1.1563.0437,1.6663.1292.5085.0849.9785.2083,1.4089.3682.4288.1598.8344.3576,1.2142.5976.3814.2395.73.50689,1.0497.8007.3439.3196.6604.6799.9489,1.0765.2875.3993.5359.796.7458,1.1874.1957.4072.3555.8086.4774,1.2079.1239.3993.1846.7701.1846,1.1129l.019,10.4022.0364,10.4054c0,.4895-.0454.9658-.1382,1.4268-.0913.4584-.2237.8988-.3951,1.316-.3439.8218-.8603,1.5893-1.5465,2.3024-.259.268-.5681.536-.9299.8013-.3629.2626-.7522.4916-1.1694.6899-.4057.1957-.8229.35549-1.2528.47949-.4288.12081-.8413.18251-1.2337.18251h-12.9436ZM1711.8861,1233.31451h11.5078c.6878,0,1.3134-.1187,1.8772-.3502.5771-.2347,1.0872-.6029,1.5286-1.1051.1731-.1956.326-.4119.461-.644.134-.23421.2517-.4663.3492-.7005.0865-.24471.1572-.4921.2126-.7363.0554-.2448.0823-.4842.0823-.719v-19.6819c0-.3323-.0359-.652-.1108-.9584-.0733-.3065-.1777-.595-.3128-.86511-.1223-.25789-.2663-.50209-.4325-.73679-.1651-.2316-.3465-.43521-.5438-.6077-.22-.1957-.4621-.3682-.7263-.5153-.2638-.1467-.5433-.2627-.8382-.3503-.2948-.08491-.6039-.15191-.9299-.20091-.3255-.04859-.6657-.07439-1.0212-.07439h-10.5879c-.7363,0-1.4115.1055-2.0254.3117-.3065.1002-.5924.2342-.8567.40669-.2637.17251-.4995.38141-.7083.62611-.1467.1725-.2923.3708-.4326.5971-.1413.22679-.2663.4457-.3771.6546-.0992.2083-.1815.4014-.2484.57919-.0686.17771-.1018.317-.1018.41451v21.1199c0,.0849.0395.22359.1197.41459.0796.19041.1751.39661.2859.61551.1092.2216.2421.4452.3951.672.1534.22949.3106.4146.4699.5618.1957.1851.3983.3523.6082.5069.2083.1545.4352.2859.681.3966.2331.1108.4905.1984.7727.2653.2822.0697.5834.1034.9025.1034Z" fill="#640" stroke-width="0"/>
        <path d="M1753.3973,1230.05371c-.1841,0-.3629-.0358-.5343-.11071-.1725-.05909-.326-.15989-.461-.29379-.135-.134-.2331-.2833-.2938-.4426-.0744-.183-.1108-.3687-.1108-.5512v-19.8676c0-.173.0364-.3503.1108-.5333.0738-.1857.1714-.3376.2938-.461.1234-.124.2769-.22151.461-.2938.0849-.0385.1751-.067.2664-.0928.0928-.0254.182-.03591.2679-.03591h3.9212c.1841,0,.3687.04111.5528.12871.1709.0617.3191.1598.4415.2938.135.1366.2395.28849.3128.461.0733.183.1108.3603.1108.5333v19.8676c0,.1108-.0153.2189-.0464.3218-.0306.1054-.0644.2009-.1003.28579-.0865.18311-.2099.34241-.3681.479-.0618.049-.1287.09551-.2036.13661-.0734.0438-.1467.077-.22.1029-.0738.01049-.1509.0258-.2305.0464-.0802.0179-.1625.0258-.249.0258h-3.9212ZM1769.0658,1212.41411c-.0981,0-.1999-.0079-.3038-.0258-.1045-.018-.1999-.0464-.2849-.08231-.0859-.039-.1688-.08549-.2484-.13929-.0797-.0569-.1572-.1213-.2305-.193-.1466-.1472-.2574-.3065-.3313-.4795-.0743-.1825-.1107-.3808-.1107-.5897v-7.82451c0-.09749.0116-.20089.0364-.30379.0242-.1055.0554-.2009.0928-.2859.0733-.183.1778-.34231.3128-.4789.0733-.0723.1508-.1366.2305-.1931.0796-.05431.1625-.0954.2484-.1186.085-.0491.1804-.0823.2849-.1029.1039-.0179.2057-.02581.3038-.02581h7.8076c.0981,0,.1957.00791.2938.02581.0991.0206.1967.0538.2948.1029.1841.0722.3439.1777.479.3117.1466.13659.2574.2959.3307.4789.0749.19569.1108.394.1108.58969v7.82451c0,.2089-.0359.4072-.1108.5897-.0733.173-.1841.3323-.3307.4795-.1351.1466-.2949.2574-.479.33229-.1841.07171-.3797.10811-.5886.10811h-7.8076ZM1769.0658,1236.021c-.0981,0-.1999-.01009-.3038-.028-.1045-.01789-.1999-.04639-.2849-.08229-.1841-.0881-.3439-.1909-.4789-.3143-.1466-.1472-.2574-.3118-.3313-.49741-.0743-.18249-.1107-.37349-.1107-.57179v-7.8424c0-.0976.0116-.1957.0364-.2933.0242-.0981.0554-.1909.0928-.27851.0733-.18249.1778-.34229.3128-.47889.0733-.0723.1508-.1367.2305-.19311.0796-.05429.1625-.10069.2484-.13659.085-.0359.1804-.067.2849-.0928.1039-.0232.2057-.0359.3038-.0359h7.8076c.0981,0,.1957.0127.2938.0359.0991.0258.1967.0569.2948.0928.1841.0849.3439.1957.479.3297.1466.1366.2574.2964.3307.47889.0749.18571.1108.37611.1108.57181v7.8424c0,.1983-.0359.3945-.1108.5902-.0849.1852-.1957.345-.3307.479-.1224.1234-.2822.2262-.479.3143-.1957.0718-.3929.11029-.5886.11029h-7.8076Z" fill="#640" stroke-width="0"/>
      </g>
      <g>
        <path d="M792.72378,1230.03311c-.2204,0-.4235-.0358-.6081-.1107-.1841-.0723-.3434-.1778-.4774-.3118-.1482-.1234-.2616-.2705-.34128-.443-.08012-.1725-.11972-.3555-.11972-.5512v-19.8677c0-.1956.0396-.3808.11972-.5533.07968-.1703.19308-.3196.34128-.44041.134-.13659.2933-.24.4774-.31439.1846-.0722.3877-.1107.6081-.1107.2216,0,.4236.0385.6077.1107.1841.07439.3439.1778.4789.31439.1472.12081.2601.27011.3403.44041.0796.1725.1197.3577.1197.5533v19.8677c0,.1957-.0401.3787-.1197.5512-.0802.1725-.1931.3196-.3403.443-.135.134-.2948.2395-.4789.3118-.1841.0749-.3861.1107-.6077.1107ZM800.60478,1230.03311c-.2216,0-.4236-.0358-.6077-.1107-.18408-.0723-.3502-.1778-.4974-.3118-.135-.1234-.2421-.2705-.32168-.443-.07972-.1725-.11982-.3555-.11982-.5512v-19.8677c0-.1956.0401-.3808.11982-.5533.07958-.1703.18668-.3196.32168-.44041.1472-.13659.31332-.24.4974-.31439.1841-.0722.3861-.1107.6077-.1107.2088,0,.40822.0385.5986.1107.1894.07439.3519.1778.4869.31439.1355.12081.2463.27011.3323.44041.0849.1725.1287.3577.1287.5533v19.8677c0,.1957-.0438.3787-.1287.5512-.086.1725-.1968.3196-.3323.443-.135.134-.2975.2395-.4869.3118-.19038.0749-.3898.1107-.5986.1107ZM808.39338,1218.15721c-.0982,0-.1973-.01-.2949-.028-.0981-.0184-.1909-.039-.2759-.0648-.0859-.0227-.1688-.06441-.2484-.1182-.0797-.057-.1509-.1134-.2126-.1751-.135-.1108-.2394-.2527-.3128-.4252-.03578-.0722-.067-.15191-.0912-.2394-.0259-.0849-.0375-.1778-.0375-.2754v-12.1154c0-.0981.0116-.1904.0375-.2758.0242-.085.05542-.1646.0912-.2395.0734-.1593.1778-.3012.3128-.422.12242-.1239.2769-.2215.461-.29641.1841-.06169.3735-.09289.5708-.09289h7.8434c.0981,0,.1936.0106.2859.0285.0918.018.1804.04639.2669.0823.1957.0749.3555.1677.4789.2785.1224.1081.2268.2495.3128.422.0849.1725.12872.3428.12872.5153v12.1154c0,.1852-.04382.3577-.12872.5148-.0617.1599-.1661.3012-.3128.4252-.0617.0617-.135.1181-.22148.1751-.08652.05379-.17252.0955-.25742.1182-.0865.0258-.1751.0464-.2669.0648-.0923.018-.1878.028-.2859.028h-7.8434Z" fill="#640" stroke-width="0"/>
        <path d="M863.71318,1201.45751c.1725,0,.3502.0259.5343.0823.1841.0544.3439.1498.479.2859.1466.12129.2663.2859.3592.4869.0917.2036.1376.44039.1376.70839.0116.28321-.0369.52531-.1477.72891-.1097.201-.2384.3656-.38658.4869-.14662.1234-.31012.2189-.48792.2859s-.3218.1002-.4325.1002h-5.8555l-5.8364-.01791c-.1224,0-.2574.01791-.4056.05641-.1467.0364-.2885.0849-.4225.1472-.1361.0617-.2674.1339-.3967.2215-.1287.08489-.2484.1825-.3592.2933-.2574.2215-.4531.4789-.5886.7727-.0618.1366-.1145.278-.1567.4251-.0427.1467-.0643.2886-.0643.4225l.01792,3.9044v3.9017c0,.2347.05538.4868.16608.7548.1108.2705.2638.51739.461.7363.1092.124.229.24.3577.3508.12922.1102.2616.203.3966.2779.1472.085.3002.152.46.201.1598.0491.326.07439.4969.07439h11.7662c.1598,0,.3249.04381.4974.12871.0849.0364.1714.0875.2574.1572.0865.067.1598.1313.2215.1936.0734.0717.1377.1492.1931.2289.0554.07959.0955.1572.1197.2294.0491.0876.0828.1725.1008.2574.019.0876.0279.1725.0279.2601v15.9248c0,.1002-.0126.1983-.0369.29589-.0248.09811-.05538.17771-.0918.23941-.0369.085-.07958.1625-.1287.2295-.0501.067-.0991.1313-.1482.19309-.1466.17241-.3191.30641-.5148.40661-.1841.0855-.3618.1293-.5343.1293h-15.83458c-.15992,0-.326-.0465-.49692-.1393-.1725-.0928-.3323-.2062-.4789-.3402-.1356-.1466-.249-.3139-.3403-.4969-.0928-.1857-.1392-.3761-.1392-.5718,0-.2315-.00268-.4504-.009-.654-.0063-.201.0285-.3708.1018-.5048.0733-.1493.2179-.2653.43252-.3502.21418-.085.54388-.12871.98538-.12871h11.7651c.1351,0,.277-.01849.4236-.057.1466-.03589.2885-.08489.4236-.14669.1355-.0722.2705-.1519.4056-.2394.134-.08491.2579-.1831.3671-.2938.2089-.1857.375-.412.4984-.6826.0607-.1208.10922-.2574.1467-.404.0374-.1472.0554-.2938.0554-.4431v-8.046c0-.1108-.018-.2321-.0554-.3682-.03748-.1339-.0928-.2679-.1662-.4045-.0617-.134-.144-.2706-.2484-.4046-.1044-.13611-.211-.2574-.3218-.3682-.1107-.0975-.2268-.1904-.3502-.2753-.1224-.08761-.2447-.1598-.3687-.2215-.2574-.1108-.4969-.1678-.7168-.1678h-11.858c-.07338,0-.1572-.01531-.2485-.0438-.0928-.0306-.1814-.0643-.26788-.1028-.18412-.0849-.35562-.201-.51482-.3503-.0623-.059-.1224-.1339-.1847-.2189-.0617-.08751-.1107-.1672-.1466-.2394-.086-.1857-.1287-.3582-.1287-.518v-15.9243c.0116-.0875.0332-.1725.0644-.26.0295-.0849.0643-.1704.1002-.2579.0738-.1593.1846-.3112.3323-.4584.049-.04851.1134-.1029.1936-.1572.0796-.0564.1556-.1081.2289-.1567.1841-.0854.375-.1471.5718-.183h7.8619l7.8619.0179Z" fill="#640" stroke-width="0"/>
        <path d="M903.42,1201.43961c.08648,0,.184.0153.29478.0438.1097.0311.2089.0723.2938.1208.1108.049.20842.11079.2949.183.0859.0749.1661.1546.2394.2395.0617.0749.1198.1519.1752.2321.0553.0796.1018.1545.1376.2289.07332.1725.1108.3376.1108.4974v5.9646c0,.2115-.0464.4046-.1377.58229-.09278.17781-.2125.335-.3592.46841-.1471.124-.317.22159-.5064.2938-.1904.0749-.3834.11079-.5807.11079-.22,0-.4262-.01789-.6166-.05429-.19088-.0385-.3582-.1055-.5064-.2031-.1466-.0981-.2663-.2448-.3592-.4404-.0912-.1984-.1377-.4484-.1377-.7575v-.9732l-.0179-.9584c0-.1234-.0179-.2574-.0554-.4067-.0374-.1471-.0801-.2858-.1287-.4225-.0622-.1466-.1382-.2938-.2305-.443-.0918-.1467-.1936-.2754-.3043-.3861-.2326-.2189-.4842-.3967-.7543-.5333-.30648-.134-.5966-.2036-.8656-.2036h-3.7745c-.2949,0-.58338.0617-.8651.1857-.1482.0617-.2859.1339-.4146.2215-.1292.08489-.2489.1825-.35968.2933-.11032.1107-.21472.2368-.31282.3787-.0976.1392-.1778.278-.2395.41189-.0733.14931-.12868.29911-.1645.45371-.0375.1519-.0554.2959-.0554.4325l.0179,5.9082v5.8928c0,.1235.01532.2501.0464.37879.0296.12871.0707.26.1198.394.1107.27061.2637.51741.4594.73631.2215.2474.4795.4378.7743.5718.1466.07489.2996.1313.45942.1751.15988.04379.326.0644.49738.0644h15.6875c.1598,0,.32812.04639.5058.1392.1794.09019.335.2036.47.34019.1355.134.249.28591.34132.45051.09168.1651.13818.3297.13818.4868v11.9504c0,.0749-.0159.1572-.0465.25-.0311.0902-.058.1804-.0828.26529-.03688.08761-.086.17251-.1477.25741-.0606.08759-.1223.1672-.1841.2395-.0738.0749-.1498.1419-.2294.2036s-.1635.1108-.2484.1466c-.0749.0491-.1572.0876-.2485.1108-.09278.0258-.182.0364-.2679.0364h-19.73788c-.07442,0-.15932-.0132-.25852-.0438-.0981-.0311-.1893-.0723-.2758-.1213-.086-.0359-.1751-.0876-.2664-.15721-.0928-.067-.1751-.13659-.2484-.211-.124-.134-.2216-.28059-.29488-.44039-.03742-.08761-.06492-.1699-.08282-.25-.019-.0797-.028-.162-.028-.2495v-15.7782l-.0184-15.7982c0-.0849.0158-.1778.0464-.2753.0295-.1008.0644-.1857.1007-.2601.086-.1704.1968-.3296.3324-.4768.1466-.1493.31272-.2653.4968-.3503.1841-.0875.3492-.1287.49692-.1287l5.94718-.0179h5.92882ZM895.558,1232.85091h11.63648c.3191,0,.6193-.067.90252-.2036.28218-.134.52168-.3118.71738-.53331.2089-.22149.3771-.48419.5063-.79069.1298-.3091.1942-.6335.1942-.9758v-3.57251c0-.345-.0644-.66939-.1942-.97579-.1292-.3065-.2974-.5718-.5063-.7934-.1957-.2189-.4352-.394-.71738-.5232-.28322-.1287-.58342-.1931-.90252-.1931h-11.63648c-.31912,0-.62082.0644-.90252.1931-.2822.1292-.528.3043-.7368.5232-.1968.2216-.3555.4869-.479.7934-.1223.3064-.1841.63079-.1841.97579v3.57251c0,.3423.0618.6667.1841.9758.1235.3065.2822.5692.479.79069.2088.22151.4546.39931.7368.53331.2817.1366.5834.2036.90252.2036Z" fill="#640" stroke-width="0"/>
        <path d="M958.70388,1201.43961c.1224,0,.24212.01.3592.0359.1155.0232.2226.0543.3218.0928.09812.0491.193.1029.2848.1651.09232.0617.1751.1234.2485.1825.0859.0749.1571.1546.2125.2395.0554.0875.1018.1677.1377.2395.0374.0875.067.1777.0928.2785.0243.0975.0359.1904.0359.2753v6.5548l-.0179,6.5549c0,.0491-.0037.1108-.009.1825-.0063.0749-.009.1498-.009.2215-.0258.1599-.0685.3018-.1287.4252-.0258.0617-.0622.1213-.1107.183-.0491.0617-.1045.1108-.1662.1466-.0491.0491-.1018.0955-.1561.1393-.0554.0438-.11448.077-.1751.1002l-1.4179.6646-1.4178.6441-1.4179.6619-1.41778.6641c-.09922.0364-.193.0828-.28592.13659-.0912.05651-.1814.11341-.2663.17521-.1725.1234-.3197.2526-.4421.3866-.0485.0744-.1012.1519-.1566.2315-.0554.07969-.0955.1546-.1198.2295-.0248.0744-.049.1493-.0738.2289-.0243.0797-.0369.1572-.0369.2321l.019,6.4077v6.4056c0,.27-.0465.5021-.1377.6925-.0928.1905-.2126.3403-.3592.451-.1482.1208-.317.211-.5064.2648-.1904.057-.3898.0855-.5987.0855-.1967,0-.3929-.0491-.5897-.1498-.1957-.0976-.3681-.2137-.5153-.3476-.1593-.1367-.2859-.2933-.3771-.4711-.0929-.1777-.1377-.3528-.1377-.5253v-15.1342c0-.08491.0116-.1698.0359-.2494.0247-.0802.049-.1546.07332-.22951.049-.08489.09908-.16719.14818-.24739.049-.07961.1044-.1519.1651-.21361.06172-.05909.12972-.12339.2031-.19309.0738-.06691.1403-.1265.2025-.1751.0733-.049.1466-.09281.2215-.1366.0734-.0438.1335-.0775.1841-.1028l2.5962-1.15941,2.5767-1.14089c.086-.0385.1878-.0797.3038-.1287.1171-.0491.2305-.1055.3413-.1672.1108-.0597.2179-.1393.3218-.2395.1044-.0981.18672-.2189.2489-.36871.0243-.03589.0486-.08489.0733-.14669.0243-.0617.037-.116.037-.1645.0248-.124.0364-.258.0364-.4046v-6.81221c0-.13669-.0153-.27329-.0454-.41459-.0306-.1419-.0707-.2859-.1197-.4331-.0486-.14931-.11978-.288-.2126-.4246-.0913-.134-.1867-.2574-.2843-.3682-.1108-.1213-.2342-.24-.3682-.3507-.1355-.1082-.2769-.1957-.4241-.2574-.3075-.1599-.60758-.2395-.9025-.2395h-7.7147c-.2448,0-.509.0696-.7907.2036-.2838.1234-.528.28849-.7369.4969-.1107.1239-.2152.2579-.31278.4045-.09912.1493-.17932.2886-.23942.4246-.0617.1599-.1082.3197-.1393.47949-.0311.15931-.0448.30651-.0448.44041v3.8864c0,.1825-.0401.3656-.1197.5433-.0802.1778-.1884.3323-.3234.46889-.1355.14671-.2911.26271-.4689.35031-.1778.0849-.3719.134-.5807.1466-.2691.0132-.5127-.0358-.7264-.1466-.2152-.1108-.3903-.2474-.5253-.4072-.1467-.1572-.2574-.32711-.3308-.5048-.0738-.1778-.1107-.3297-.1107-.4505v-3.8864l.0179-3.8658c0-.18561.0127-.3428.03752-.4794.02418-.134.06168-.2448.11018-.3323.0491-.0976.1071-.1825.1757-.2574.0664-.0723.1376-.152.2109-.23951.1599-.14669.3308-.25739.5148-.32969.1847-.0875.38142-.1287.5903-.1287h15.43Z" fill="#640" stroke-width="0"/>
        <path d="M981.04638,1234.19541v-14.5471c0-.1466.0428-.2879.1287-.4219.0617-.124.15992-.2347.29492-.3323.08648-.0617.17768-.124.27688-.1857.09812-.0591.1957-.1081.2938-.1466.2084-.0723.4056-.11081.5897-.11081h1.06762c.06168,0,.135-.01789.22148-.05429.085-.0359.1646-.0744.23952-.1108.08488-.0485.17358-.1081.26638-.1751.0918-.067.1751-.1387.2484-.211.0739-.0749.1409-.1466.2026-.2215s.1171-.1467.1661-.2216c.0976-.1598.1467-.2985.1467-.4225v-14.0855c0-.1108.0153-.2242.0464-.33971.0306-.11869.0707-.22419.1197-.32439.0491-.0981.1045-.1962.1662-.2938.0606-.0981.1287-.1777.202-.2395.0606-.0722.1403-.1445.23952-.2115.09808-.067.184-.12081.25788-.1566.086-.0491.1656-.0855.2395-.1108.0733-.0232.1223-.03641.14662-.03641h7.844l7.8434-.01789c.1841,0,.3814.0617.5897.183.0982.0617.2026.1287.3134.2031.1107.0749.2083.15979.2948.2579.1467.1366.2574.2727.3307.4146.0734.1414.1287.268.1662.3761.0243.1108.0401.211.0454.2959.0063.0849.01.1519.01.201v13.903c0,.0849.0142.1751.0448.2674.0311.0902.0649.1751.1018.2474.0375.08749.0892.1672.1561.23949.0681.07491.1324.14181.1942.20361.0606.049.1292.0981.2025.1466.0733.0491.153.0981.2395.1472.0976.0358.1957.0717.2948.1002.0976.0311.1957.04639.2938.04639h.94c.0976,0,.193.01531.2843.04641.0928.03059.1751.0723.2489.1208.0734.0364.1477.0849.2211.1472.0738.0617.1471.1155.2204.1645.1351.1235.2332.2706.2949.44309.0733.183.1108.35551.1108.51531l-.018,4.0125v10.3305c0,.0976-.0158.2009-.0464.3038-.0311.1055-.0643.2062-.1018.3038-.049.09809-.1044.1957-.1646.2938-.0622.1002-.1302.1904-.2036.278-.1598.183-.3312.3196-.5153.4046-.0992.049-.1967.0902-.2949.1181-.0975.0311-.1956.0464-.2948.0464h-23.40272c-.1092,0-.22-.0179-.3308-.05381-.1107-.03639-.2215-.08019-.3307-.12869-.1107-.049-.2152-.1107-.3133-.1856-.0992-.0723-.1904-.152-.2769-.2395-.086-.0849-.1619-.1778-.2305-.2754-.067-.0981-.1245-.1962-.1736-.29381-.0991-.22149-.1482-.42509-.1482-.60759ZM990.40057,1216.83111h8.1193c.2822,0,.5528-.0543.8102-.16511.2574-.11069.47893-.26529.663-.461.18463-.19569.33123-.42509.44203-.68989.1108-.2632.1662-.54911.1662-.8555v-7.8087c0-.3064-.0554-.5897-.1662-.855-.1108-.2627-.2574-.4948-.44203-.6905-.18407-.1957-.4056-.3528-.663-.4689-.2574-.1181-.528-.1751-.8102-.1751h-8.1193c-.2949,0-.56757.057-.8203.1751-.251.1161-.4684.2732-.653.4689-.1841.1957-.3344.4278-.452.6905-.1155.2653-.1735.5486-.1735.855v7.8087c0,.30639.058.5923.1735.8555.1176.2648.2679.4942.452.68989.1846.19571.402.35031.653.461.25272.11081.5254.16511.8203.16511ZM990.51027,1232.53651h7.8988c.2954,0,.5771-.0564.8476-.1751.2706-.116.50333-.2653.6995-.451.20833-.1957.37183-.4246.48793-.6899.1171-.2627.1751-.5433.1751-.8371v-8.2312c0-.2938-.058-.5717-.1751-.8371-.1161-.2626-.2796-.4947-.48793-.6904-.19617-.18571-.4289-.3349-.6995-.4505-.2705-.116-.5522-.1756-.8476-.1756h-7.8988c-.3065,0-.5924.0596-.8551.1756-.2653.1156-.5011.26479-.7094.4505-.1973.183-.3529.4119-.4705.6799-.1155.2706-.1735.5538-.1735.8476v8.2312c0,.2938.058.5744.1735.8371.1176.2653.2732.4942.4705.6899.2083.1857.4441.335.7094.451.2627.1187.5486.1751.8551.1751Z" fill="#640" stroke-width="0"/>
        <path d="M1034.3239,1201.40111h19.3887c.2331,0,.4478.0438.6451.1287.1957.0876.3745.2084.5343.36819.0733.07491.1429.15721.211.25.067.09231.1197.18781.1572.28591.0364.0849.0696.1825.1007.2933.0306.1107.0464.22679.0464.3502v31.3005c0,.1008-.0095.19309-.0284.2859-.018.0928-.0454.1804-.0823.2679-.0364.085-.0802.1725-.1293.2575-.0485.0849-.1039.15979-.1661.2215-.1466.1704-.3371.3064-.5702.4046-.2205.11069-.4547.1645-.6994.1645h-3.8848c-.0739,0-.1572-.01-.249-.03581-.0923-.02589-.1814-.06179-.2664-.11079-.0749-.0491-.1572-.1081-.25-.1751-.0912-.067-.1682-.1314-.2289-.19311-.1356-.12129-.2463-.26269-.3323-.42249-.0733-.1493-.1097-.2964-.1097-.4431v-11.87541c0-.307-.0617-.60819-.1841-.90139-.0501-.13661-.1171-.268-.2031-.3967-.0854-.1292-.1777-.2421-.2759-.3402-.1107-.1234-.2331-.2368-.3681-.3423-.1356-.10341-.2706-.1857-.4057-.24741-.1471-.06169-.2974-.11339-.4509-.15719-.153-.04381-.3039-.0643-.4505-.0643h-11.7483c-.1097,0-.2268-.0127-.3492-.0359-.1234-.0259-.2331-.0623-.3323-.1108-.2083-.0854-.3924-.2215-.5512-.4046-.0617-.0617-.1197-.13921-.1751-.2315-.0554-.0902-.095-.18571-.1197-.2859-.037-.0981-.0681-.1962-.0924-.29381-.0247-.09809-.0363-.19039-.0363-.27589v-15.5766c0-.12351.0152-.2421.0453-.3603.0306-.116.0707-.22421.1197-.3223.037-.0976.0887-.193.1572-.28591.0665-.09019.144-.17509.2305-.24679.0734-.0749.153-.1393.2379-.1936.0865-.0564.1725-.0949.259-.1208.0976-.0364.1983-.067.3038-.0902.1029-.0258.2047-.0385.3028-.0385ZM1038.2092,1217.08851h11.5268c.1593,0,.3218-.0179.4879-.0543.1662-.0359.3154-.0849.4505-.1466.1482-.0617.2859-.1393.4151-.23161.1287-.09019.2484-.19359.3592-.30429.2199-.2189.3924-.479.5148-.7722.0617-.1472.1108-.3018.1482-.461.0359-.1599.0543-.325.0543-.49751v-7.54859c0-.1703-.0184-.3402-.0543-.5047-.0374-.1678-.0865-.3223-.1482-.4716-.0491-.1466-.1197-.2832-.211-.4146-.0928-.1287-.193-.2474-.3038-.3581-.1108-.1108-.2305-.211-.3592-.3039-.1292-.0928-.2669-.1672-.4151-.2294-.1351-.0617-.2843-.10811-.4505-.1387-.1661-.0312-.3286-.04641-.4879-.04641h-11.5268c-.2938,0-.5707.049-.8281.14661-.1356.0517-.2616.1081-.3777.1751-.1171.0696-.2305.1445-.3412.2321-.1224.1108-.2421.2368-.3577.3761-.1171.1413-.2125.2932-.2858.4504-.0734.1599-.133.3323-.1752.518-.0427.1825-.0643.3735-.0643.5691v7.54859c0,.31971.0617.63351.1841.94.0617.14721.1376.28851.2305.42251.0912.1366.193.2574.3038.3682.2331.2347.4842.4125.7548.5359.1466.049.2996.0955.4594.1366.1599.04379.326.0643.4974.0643Z" fill="#640" stroke-width="0"/>
        <path d="M1083.2746,1236.44081c-.5771,0-1.1025-.059-1.5751-.1751-.4726-.1155-.9056-.2674-1.2981-.4504-.3929-.1957-.7521-.4199-1.0765-.6726-.326-.2521-.6351-.5121-.93-.78271-.3191-.29379-.6118-.63879-.8745-1.03019-.2653-.394-.4879-.7933-.672-1.1979-.1973-.404-.3476-.80591-.452-1.2052-.1045-.3993-.1556-.7469-.1556-1.0402v-21.4701c0-.221.0459-.5095.1376-.865.0929-.3555.2242-.729.3967-1.123.1709-.4046.3914-.8165.662-1.2337.27-.4173.5765-.8034.9204-1.1589.2948-.2832.6235-.55381.9853-.8112.3618-.258.7522-.479,1.1694-.662.4172-.1857.8767-.3323,1.3804-.4431.5037-.1107,1.0428-.1646,1.6214-.1646h11.618c.6014,0,1.1563.0438,1.6663.1288.509.0849.979.20829,1.4089.3681.4288.1598.8344.35819,1.2142.5976.3814.2395.7306.5075,1.0497.8007.3439.3197.6609.67989.9489,1.0766.2875.39929.5359.796.7458,1.18729.1957.40721.3555.80861.4779,1.20791.1234.3993.1841.77009.1841,1.113l.0195,10.4022.0359,10.4054c0,.48949-.0454.9658-.1377,1.4268-.0918.4583-.2242.8988-.3956,1.316-.3439.8218-.8603,1.5893-1.5465,2.3024-.259.268-.5681.5359-.9299.8012-.3629.2627-.7517.4922-1.1694.69-.4057.1962-.8229.3555-1.2528.4794-.4288.1208-.8408.1825-1.2337.1825h-12.943ZM1083.6427,1233.31191h11.5073c.6878,0,1.3134-.1187,1.8778-.3502.577-.2348,1.0866-.6029,1.5286-1.1051.1725-.1957.3254-.4119.461-.644.134-.2342.2511-.4663.3486-.7005.0865-.2448.1572-.4916.2126-.7364.0554-.24471.0823-.4842.0823-.7189v-19.682c0-.3323-.0359-.6514-.1103-.9584-.0738-.30641-.1777-.59441-.3133-.865-.1223-.25741-.2663-.5022-.4325-.7369-.1651-.23151-.3465-.4351-.5433-.6076-.2205-.1957-.4626-.3682-.7263-.5154-.2643-.1466-.5438-.2626-.8387-.3502-.2948-.0849-.6039-.1519-.9294-.2004-.326-.0491-.6662-.07491-1.0212-.07491h-10.5884c-.7363,0-1.4109.10551-2.0254.31171-.3065.1002-.5924.2342-.8561.4067-.2643.1725-.5001.3813-.7084.6261-.1472.17249-.2922.3708-.4331.5976-.1413.2263-.2663.4452-.3771.6541-.0992.2083-.1815.4019-.2484.5791-.0681.1778-.1018.317-.1018.4151v21.1193c0,.085.04.2237.1197.4146.0796.1904.1751.39669.2859.6156.1097.2215.2421.4452.3956.672.1529.2294.3101.4146.47.5617.1956.1852.3977.3529.6076.5075.2089.1545.4352.28589.6815.3966.2326.11029.4905.1978.7722.2648.2822.0696.5834.1034.903.1034Z" fill="#640" stroke-width="0"/>
        <path d="M1125.3185,1230.03311c-.2199,0-.4235-.0358-.6076-.1107-.1841-.0723-.3439-.1778-.4779-.3118-.1482-.1234-.2616-.2705-.3413-.443-.0796-.1725-.1197-.3555-.1197-.5512v-19.8677c0-.1956.0401-.3808.1197-.5533.0797-.1703.1931-.3196.3413-.44041.134-.13659.2938-.24.4779-.31439.1841-.0722.3877-.1107.6076-.1107.2216,0,.4236.0385.6077.1107.1846.07439.3439.1778.4794.31439.1467.12081.2601.27011.3397.44041.0797.1725.1198.3577.1198.5533v19.8677c0,.1957-.0401.3787-.1198.5512-.0796.1725-.193.3196-.3397.443-.1355.134-.2948.2395-.4794.3118-.1841.0749-.3861.1107-.6077.1107ZM1133.1994,1230.03311c-.221,0-.4235-.0358-.6076-.1107-.1841-.0723-.3502-.1778-.4969-.3118-.1355-.1234-.2421-.2705-.3223-.443-.0796-.1725-.1197-.3555-.1197-.5512v-19.8677c0-.1956.0401-.3808.1197-.5533.0802-.1703.1868-.3196.3223-.44041.1467-.13659.3128-.24.4969-.31439.1841-.0722.3866-.1107.6076-.1107.2089,0,.4083.0385.5992.1107.1894.07439.3513.1778.4869.31439.135.12081.2458.27011.3318.44041.0854.1725.1292.3577.1292.5533v19.8677c0,.1957-.0438.3787-.1292.5512-.086.1725-.1968.3196-.3318.443-.1356.134-.2975.2395-.4869.3118-.1909.0749-.3903.1107-.5992.1107ZM1140.988,1218.15721c-.0975,0-.1967-.01-.2948-.028-.0981-.0184-.1904-.039-.2754-.0648-.0865-.0227-.1687-.06441-.2489-.1182-.0797-.057-.1503-.1134-.2121-.1751-.1355-.1108-.24-.2527-.3133-.4252-.0358-.0722-.067-.15191-.0912-.2394-.0259-.0849-.0375-.1778-.0375-.2754v-12.1154c0-.0981.0116-.1904.0375-.2758.0242-.085.0554-.1646.0912-.2395.0733-.1593.1778-.3012.3133-.422.1219-.1239.2764-.2215.461-.29641.1841-.06169.3735-.09289.5702-.09289h7.844c.0976,0,.1931.0106.2859.0285.0913.018.1799.04639.2664.0823.1957.0749.3555.1677.4789.2785.1224.1081.2268.2495.3133.422.085.1725.1287.3428.1287.5153v12.1154c0,.1852-.0437.3577-.1287.5148-.0622.1599-.1661.3012-.3133.4252-.0617.0617-.135.1181-.2215.1751-.086.05379-.1725.0955-.2574.1182-.0865.0258-.1751.0464-.2664.0648-.0928.018-.1883.028-.2859.028h-7.844Z" fill="#640" stroke-width="0"/>
      </g>
    </g>
    <rect x="2019.935" y="1026.65931" width="573.1831" height="2.6373" fill="#640" stroke-width="0"/>
    <g>
      <path d="M2127.1198,1091.34751v-24.1897h10.2545c1.1124,0,2.1415.232,3.0841.6983.941.4658,1.7538,1.0787,2.4353,1.8388.682.7622,1.2153,1.62509,1.602,2.5909.3861.9658.5791,1.9369.5791,2.9127,0,1.0227-.1825,2.0144-.5459,2.9802-.3629.9658-.8746,1.8234-1.5323,2.573-.6593.7495-1.4542,1.3519-2.3852,1.8055-.9321.4557-1.9532.6825-3.0662.6825h-5.7241v8.1078h-4.7013ZM2131.8211,1079.116h5.4514c.8629,0,1.584-.35289,2.1631-1.056.5797-.70309.8693-1.65839.8693-2.86149,0-.6129-.0912-1.1641-.2727-1.6531-.182-.4869-.4214-.90141-.7163-1.2443-.2948-.3397-.6414-.595-1.0391-.7648-.3967-.1725-.7996-.2574-1.209-.2574h-5.2467v7.83709Z" fill="#640" stroke-width="0"/>
      <path d="M2151.2742,1066.47521h4.5662v19.1492c0,.6594.1588,1.1694.4769,1.5323.318.3634.7711.546,1.3624.546.2727,0,.5744-.0459.9025-.1361.3297-.0929.6425-.2063.9379-.3429l.6129,3.4771c-.6129.2938-1.3292.5227-2.1468.6799-.8176.1598-1.5555.2395-2.2138.2395-1.4305,0-2.5382-.3809-3.3225-1.141-.7828-.7621-1.1757-1.8466-1.1757-3.2555v-20.7485Z" fill="#640" stroke-width="0"/>
      <path d="M2173.7949,1091.68711c-1.431,0-2.7264-.2447-3.8842-.7316-1.1589-.4889-2.1468-1.15351-2.9644-1.9933-.8176-.8397-1.4474-1.8155-1.8905-2.9306-.443-1.1129-.6646-2.2823-.6646-3.5082,0-1.2722.2152-2.4696.6467-3.5952.4315-1.123,1.0571-2.112,1.8752-2.9644.8175-.8502,1.8102-1.5275,2.9807-2.027,1.1694-.4995,2.4807-.7496,3.9344-.7496s2.7544.2501,3.9017.7496c1.1461.4995,2.1235,1.172,2.93,2.01119.806.83971,1.4189,1.81611,1.8399,2.92851.4198,1.1151.6298,2.2718.6298,3.4771,0,.2938-.0053.5797-.0164.8497-.0116.2733-.0401.4996-.0855.6826h-13.798c.068.70309.2379,1.3292.5111,1.87509.2717.54331.6235,1.00961,1.056,1.39571.4315.3867.9194.6799,1.4643.8862.5459.2036,1.1124.3064,1.7037.3064.9078,0,1.7654-.2215,2.573-.6646.8059-.4431,1.3561-1.0275,1.652-1.7538l3.9175,1.0897c-.6583,1.3625-1.709,2.4828-3.1511,3.3558-1.4426.87559-3.1627,1.3107-5.1613,1.3107ZM2178.4282,1080.92151c-.1134-1.3392-.6081-2.4132-1.4822-3.2191-.8745-.8065-1.9368-1.2106-3.1859-1.2106-.6134,0-1.1862.10819-1.7206.3244-.5332.2163-1.0043.5175-1.4141.9041-.4083.3861-.7427.8498-1.0043,1.39569-.2616.54591-.4146,1.14621-.46,1.80551h9.2671Z" fill="#640" stroke-width="0"/>
      <path d="M2194.2032,1091.68711c-.8629,0-1.6689-.1413-2.4184-.4246-.7496-.2837-1.3973-.68251-1.9422-1.1926-.5459-.51-.971-1.1077-1.2775-1.7902-.3075-.6799-.461-1.4294-.461-2.2481,0-.8397.1883-1.6177.5628-2.3335.375-.7163.8978-1.3213,1.5671-1.8234.6699-.4974,1.4711-.8915,2.4021-1.17471.931-.28329,1.9532-.42519,3.0662-.42519.7954,0,1.5724.067,2.3346.2036.7595.1367,1.4357.3297,2.027.5797v-1.0227c0-1.17941-.336-2.0888-1.0059-2.7249-.6698-.6362-1.6636-.9553-2.9812-.9553-.9526,0-1.8852.1725-2.793.5127-.9093.3397-1.8403.8392-2.7945,1.4986l-1.3962-2.8948c2.294-1.5223,4.7699-2.2845,7.4268-2.2845,2.5666,0,4.5599.6309,5.9788,1.8905,1.4205,1.2622,2.1305,3.0857,2.1305,5.4704v5.5526c0,.4769.0849.8166.2547,1.0228.1715.2036.4494.31649.8355.3397v3.8843c-.7722.1593-1.4431.2394-2.0101.2394-.864,0-1.5286-.193-1.9933-.5797-.4663-.3861-.7559-.8988-.8693-1.5349l-.1018-.9864c-.796,1.0455-1.7602,1.8388-2.8958,2.3847-1.1362.5438-2.3504.8165-3.6459.8165ZM2195.4987,1088.34931c.7711,0,1.5043-.1366,2.1969-.40931.6926-.27319,1.2322-.63609,1.6188-1.08969.4995-.3861.7495-.8187.7495-1.2955v-2.045c-.5449-.2031-1.1361-.3682-1.7723-.4916-.6361-.1266-1.249-.1883-1.8398-.1883-1.181,0-2.1457.268-2.8953.8012-.7505.5333-1.125,1.20789-1.125,2.0271,0,.7722.2948,1.4136.8856,1.9237.5913.5127,1.3176.7674,2.1816.7674Z" fill="#640" stroke-width="0"/>
      <path d="M2219.0391,1091.68711c-1.4991,0-2.9633-.2368-4.3954-.7157-1.4305-.4769-2.6564-1.1568-3.6791-2.04241l1.7037-2.86149c1.0908.7701,2.1521,1.3572,3.1859,1.7538,1.0328.39669,2.0608.595,3.0831.595.9077,0,1.624-.1698,2.1468-.51.5216-.3397.7827-.8292.7827-1.4654,0-.6361-.3064-1.1024-.9193-1.3962-.613-.2959-1.6136-.6361-2.9982-1.0222-1.1588-.3196-2.1462-.6261-2.9643-.9194-.8176-.2964-1.477-.6308-1.9765-1.0069-.4995-.3735-.8629-.8039-1.0897-1.2934-.2279-.4889-.3413-1.0739-.3413-1.75381,0-.90879.1767-1.728.528-2.45429.3529-.7263.8461-1.3445,1.4822-1.8572.6361-.5096,1.3809-.90151,2.2317-1.1742.8529-.2732,1.777-.4098,2.7766-.4098,1.3408,0,2.5946.1936,3.7656.5797,1.1689.3866,2.2433,1.0096,3.2191,1.8725l-1.8403,2.7608c-.9078-.6826-1.7886-1.1821-2.6395-1.4986-.8513-.3196-1.6989-.4768-2.5381-.4768-.7728,0-1.4205.1572-1.9422.4768-.5227.3165-.7843.8292-.7843,1.5323,0,.3191.0633.5792.1883.78279.1245.20621.3228.38661.596.54591.2727.1598.6298.3117,1.0729.461.4425.1472.9938.3017,1.652.4584,1.2275.3196,2.2782.6366,3.1522.9558.8745.317,1.5892.67989,2.1468,1.0892.5565.4098.9647.8809,1.2263,1.4141.2611.5333.3914,1.1747.3914,1.9242,0,1.7512-.6467,3.129-1.9421,4.1412-1.2944,1.0096-3.0546,1.5143-5.281,1.5143Z" fill="#640" stroke-width="0"/>
      <path d="M2240.9132,1091.68711c-1.431,0-2.7265-.2447-3.8843-.7316-1.1588-.4889-2.1468-1.15351-2.9644-1.9933-.8175-.8397-1.4473-1.8155-1.8904-2.9306-.4431-1.1129-.6646-2.2823-.6646-3.5082,0-1.2722.2152-2.4696.6467-3.5952.4314-1.123,1.057-2.112,1.8751-2.9644.8176-.8502,1.8103-1.5275,2.9813-2.027,1.1688-.4995,2.4801-.7496,3.9338-.7496s2.7545.2501,3.9022.7496c1.1457.4995,2.1231,1.172,2.9296,2.01119.806.83971,1.4189,1.81611,1.8403,2.92851.4194,1.1151.6293,2.2718.6293,3.4771,0,.2938-.0048.5797-.0164.8497-.0116.2733-.04.4996-.0854.6826h-13.7981c.0681.70309.2379,1.3292.5112,1.87509.2716.54331.6234,1.00961,1.056,1.39571.4314.3867.9193.6799,1.4642.8862.5459.2036,1.1124.3064,1.7037.3064.9078,0,1.7655-.2215,2.573-.6646.806-.4431,1.3561-1.0275,1.6521-1.7538l3.9175,1.0897c-.6583,1.3625-1.709,2.4828-3.1511,3.3558-1.4427.87559-3.1627,1.3107-5.1613,1.3107ZM2245.5465,1080.92151c-.1134-1.3392-.6082-2.4132-1.4822-3.2191-.8746-.8065-1.9369-1.2106-3.1859-1.2106-.6129,0-1.1863.10819-1.7206.3244-.5333.2163-1.0043.5175-1.4142.9041-.4082.3861-.7426.8498-1.0043,1.39569-.2616.54591-.4146,1.14621-.4599,1.80551h9.2671Z" fill="#640" stroke-width="0"/>
      <path d="M2282.8865,1073.49371c-.1583-.1572-.4484-.3734-.8693-.64671-.4198-.27269-.931-.538-1.5323-.80069-.6029-.26-1.2559-.4815-1.959-.6646-.7042-.1804-1.4205-.27271-2.1468-.27271-1.2955,0-2.2597.23951-2.8958.71581s-.9542,1.1488-.9542,2.01119c0,.50011.1198.91471.3576,1.24171.2385.3297.585.6208,1.0392.87029.4546.25,1.028.47681,1.7206.67991.6931.2063,1.4937.4225,2.4015.6493,1.181.3165,2.2549.6594,3.2197,1.0196.9658.3661,1.7834.81919,2.4532,1.3651.6694.5438,1.1874,1.1979,1.5503,1.9575.3634.7627.5448,1.7.5448,2.8124,0,1.2928-.2431,2.4005-.7316,3.3199-.4889.922-1.1472,1.66629-1.9764,2.23329-.8297.56651-1.7839.98111-2.8615,1.24381-1.0792.26-2.2101.3914-3.3906.3914-1.8171,0-3.611-.2727-5.3828-.8187-1.7723-.5438-3.3626-1.31651-4.7699-2.3156l2.0783-4.0541c.2046.2036.5728.4716,1.1076.7986.5328.3297,1.1626.6593,1.8905.989.7263.3297,1.5333.6077,2.4195.8345.8845.2268,1.7939.3402,2.7249.3402,2.5899,0,3.8837-.82711,3.8837-2.4854,0-.5233-.1477-.9658-.4425-1.3293-.2954-.3629-.7147-.6825-1.2612-.9531-.5443-.2727-1.2037-.5227-1.9754-.7516-.7727-.2269-1.6351-.4769-2.5893-.7496-1.1578-.317-2.1637-.6646-3.015-1.038-.8524-.37611-1.5618-.8166-2.1299-1.3293-.5676-.5095-.9943-1.10181-1.2776-1.7717-.2843-.6694-.4261-1.4706-.4261-2.4005,0-1.2285.2268-2.3177.6814-3.2709.4547-.9552,1.0856-1.7485,1.8915-2.3846.806-.6362,1.7423-1.1204,2.8114-1.45011,1.0661-.327,2.2133-.49209,3.4407-.49209,1.7037,0,3.2709.2653,4.7019.8012,1.4305.5328,2.6795,1.1642,3.7471,1.8905l-2.0782,3.8141Z" fill="#640" stroke-width="0"/>
      <path d="M2292.3245,1071.00831v-4.5331h4.5652v4.5331h-4.5652ZM2292.3245,1091.34751v-17.8538h4.5652v17.8538h-4.5652Z" fill="#640" stroke-width="0"/>
      <path d="M2311.4041,1091.45031c-1.2053,0-2.295-.2395-3.2709-.7158-.9774-.4768-1.8234-1.1309-2.5381-1.96-.7163-.8297-1.2675-1.7876-1.6537-2.87951-.3866-1.08969-.5781-2.24859-.5781-3.47439,0-1.2955.2031-2.4981.613-3.6111.4082-1.1124.9758-2.0887,1.7037-2.9306.7263-.8397,1.6003-1.499,2.6231-1.97591,1.0222-.47629,2.1468-.71579,3.3726-.71579,1.3857,0,2.6015.3144,3.6453.9374,1.0444.6261,1.909,1.4605,2.5899,2.5033v-3.1342h3.9856v17.0008c0,1.3187-.2495,2.4987-.7496,3.5441-.4995,1.046-1.1873,1.9316-2.0603,2.6579-.8756.7263-1.9199,1.2828-3.1342,1.6689-1.2158.3867-2.5381.5797-3.9702.5797-1.9538,0-3.5942-.3244-4.9234-.97111-1.3287-.64609-2.4696-1.56339-3.4238-2.74279l2.4881-2.4184c.6809.8397,1.5375,1.499,2.5714,1.9753,1.0338.4763,2.1299.7163,3.2877.7163.7041,0,1.3804-.0981,2.0281-.2911.6467-.1931,1.2195-.4922,1.7206-.9015.4984-.40981.8909-.9325,1.1741-1.5687.2849-.63611.4268-1.3856.4268-2.2486v-2.248c-.5913,1.0222-1.4195,1.8129-2.4871,2.3694-1.0686.5564-2.2148.8344-3.4406.8344ZM2312.9364,1087.80341c.4995,0,.9763-.0796,1.4305-.2368.4546-.1599.8745-.3761,1.2611-.6493.3861-.2728.7264-.5898,1.0223-.9527.2948-.3634.5216-.7495.6815-1.1593v-4.2572c-.4083-1.0455-1.0513-1.8852-1.9253-2.5213-.8745-.6362-1.7886-.95581-2.7434-.95581-.7031,0-1.3392.15451-1.9068.461-.568.30651-1.056.71631-1.4658,1.22581-.4083.5127-.721,1.0977-.9363,1.7544-.2162.6593-.3243,1.3419-.3243,2.045,0,.7263.125,1.4089.375,2.045.2495.6361.596,1.1921,1.0391,1.6689.4431.4763.9595.8524,1.5502,1.123.5913.2727,1.238.4093,1.9422.4093Z" fill="#640" stroke-width="0"/>
      <path d="M2346.0176,1091.34751h-4.5647v-10.0167c0-1.4315-.25-2.47481-.7495-3.1342-.5001-.6593-1.1926-.989-2.0788-.989-.4547,0-.9194.0928-1.3957.2732-.4779.1825-.9262.4378-1.3471.7675-.4199.32969-.7997.7211-1.1409,1.1742-.3403.4562-.5913.9531-.7496,1.499v10.426h-4.5652v-17.8538h4.1221v3.3046c.6594-1.1335,1.6125-2.0192,2.8626-2.6558,1.248-.6361,2.6569-.9553,4.224-.9553,1.1129,0,2.0218.2063,2.7265.613.7031.4093,1.249.9426,1.6351,1.6019.3851.6593.653,1.40889.7997,2.2486.1482.8424.2215,1.6921.2215,2.555v11.1418Z" fill="#640" stroke-width="0"/>
      <path d="M2371.2643,1067.15781h4.157l9.1985,24.1897h-4.8379l-2.2486-6.02951h-8.449l-2.2148,6.02951h-4.8385l9.2333-24.1897ZM2376.682,1082.01071l-3.3394-9.5034-3.4755,9.5034h6.8149Z" fill="#640" stroke-width="0"/>
      <path d="M2400.3938,1091.68711c-1.3625,0-2.5783-.3064-3.6459-.9193s-1.9073-1.4527-2.5213-2.5213v3.101h-3.9855v-24.8723h4.5647v10.1527c.6361-1.0892,1.4706-1.9342,2.5049-2.5366,1.0328-.6029,2.2418-.9041,3.6274-.9041,1.1594,0,2.2154.2501,3.1696.7496s1.777,1.172,2.4696,2.01119c.6931.83971,1.2264,1.82881,1.6009,2.96441.3745,1.1362.5628,2.3288.5628,3.5778,0,1.29279-.21,2.4981-.6298,3.6105-.4209,1.113-1.0059,2.0841-1.7554,2.9132-.7496.8292-1.6352,1.4806-2.6579,1.9575-1.0212.4789-2.1236.7157-3.3041.7157ZM2399.1331,1087.80341c.7258,0,1.3968-.1419,2.0102-.4251.6129-.28331,1.1357-.6647,1.5671-1.141.4315-.47631.7659-1.0327,1.0059-1.6689.2379-.6361.3566-1.3186.3566-2.045,0-.7263-.1134-1.4189-.3402-2.0782-.2279-.6593-.5512-1.239-.9711-1.7385-.4209-.4995-.9141-.8962-1.4822-1.1926-.5675-.2938-1.1921-.44311-1.8736-.44311-1.0222,0-1.9368.33491-2.7428,1.00691-.806.6699-1.4257,1.4917-1.8572,2.4702v4.2572c.1588.4562.3919.8629.6984,1.2263.3075.3656.6524.6773,1.0391.9373.3861.2627.8059.4663,1.2606.613.4547.1492.8978.2215,1.3292.2215Z" fill="#640" stroke-width="0"/>
      <path d="M2423.4922,1091.68711c-1.4537,0-2.7598-.2494-3.9175-.7495-1.1589-.4995-2.1416-1.1741-2.9475-2.0265-.806-.8529-1.4258-1.834-1.8567-2.9465-.4315-1.1129-.6467-2.2823-.6467-3.5108,0-1.249.2152-2.4285.6467-3.5414.4309-1.11241,1.0507-2.0962,1.8567-2.9486.8059-.8502,1.7886-1.5275,2.9475-2.027,1.1577-.4995,2.4638-.7496,3.9175-.7496,1.4542,0,2.7544.2501,3.9022.7496,1.1456.4995,2.1236,1.1768,2.9295,2.027.806.8524,1.4253,1.83619,1.8567,2.9486.4315,1.1129.6478,2.2924.6478,3.5414,0,1.2285-.2163,2.3979-.6478,3.5108-.4314,1.1125-1.0444,2.0936-1.8398,2.9465-.7949.8524-1.7707,1.527-2.9301,2.0265-1.1588.5001-2.4643.7495-3.9185.7495ZM2418.8256,1082.45381c0,.796.1182,1.517.3577,2.1637.2384.6488.5665,1.21049.9879,1.6868.4199.4763.9141.84769,1.4822,1.10769.5665.26271,1.181.39141,1.8388.39141.6593,0,1.2722-.1287,1.8403-.39141.5681-.26,1.0613-.63139,1.4822-1.10769.4199-.47631.7495-1.0428.9879-1.7021.2379-.6593.3577-1.3857.3577-2.1816,0-.7728-.1198-1.4864-.3577-2.1458-.2384-.6593-.568-1.22581-.9879-1.7047-.4209-.4763-.9141-.845-1.4822-1.1077-.5681-.2601-1.181-.39141-1.8403-.39141-.6578,0-1.2723.13661-1.8388.40981-.5681.2727-1.0623.64619-1.4822,1.1251-.4214.4769-.7495,1.0434-.9879,1.7027-.2395.6593-.3577,1.3751-.3577,2.1452Z" fill="#640" stroke-width="0"/>
      <path d="M2443.4579,1091.34751l-6.5754-17.8538h4.7013l4.532,14.1399,4.5652-14.1399h4.2931l-6.5754,17.8538h-4.9408Z" fill="#640" stroke-width="0"/>
      <path d="M2468.4325,1091.68711c-1.4305,0-2.726-.2447-3.8838-.7316-1.1588-.4889-2.1468-1.15351-2.9644-1.9933-.8175-.8397-1.4473-1.8155-1.8904-2.9306-.4431-1.1129-.6646-2.2823-.6646-3.5082,0-1.2722.2152-2.4696.6467-3.5952.4314-1.123,1.057-2.112,1.8746-2.9644.8181-.8502,1.8108-1.5275,2.9812-2.027,1.1694-.4995,2.4807-.7496,3.9344-.7496s2.7545.2501,3.9017.7496c1.1462.4995,2.1236,1.172,2.9301,2.01119.806.83971,1.4189,1.81611,1.8398,2.92851.4199,1.1151.6298,2.2718.6298,3.4771,0,.2938-.0053.5797-.0169.8497-.0116.2733-.0395.4996-.0849.6826h-13.798c.068.70309.2378,1.3292.5111,1.87509.2716.54331.6229,1.00961,1.056,1.39571.4314.3867.9193.6799,1.4642.8862.546.2036,1.1125.3064,1.7037.3064.9078,0,1.7655-.2215,2.573-.6646.806-.4431,1.3556-1.0275,1.6521-1.7538l3.9175,1.0897c-.6583,1.3625-1.709,2.4828-3.1511,3.3558-1.4426.87559-3.1633,1.3107-5.1618,1.3107ZM2473.0663,1080.92151c-.1134-1.3392-.6082-2.4132-1.4827-3.2191-.874-.8065-1.9364-1.2106-3.1859-1.2106-.613,0-1.1858.10819-1.7201.3244-.5333.2163-1.0048.5175-1.4142.9041-.4082.3861-.7432.8498-1.0043,1.39569-.2616.54591-.4145,1.14621-.4599,1.80551h9.2671Z" fill="#640" stroke-width="0"/>
    </g>
    <g>
      <g>
        <path d="M504.65439,362.8497c0,1.9243-.3978,3.5953-1.1911,5.0173-.79429,1.4189-1.8799,2.601-3.2592,3.5414-1.3793.94-2.9876,1.651-4.8263,2.13-1.8393.4815-3.7825.721-5.8301.721h-21.6885v-44.5051h24.7599c1.5455,0,2.9464.3349,4.2008,1.0016,1.2527.6699,2.3192,1.5376,3.1964,2.6015.87671,1.066,1.5566,2.2792,2.0371,3.6369.48,1.3572.7211,2.7476.7211,4.167,0,2.1326-.5333,4.139-1.5983,6.0189-1.066,1.8799-2.66419,3.302-4.7957,4.2625,2.5487.7522,4.5652,2.0888,6.049,4.013,1.4832,1.921,2.2249,4.3859,2.2249,7.394ZM478.13959,338.5292v9.2149h10.092c1.1283,0,2.1315-.3761,3.0082-1.1277.87821-.7522,1.3176-1.9216,1.3176-3.5109,0-1.4626-.3877-2.5909-1.16039-3.3842-.77381-.7928-1.70381-1.1921-2.78931-1.1921h-10.4681ZM494.18619,360.7815c0-1.3777-.3977-2.5471-1.191-3.5103-.7944-.9605-1.7966-1.4399-3.00819-1.4399h-11.84741v9.7149h11.4081c1.3371,0,2.4442-.4378,3.3225-1.3161.8772-.8782,1.316-2.027,1.316-3.4486Z" fill="#640" stroke-width="0"/>
        <path d="M535.05609,329.7543h9.2771l16.2349,44.5051h-10.5314l-3.4475-9.9676h-13.8524l-3.3853,9.9676h-10.53149l16.23609-44.5051ZM544.897,357.2095l-5.20241-15.7338-5.3285,15.7338h10.53091Z" fill="#640" stroke-width="0"/>
        <path d="M588.39949,348.8106v25.4488h-10.2804v-44.5051h8.02391l20.74738,26.1392v-26.1392h10.2798v44.5051h-8.2738l-20.4969-25.4488Z" fill="#640" stroke-width="0"/>
        <path d="M638.85918,374.2594v-44.5051h10.27982v19.1798l16.29828-19.1798h11.5331l-16.6738,19.8702,17.802,24.6349h-11.7214l-12.5996-17.9281-4.63858,4.8263v13.1018h-10.27982Z" fill="#640" stroke-width="0"/>
        <path d="M730.31218,340.2857v33.9737h-5.6418v-44.5051h4.3885l27.5803,34.6641v-34.6024h5.64182v44.4434h-4.76362l-27.2052-33.9737Z" fill="#640" stroke-width="0"/>
        <path d="M799.64158,329.7543h4.7636l18.1781,44.5051h-6.0179l-5.2657-13.0374h-18.6792l-5.20248,13.0374h-6.01782l18.2414-44.5051ZM810.047,356.8334l-8.02442-20.5607-8.2739,20.5607h16.29832Z" fill="#640" stroke-width="0"/>
        <path d="M880.18868,374.2594v-34.4141l-14.7939,26.3913h-3.196l-14.8572-26.3913v34.4141h-5.6418v-44.5051h5.95622l16.10988,28.8973,16.1717-28.8973h5.8929v44.5051h-5.6418Z" fill="#640" stroke-width="0"/>
        <path d="M939.86378,369.2448v5.0146h-30.215v-44.5051h29.6496v5.0146h-24.0078v14.4178h20.8746v4.7003h-20.8746v15.3578h24.5732Z" fill="#640" stroke-width="0"/>
      </g>
      <polygon points="418.73609 367.877 398.84949 347.9915 378.96229 367.877 371.50339 360.4186 398.84949 333.0715 426.195 360.4186 418.73609 367.877" fill="#640" stroke-width="0"/>
    </g>
  </g>
</svg>