<?xml version="1.0" encoding="utf-8"?>
<!-- Generator: Adobe Illustrator 28.1.0, SVG Export Plug-In . SVG Version: 6.00 Build 0)  -->
<svg version="1.1" id="Layer_1" xmlns="http://www.w3.org/2000/svg" xmlns:xlink="http://www.w3.org/1999/xlink" x="0px" y="0px"
	 viewBox="0 0 448.5 199.8" style="enable-background:new 0 0 448.5 199.8;" xml:space="preserve">
<style type="text/css">
	.st0{clip-path:url(#SVGID_00000137820137487325304790000003995778744570626479_);}
	.st1{clip-path:url(#SVGID_00000162315905537410634330000015491116779180063365_);}
	.st2{fill:url(#SVGID_00000021809073153856098370000010577447042819138481_);}
	.st3{fill:url(#SVGID_00000069371577614888443700000013224051784439068057_);}
	.st4{opacity:0.9;fill:url(#SVGID_00000015344298083912523970000012091834401437810572_);enable-background:new    ;}
	.st5{fill:url(#SVGID_00000011005697416859942770000013211366975566011017_);}
	.st6{opacity:0.5;fill:url(#SVGID_00000011729231931018514530000006215175227826017419_);enable-background:new    ;}
	.st7{opacity:0.51;}
</style>
<g>
	<defs>
		<rect id="SVGID_1_" y="0.5" width="448" height="199.3"/>
	</defs>
	<clipPath id="SVGID_00000118388518010153366120000005752402648435774082_">
		<use xlink:href="#SVGID_1_"  style="overflow:visible;"/>
	</clipPath>
	<g style="clip-path:url(#SVGID_00000118388518010153366120000005752402648435774082_);">
		<g>
			<defs>
				<rect id="SVGID_00000097485643146984183630000013650277805761610371_" width="448.5" height="199.8"/>
			</defs>
			<clipPath id="SVGID_00000089566862720984179360000012559527420325901734_">
				<use xlink:href="#SVGID_00000097485643146984183630000013650277805761610371_"  style="overflow:visible;"/>
			</clipPath>
			<g style="clip-path:url(#SVGID_00000089566862720984179360000012559527420325901734_);">
				
					<linearGradient id="SVGID_00000062187118667719725040000010912659288461983123_" gradientUnits="userSpaceOnUse" x1="-89.4056" y1="384.5397" x2="514.6285" y2="-167.2416" gradientTransform="matrix(1 0 0 1 0 1.6725)">
					<stop  offset="0.1133" style="stop-color:#FEFEFE"/>
					<stop  offset="0.1491" style="stop-color:#FAFBFB"/>
					<stop  offset="0.5059" style="stop-color:#D9DDE1"/>
					<stop  offset="0.8023" style="stop-color:#C4CBD2"/>
					<stop  offset="1" style="stop-color:#BDC4CC"/>
				</linearGradient>
				<rect style="fill:url(#SVGID_00000062187118667719725040000010912659288461983123_);" width="448" height="199.8"/>
				
					<linearGradient id="SVGID_00000113328472247582798670000001893443715370007445_" gradientUnits="userSpaceOnUse" x1="78.7926" y1="-31.9905" x2="422.2886" y2="278.2644" gradientTransform="matrix(1 0 0 1 0 1.6725)">
					<stop  offset="0.1133" style="stop-color:#FEFEFE"/>
					<stop  offset="0.3167" style="stop-color:#F5F6F7"/>
					<stop  offset="0.6427" style="stop-color:#DEE1E5"/>
					<stop  offset="1" style="stop-color:#BDC4CC"/>
				</linearGradient>
				<path style="fill:url(#SVGID_00000113328472247582798670000001893443715370007445_);" d="M0,180.6v19.2
					c63.6-12.9,193.1-36,263.4-100.1c46.1-42,171.2-78.5,185.1-97.5l-235-1.1C154.3,102.3,55.9,156.5,0,180.6z"/>
				
					<linearGradient id="SVGID_00000015326399219649008790000008059517240938944163_" gradientUnits="userSpaceOnUse" x1="207.9545" y1="51.3801" x2="268.6823" y2="228.7536" gradientTransform="matrix(1 0 0 1 0 1.6725)">
					<stop  offset="0.1133" style="stop-color:#FEFEFE"/>
					<stop  offset="0.4272" style="stop-color:#E2E5E8"/>
					<stop  offset="0.7872" style="stop-color:#C7CDD4"/>
					<stop  offset="1" style="stop-color:#BDC4CC"/>
				</linearGradient>
				
					<path style="opacity:0.9;fill:url(#SVGID_00000015326399219649008790000008059517240938944163_);enable-background:new    ;" d="
					M448,122V0h-79.8C315.9,61.7,67.4,172.9,0.9,175.1L0,199.8C162.5,167.3,350.2,119.8,448,122z"/>
				
					<linearGradient id="SVGID_00000139262333342815288960000001532459477831490228_" gradientUnits="userSpaceOnUse" x1="410.2782" y1="235.382" x2="224.5109" y2="82.172" gradientTransform="matrix(1 0 0 1 0 1.6725)">
					<stop  offset="0" style="stop-color:#FFFFFF"/>
					<stop  offset="1" style="stop-color:#FFFFFF;stop-opacity:0"/>
				</linearGradient>
				<path style="fill:url(#SVGID_00000139262333342815288960000001532459477831490228_);" d="M447.9,2
					C418.9,36.6,278.6,155.9,40.3,199.8L0,140.8c15.7-4.5,31.9-8.9,47.5-13.4c59.6-17.1,112.6-38,157-61.5
					c18.5-9.8,35.6-20.2,46.6-31.9c3.8-4,6.8-8.2,9.2-12.3l115.5-10.9c-5.1,2.7-9.7,5.6-14,8.6C347.5,29.3,457.2-9,447.9,2L447.9,2z
					"/>
				
					<linearGradient id="SVGID_00000081638373211085801380000014196491279029056917_" gradientUnits="userSpaceOnUse" x1="212.407" y1="106.8722" x2="256.881" y2="198.8876" gradientTransform="matrix(1 0 0 1 0 1.6725)">
					<stop  offset="0" style="stop-color:#FFFFFF"/>
					<stop  offset="0.8542" style="stop-color:#FFFFFF;stop-opacity:0.1458"/>
					<stop  offset="1" style="stop-color:#FFFFFF;stop-opacity:0"/>
				</linearGradient>
				
					<path style="opacity:0.5;fill:url(#SVGID_00000081638373211085801380000014196491279029056917_);enable-background:new    ;" d="
					M437.5,142.5c-138.7-18.4-212-3.1-279.7,10.2c-99.9,19.6-130.7,35.4-147.1,47.1L0,183.6c54.6-47.8,203.2-90,249.8-105.7
					c51.6-17.4,98.5-43.8,136.8-76.6l31.3,18C392.2,50.1,477.8,147.9,437.5,142.5z"/>
			</g>
		</g>
	</g>
</g>
<g id="Layer_5_Image">
	
		<image style="overflow:visible;enable-background:new    ;" width="1014" height="959" id="Layer_5_Image-2" xlink:href="78316CA.png"  transform="matrix(0.1531 0 0 0.1058 250.5323 87.7427)">
	</image>
</g>
<g id="Layer_5_copy_Image">
	
		<image style="overflow:visible;enable-background:new    ;" width="916" height="865" id="Layer_5_copy_Image-2" xlink:href="78316CE.png"  transform="matrix(0.1531 0 0 0.1058 258.0232 92.7081)">
	</image>
</g>
<g id="Layer_6_copy_2_Image">
	
		<image style="overflow:visible;enable-background:new    ;" width="1665" height="1316" id="Layer_6_copy_2_Image-2" xlink:href="78316C9.png"  transform="matrix(0.153 0 0 0.1058 2.6672 56.9364)">
	</image>
</g>
<g id="Layer_6_copy_Image">
	
		<image style="overflow:visible;enable-background:new    ;" width="1473" height="1130" id="Layer_6_copy_Image-2" xlink:href="78316CB.png"  transform="matrix(0.1529 0 0 0.1057 17.4506 67.0848)">
	</image>
</g>
<g id="Layer_2_copy_Image">
	
		<image style="overflow:visible;enable-background:new    ;" width="1123" height="1390" id="Layer_2_copy_Image-2" xlink:href="78316C8.png"  transform="matrix(0.1306 0 0 0.1219 280.2805 26.6357)">
	</image>
</g>
<g id="Layer_2_copy_3_Image">
	
		<image style="overflow:visible;enable-background:new    ;" width="1030" height="1296" id="Layer_2_copy_3_Image-2" xlink:href="78316D6.png"  transform="matrix(0.1283 0 0 0.1218 287.2865 32.5269)">
	</image>
</g>
<g id="Layer_2_Image" class="st7">
	
		<image style="overflow:visible;enable-background:new    ;" width="1030" height="1296" id="Layer_2_Image-2" xlink:href="78316D9.png"  transform="matrix(0.1283 0 0 0.1218 287.2865 32.5269)">
	</image>
</g>
</svg>
