<?xml version="1.0" encoding="UTF-8"?><svg id="Layer_1" xmlns="http://www.w3.org/2000/svg" xmlns:xlink="http://www.w3.org/1999/xlink" viewBox="0 0 160 50"><defs><clipPath id="clippath"><rect width="160" height="50" fill="none" stroke-width="0"/></clipPath><clipPath id="clippath-1"><rect x="-40" y="-12.81407" width="240" height="62.81407" fill="none" stroke-width="0"/></clipPath><linearGradient id="linear-gradient" x1="-67.92726" y1="-83.45371" x2="178.62998" y2="141.77477" gradientTransform="translate(0 52) scale(1 -1)" gradientUnits="userSpaceOnUse"><stop offset=".1133" stop-color="#fefefe"/><stop offset=".1491" stop-color="#fafbfb"/><stop offset=".5059" stop-color="#d9dde1"/><stop offset=".8023" stop-color="#c4cbd2"/><stop offset="1" stop-color="#bdc4cc"/></linearGradient><linearGradient id="linear-gradient-2" x1="18.20705" y1="84.49155" x2="155.46897" y2="-39.4871" gradientTransform="translate(0 52) scale(1 -1)" gradientUnits="userSpaceOnUse"><stop offset=".1133" stop-color="#fefefe"/><stop offset=".3167" stop-color="#f5f6f7"/><stop offset=".6427" stop-color="#dee1e5"/><stop offset="1" stop-color="#bdc4cc"/></linearGradient><linearGradient id="linear-gradient-3" x1="73.8942" y1="46.25225" x2="100.25766" y2="-30.75003" gradientTransform="translate(0 52) scale(1 -1)" gradientUnits="userSpaceOnUse"><stop offset=".1133" stop-color="#fefefe"/><stop offset=".4272" stop-color="#e2e5e8"/><stop offset=".7872" stop-color="#c7cdd4"/><stop offset="1" stop-color="#bdc4cc"/></linearGradient><linearGradient id="linear-gradient-4" x1="83.83384" y1="6.51304" x2="41.58862" y2="41.35441" gradientTransform="translate(0 52) scale(1 -1)" gradientUnits="userSpaceOnUse"><stop offset="0" stop-color="#fff"/><stop offset="1" stop-color="#fff" stop-opacity="0"/></linearGradient><linearGradient id="linear-gradient-5" x1="96.19493" y1="37.32453" x2="126.44658" y2="-25.26515" gradientTransform="translate(0 52) scale(1 -1)" gradientUnits="userSpaceOnUse"><stop offset="0" stop-color="#fff"/><stop offset=".8542" stop-color="#fff" stop-opacity=".1458"/><stop offset="1" stop-color="#fff" stop-opacity="0"/></linearGradient></defs><g clip-path="url(#clippath)"><g clip-path="url(#clippath-1)"><rect x="-40" y="-12.81407" width="200" height="62.81407" fill="url(#linear-gradient)" stroke-width="0"/><path d="M0,37.09799v4.30904c21.41366-2.90201,65.01205-8.07789,88.6747-22.43719,15.53414-9.42211,57.65462-17.6005,62.32932-21.85929l-79.13253-.25126C51.93574,19.53518,18.82731,31.69598,0,37.09799Z" fill="url(#linear-gradient-2)" stroke-width="0"/><path d="M200,28.20352V-12.81407h-43.06827C128.6747,7.91457-5.51004,45.30151-41.44578,46.03015l-.48193,8.31658c87.75903-10.92964,189.14057-26.90955,241.92771-26.14321Z" fill="url(#linear-gradient-3)" isolation="isolate" opacity=".9" stroke-width="0"/><path d="M93.49398-9.29648C86.76305-.89196,54.29719,28.1407-.86747,38.83166l-9.31727-14.37186c3.63052-1.10553,7.38956-2.1608,10.98795-3.25377,13.7992-4.17085,26.07229-9.23367,36.33735-14.96231,4.27309-2.38693,8.24096-4.92462,10.77911-7.75126.88353-.9799,1.5743-1.98492,2.13654-3.00251l26.73093-2.66332c-1.17269.66583-2.249,1.35678-3.22892,2.08543-3.30924,2.43719,22.08836-6.89699,19.93574-4.20854Z" fill="url(#linear-gradient-4)" stroke-width="0"/><path d="M245.14056,39.57286c-87.5502-5.65327-133.7992-.94221-176.54618,3.1407C5.54217,48.73116-13.87952,53.56784-24.25703,57.1608l-6.74699-4.98744C3.48594,37.52513,97.25302,24.5603,126.65061,19.74874c32.57831-5.32663,62.15261-13.42965,86.37752-23.50503l19.74296,5.51508c-16.19278,9.47236,37.83133,39.4598,12.36948,37.81407Z" fill="url(#linear-gradient-5)" isolation="isolate" opacity=".5" stroke-width="0"/></g></g><path d="M3.78911,19.96213h4.61719c2.25781,0,3.92969.62756,5.01562,1.88269,1.61719,1.85442,2.42578,4.76044,2.42578,8.71806,0,4.10461-.70703,7.07282-2.12109,8.90534-.64062.82545-1.35742,1.40778-2.15039,1.747s-1.8457.50884-3.1582.50884H3.43755l1.60547-1.78093v-18.03047l-1.25391-1.95054ZM4.16411,43.11488l-.17578-.45795h4.28906c2.10938,0,3.71094-.42403,4.80469-1.27209,2.35156-1.80919,3.52734-5.30956,3.52734-10.49969,0-3.47139-.52734-6.0495-1.58203-7.73431l-.46875-.74629c-.01562-.02261-.0625-.10177-.14062-.23746,1.65625,1.50389,2.48438,4.38164,2.48438,8.63325,0,4.46645-.82031,7.75763-2.46094,9.87213-1.25781,1.62828-3.3125,2.44241-6.16406,2.44241h-4.11328ZM7.3399,21.38687v19.03118h.64453v-17.91174c.40625-.09046.77734-.13569,1.11328-.13569.64062,0,1.14648.09329,1.51758.27986s.74414.52862,1.11914,1.02615c-.82812-.56537-1.71484-.84806-2.66016-.84806-.20312,0-.46875.02261-.79688.06784v17.52163c.875,0,1.53906-.10459,1.99219-.31378s.88281-.61343,1.28906-1.21273c1.13281-1.6629,1.69922-4.45585,1.69922-8.37954,0-3.83323-.61328-6.45091-1.83984-7.85304-.74219-.84806-1.91797-1.27209-3.52734-1.27209h-.55078Z" fill="#1f3fff" stroke-width="0"/><path d="M33.03374,11.14174l-.1875.21294c-.79688.93394-1.42969,2.00611-1.89844,3.2165-.07812-.17185-.13672-.29886-.17578-.38105-.42969-.89659-.89062-1.47563-1.38281-1.73714s-1.375-.39226-2.64844-.39226c-.58594,0-1.28906.01868-2.10938.05604v5.15537h.75v-4.56138c.59375-.0523,1.16016-.07845,1.69922-.07845.99219,0,1.72266.10087,2.19141.3026s.88672.59399,1.25391,1.17677c-.10938-.07472-.1875-.13075-.23438-.16811-.63281-.47818-1.08984-.7621-1.37109-.85176s-.83594-.13449-1.66406-.13449c-.25,0-.69531.01494-1.33594.04483l-.24609.01121v4.25878h2.15625l1.51172-1.9837v4.83036l-1.51172-1.87162h-3.19922v6.28778h.75v-5.76103h2.54297l.30469.29139h-2.55469v5.46964c1.59375,0,2.72656-.10834,3.39844-.32501s1.19922-.64255,1.58203-1.2781l.62109-1.01987c.02344-.04483.07031-.12702.14062-.24656.20312.82187.45508,1.47937.75586,1.97296.30078.49312.79883,1.06843,1.49414,1.72593h-13.13672l1.78125-1.30005v-4.99893c-.65625.07472-1.25.26898-1.78125.58278l-.16406-.23535c.47656-.32875,1.125-.54169,1.94531-.63882v-.52674c-.13281-.01494-.22656-.02241-.28125-.02241-.79688,0-1.52344.28018-2.17969.84055.35938-1.19545,1.17969-1.79317,2.46094-1.79317v-4.78553l-1.78125-1.34488h12.50391ZM35.00249,25.43154l-.60938,1.00866h-12.79688l-.1875-.3026h12.83203l.39844-.70606c-1.125-.99372-1.91797-2.05468-2.37891-3.18335l.375.13449c.42969.95636,1.15625,1.91318,2.17969,2.86954l.1875.17932ZM30.15093,15.65829v4.95364l-.29297-.1457v-4.95364l.29297.1457ZM33.59624,11.92625l-.08203.10087c-.95312,1.22533-1.58984,2.25267-1.91016,3.08201l-.19922-.23535c.52344-1.15809,1.19922-2.21905,2.02734-3.18288l.16406.23535Z" fill="#ff00ed" stroke-width="0"/><path d="M52.03618,7.17285c-.89062.44082-1.46484.84429-1.72266,1.21039-.39062.56784-.58594,1.42333-.58594,2.56648v10.6026h-1.98047l-5.53125-10.26638v6.08558l-.01172.50433.14062,1.61432c.15625.74715.51172,1.30005,1.06641,1.65868l.09375.07845c-1.07812-.34369-1.61719-1.44574-1.61719-3.30663l.01172-1.05349v-6.13041l-.63281-1.17677v6.45542c0,2.0472.14062,3.38881.42188,4.0239s.94141,1.09832,1.98047,1.38971l1.01953,1.04228h-6.35156l-.1875-.3026h5.87109l-.60938-.6164h-5.46094c.95312-.32875,1.58594-.76957,1.89844-1.32246s.46875-1.50225.46875-2.84713v-8.96586l-1.55859-1.24401h5.92969l-1.66406,1.0647,5.67188,10.57971v-1.34488l-4.86328-9.05552,1.64062-1.0647.22266.21294-1.45312.94142,4.45312,8.36066v-5.82781c0-1.30005-.11133-2.16862-.33398-2.6057s-.77148-.85736-1.64648-1.26082h5.32031ZM52.44634,8.00219l-.21094.33622c-.60156.13449-1.00977.38292-1.22461.74529s-.32227.97317-.32227,1.8324v11.55522h-2.51953l-.15234-.3026h2.35547v-11.14055c0-1.05349.14258-1.78757.42773-2.20224s.83398-.68925,1.64648-.82374Z" fill="#c66aff" stroke-width="0"/><path d="M71.29497,4.20417c-.07031.12702-.11719.21294-.14062.25777l-.79688,1.34488c-.27344.47818-.52734,1.0759-.76172,1.79317l-.02344.05604-.11719-.07845-.03516-.1457c-.22656-.85176-.54883-1.44201-.9668-1.77076s-1.05664-.49312-1.91602-.49312c-.35156,0-.70312.01494-1.05469.04483h-.14062v12.14921l1.38281,1.2216h-5.35547l1.64062-1.31126V6.12062l-.83203-.01121c-.80469,0-1.37695.1513-1.7168.4539s-.54102.83495-.60352,1.59704h-.30469c.08594-.87417.32227-1.4831.70898-1.82679s1.02539-.51554,1.91602-.51554l.70312.01121h.12891v-.54916c-.39844-.04483-.77734-.06724-1.13672-.06724-1.00781,0-1.73438.19613-2.17969.58838s-.69141,1.05536-.73828,1.9893h-.14062c-.33594-1.03855-.85547-2.19664-1.55859-3.47427l-.07031-.11207h14.10938ZM68.90435,6.65857c-.60156-.37358-1.30469-.56037-2.10938-.56037-.17969,0-.36719.01121-.5625.03362l.04688,11.26383,1.86328,2.10698h-5.98828l-.26953-.3026h5.61328l-1.57031-1.71472V5.80682l.63281-.01121c.75781,0,1.29492.0579,1.61133.17371s.56055.34556.73242.68925ZM72.03325,4.91023c-.53906.6575-1.10547,1.74834-1.69922,3.27254l-.04688.11207-.25781-.21294.03516-.10087c.57812-1.54661,1.13672-2.62251,1.67578-3.22771l.05859-.06724.23438.22415Z" fill="#ff7ffd" stroke-width="0"/><path d="M77.47786,3.4925h5.55469l-1.57031,1.5242v11.66729l1.47656,1.18798h-5.46094l1.62891-1.28884V4.89342l-1.62891-1.40092ZM83.5599,4.13132l-1.19531,1.13194v11.42073l1.96875,2.10698h-6.09375l-.29297-.3026h5.69531l-1.60547-1.69231V5.16239l1.32422-1.25522.19922.22415Z" fill="#c4aaff" stroke-width="0"/><path d="M103.54888,4.08089c-.40625.52301-.73047,1.06843-.97266,1.63627-.47656,1.12073-.79297,1.80811-.94922,2.06215l-.05859.06724c-.03125-.08219-.05469-.1457-.07031-.19052-.21875-.67244-.39844-1.13941-.53906-1.40092s-.35156-.5118-.63281-.75089c-.71094-.6052-1.51953-.90779-2.42578-.90779-.83594,0-1.53125.22228-2.08594.66684s-.83203,1.00306-.83203,1.67549c0,1.25522.98828,2.11071,2.96484,2.56648l1.98047.4595c2.82031.65002,4.23047,2.07335,4.23047,4.26999,0,1.22533-.48242,2.25501-1.44727,3.08808s-2.1582,1.24962-3.58008,1.24962c-.89062,0-1.88672-.13075-2.98828-.39226l-1.37109-.32501c-.55469-.12702-1.01172-.19052-1.37109-.19052-.47656,0-.96875.1457-1.47656.43709l-.09375-.1569c.96875-1.39718,1.64844-2.72758,2.03906-3.99027l.21094.05604c.16406,1.17303.65625,2.08456,1.47656,2.73505.82031.65002,1.89453.97504,3.22266.97504,1.04688,0,1.87891-.23162,2.49609-.69485s.92578-1.08758.92578-1.87209c0-.90406-.42969-1.65121-1.28906-2.24146-.61719-.41841-1.88281-.80693-3.79688-1.16556-1.47656-.27645-2.54688-.73595-3.21094-1.3785s-.99609-1.5354-.99609-2.67855c0-1.1805.44336-2.13873,1.33008-2.87468s2.04102-1.10392,3.46289-1.10392c.91406,0,1.98047.1569,3.19922.47071.57031.14943.99219.22415,1.26562.22415.38281,0,.80078-.12702,1.25391-.38105l.12891.05604ZM103.54888,11.23116c1.0625.76957,1.59375,1.82306,1.59375,3.16047,0,1.42707-.57812,2.63606-1.73438,3.62604s-2.5625,1.48497-4.21875,1.48497c-.84375,0-1.60547-.08219-2.28516-.24656l-1.875-.43709c-.4375-.1046-.90625-.1569-1.40625-.1569-.44531,0-.85547.08592-1.23047.25777l-.14062-.32501c.40625-.17932.82031-.26898,1.24219-.26898.46875,0,1.00391.06724,1.60547.20173l1.80469.41467c.71875.16437,1.47656.24656,2.27344.24656,1.5625,0,2.89258-.47631,3.99023-1.42893s1.64648-2.10558,1.64648-3.45793c0-1.14315-.42188-2.14433-1.26562-3.00356v-.06724ZM93.74029,10.8277l.39844.21294c.25781.44082,1.01172.80693,2.26172,1.09832l1.88672.44829c1.28125.30633,2.13477.56971,2.56055.79012s.72852.55476.9082,1.00306l-.08203.04483c-.35156-.38852-.73242-.67244-1.14258-.85176s-1.19727-.39973-2.36133-.66123c-1.6875-.37358-2.82031-.69672-3.39844-.96943s-.92188-.64442-1.03125-1.11513ZM95.20513,14.45887c.28906,1.34488,1.0625,2.29797,2.32031,2.85833v.08966c-1.45312-.40346-2.33203-1.36776-2.63672-2.89196l.31641-.05604ZM100.85357,6.78185c-.85938-.87417-1.78125-1.31126-2.76562-1.31126-.59375,0-1.08594.16437-1.47656.49312s-.58594.74715-.58594,1.25522c0,.55289.39453,1.12073,1.18359,1.70351l.09375.05604-.05859.08966c-1.03125-.44082-1.54688-1.07964-1.54688-1.91645,0-.58278.21875-1.05722.65625-1.42333s1.00781-.54916,1.71094-.54916c.67188,0,1.25977.13636,1.76367.40907s.87305.65563,1.10742,1.14875l-.08203.04483ZM104.27544,4.5516l-.10547.16811c-.32031.51554-.59375,1.00866-.82031,1.47937-.54688,1.09832-.85547,1.71098-.92578,1.838l-.05859.07845-.28125-.11207.04688-.10087c.22656-.49312.55469-1.13568.98438-1.92766l.79688-1.47937.05859-.08966.30469.1457Z" fill="#ad6aff" stroke-width="0"/><path d="M125.55279,6.37713c-.07031.12702-.11719.21294-.14062.25777l-.79688,1.34488c-.27344.47818-.52734,1.0759-.76172,1.79317l-.02344.05604-.11719-.07845-.03516-.1457c-.22656-.85176-.54883-1.44201-.9668-1.77076s-1.05664-.49312-1.91602-.49312c-.35156,0-.70312.01494-1.05469.04483h-.14062v12.14921l1.38281,1.2216h-5.35547l1.64062-1.31126v-11.15175l-.83203-.01121c-.80469,0-1.37695.1513-1.7168.4539s-.54102.83495-.60352,1.59704h-.30469c.08594-.87417.32227-1.4831.70898-1.82679s1.02539-.51554,1.91602-.51554l.70312.01121h.12891v-.54916c-.39844-.04483-.77734-.06724-1.13672-.06724-1.00781,0-1.73438.19613-2.17969.58838s-.69141,1.05536-.73828,1.9893h-.14062c-.33594-1.03855-.85547-2.19664-1.55859-3.47427l-.07031-.11207h14.10938ZM123.16216,8.83153c-.60156-.37358-1.30469-.56037-2.10938-.56037-.17969,0-.36719.01121-.5625.03362l.04688,11.26383,1.86328,2.10698h-5.98828l-.26953-.3026h5.61328l-1.57031-1.71472V7.97978l.63281-.01121c.75781,0,1.29492.0579,1.61133.17371s.56055.34556.73242.68925ZM126.29107,7.08319c-.53906.6575-1.10547,1.74834-1.69922,3.27254l-.04688.11207-.25781-.21294.03516-.10087c.57812-1.54661,1.13672-2.62251,1.67578-3.22771l.05859-.06724.23438.22415Z" fill="#cd15ff" stroke-width="0"/><path d="M155.124,14.08118l-5.14119,1.06768-8.64722,6.21155,3.57814,18.04707,2.61688,4.93062-10.05956-5.46057,3.20385-1.55663-2.24308-11.18636-7.65216,5.60063,1.93663,6.75854-10.66391-5.78863-.13264-.79546,9.92309,5.38649-1.68702-5.89958,8.15103-5.9997-.28546-1.33393-8.82536,6.30353,1.49068,4.82839-8.94833-4.85737,5.44963-1.06102,10.44487-7.46082-3.07012-15.30507-2.91105-5.17069,10.2935,5.58756-3.22856,1.30206,2.19319,10.94381.97407-.70381-1.88197-9.00642,2.79131-1.32505.2503.59138-2.39827,1.08289,1.66892,8.35487,5.87575-4.25944-1.64386-4.48283,8.57792,4.6563ZM155.37604,16.2544l-4.48218.64836-7.68916,5.65981,3.3522,17.09379,3.35421,8.17111-12.10656-6.57173-.19112-.8272,11.20978,6.08494-2.79164-6.79394-3.45072-17.4956,8.06271-5.91255,4.55842-.68736.17406.63038Z" fill="#159fff" stroke-width="0"/></svg>